<ttFont>
<head>
    <!-- Most of this table will be recalculated by the compiler -->
    <tableVersion value="1.0"/>
    <fontRevision value="1.09999"/>
    <checkSumAdjustment value="0x24800faa"/>
    <magicNumber value="0x5f0f3cf5"/>
    <flags value="00000000 00000001"/>
    <unitsPerEm value="1000"/>
    <created value="Fri Mar 11 13:48:53 2016"/>
    <modified value="Fri Mar 11 13:48:54 2016"/>
    <xMin value="-460"/>
    <yMin value="-395"/>
    <xMax value="1092"/>
    <yMax value="873"/>
    <macStyle value="00000000 00000000"/>
    <lowestRecPPEM value="6"/>
    <fontDirectionHint value="2"/>
    <indexToLocFormat value="0"/>
    <glyphDataFormat value="0"/>
  </head>
    <TTGlyph name=".notdef" xMin="64" yMin="0" xMax="579" yMax="515">
      <contour>
        <pt x="64" y="0" on="1"/>
        <pt x="64" y="515" on="1"/>
        <pt x="579" y="515" on="1"/>
        <pt x="579" y="0" on="1"/>
      </contour>
      <contour>
        <pt x="160" y="141" on="1"/>
        <pt x="203" y="92" on="1"/>
        <pt x="321" y="220" on="1"/>
        <pt x="444" y="92" on="1"/>
        <pt x="485" y="133" on="1"/>
        <pt x="358" y="257" on="1"/>
        <pt x="485" y="379" on="1"/>
        <pt x="441" y="421" on="1"/>
        <pt x="322" y="293" on="1"/>
        <pt x="201" y="421" on="1"/>
        <pt x="160" y="379" on="1"/>
        <pt x="285" y="256" on="1"/>
      </contour>
    </TTGlyph>
    <TTGlyph name="A" xMin="1" yMin="0" xMax="563" yMax="570">
      <contour>
        <pt x="362" y="218" on="1"/>
        <pt x="264" y="497" on="1"/>
        <pt x="173" y="218" on="1"/>
      </contour>
      <contour>
        <pt x="190" y="37" on="1"/>
        <pt x="190" y="0" on="1"/>
        <pt x="1" y="0" on="1"/>
        <pt x="1" y="37" on="1"/>
        <pt x="45" y="48" on="1"/>
        <pt x="53" y="50" on="0"/>
        <pt x="65" y="59" on="0"/>
        <pt x="67" y="67" on="1"/>
        <pt x="240" y="570" on="1"/>
        <pt x="318" y="570" on="1"/>
        <pt x="499" y="67" on="1"/>
        <pt x="502" y="59" on="0"/>
        <pt x="513" y="50" on="0"/>
        <pt x="521" y="48" on="1"/>
        <pt x="563" y="37" on="1"/>
        <pt x="563" y="0" on="1"/>
        <pt x="347" y="0" on="1"/>
        <pt x="347" y="37" on="1"/>
        <pt x="420" y="51" on="1"/>
        <pt x="377" y="174" on="1"/>
        <pt x="158" y="174" on="1"/>
        <pt x="118" y="51" on="1"/>
      </contour>
    </TTGlyph>
    <TTGlyph name="AE" xMin="-2" yMin="0" xMax="725" yMax="568">
      <contour>
        <pt x="322" y="523" on="1"/>
        <pt x="208" y="254" on="1"/>
        <pt x="368" y="254" on="1"/>
        <pt x="368" y="523" on="1"/>
      </contour>
      <contour>
        <pt x="193" y="37" on="1"/>
        <pt x="193" y="0" on="1"/>
        <pt x="-2" y="0" on="1"/>
        <pt x="-2" y="37" on="1"/>
        <pt x="47" y="48" on="1"/>
        <pt x="54" y="49" on="0"/>
        <pt x="65" y="58" on="0"/>
        <pt x="69" y="65" on="1"/>
        <pt x="262" y="514" on="1"/>
        <pt x="168" y="530" on="1"/>
        <pt x="168" y="568" on="1"/>
        <pt x="691" y="568" on="1"/>
        <pt x="694" y="534" on="0"/>
        <pt x="694" y="465" on="0"/>
        <pt x="691" y="428" on="1"/>
        <pt x="650" y="428" on="1"/>
        <pt x="634" y="497" on="1"/>
        <pt x="632" y="505" on="0"/>
        <pt x="621" y="515" on="0"/>
        <pt x="613" y="519" on="1"/>
        <pt x="600" y="523" on="0"/>
        <pt x="560" y="527" on="0"/>
        <pt x="537" y="527" on="1"/>
        <pt x="446" y="527" on="1"/>
        <pt x="446" y="313" on="1"/>
        <pt x="623" y="319" on="1"/>
        <pt x="623" y="263" on="1"/>
        <pt x="446" y="267" on="1"/>
        <pt x="446" y="44" on="1"/>
        <pt x="557" y="44" on="1"/>
        <pt x="581" y="44" on="0"/>
        <pt x="625" y="48" on="0"/>
        <pt x="637" y="53" on="1"/>
        <pt x="646" y="56" on="0"/>
        <pt x="655" y="67" on="0"/>
        <pt x="658" y="75" on="1"/>
        <pt x="685" y="153" on="1"/>
        <pt x="725" y="148" on="1"/>
        <pt x="725" y="112" on="0"/>
        <pt x="717" y="37" on="0"/>
        <pt x="710" y="0" on="1"/>
        <pt x="291" y="0" on="1"/>
        <pt x="291" y="37" on="1"/>
        <pt x="349" y="48" on="1"/>
        <pt x="359" y="49" on="0"/>
        <pt x="368" y="61" on="0"/>
        <pt x="368" y="70" on="1"/>
        <pt x="368" y="209" on="1"/>
        <pt x="189" y="209" on="1"/>
        <pt x="121" y="48" on="1"/>
      </contour>
    </TTGlyph>
    <TTGlyph name="Aacute" xMin="1" yMin="0" xMax="563" yMax="754">
      <component glyphName="A" x="0" y="0" flags="0x204"/>
      <component glyphName="acutecomb.case" x="281" y="0" flags="0x4"/>
    </TTGlyph>
    <TTGlyph name="Abreve" xMin="1" yMin="0" xMax="563" yMax="737">
      <component glyphName="A" x="0" y="0" flags="0x204"/>
      <component glyphName="uni0306.case" x="281" y="0" flags="0x4"/>
    </TTGlyph>
    <TTGlyph name="Acircumflex" xMin="1" yMin="0" xMax="563" yMax="748">
      <component glyphName="A" x="0" y="0" flags="0x204"/>
      <component glyphName="uni0302.case" x="281" y="0" flags="0x4"/>
    </TTGlyph>
    <TTGlyph name="Adieresis" xMin="1" yMin="0" xMax="563" yMax="716">
      <component glyphName="A" x="0" y="0" flags="0x204"/>
      <component glyphName="uni0308.case" x="281" y="0" flags="0x4"/>
    </TTGlyph>
    <TTGlyph name="Agrave" xMin="1" yMin="0" xMax="563" yMax="758">
      <component glyphName="A" x="0" y="0" flags="0x204"/>
      <component glyphName="gravecomb.case" x="281" y="0" flags="0x4"/>
    </TTGlyph>
    <TTGlyph name="Amacron" xMin="1" yMin="0" xMax="563" yMax="692">
      <component glyphName="A" x="0" y="0" flags="0x204"/>
      <component glyphName="uni0304.case" x="281" y="0" flags="0x4"/>
    </TTGlyph>
    <TTGlyph name="Aogonek" xMin="1" yMin="-188" xMax="563" yMax="570">
      <contour>
        <pt x="362" y="218" on="1"/>
        <pt x="264" y="497" on="1"/>
        <pt x="173" y="218" on="1"/>
      </contour>
      <contour>
        <pt x="542" y="-160" on="1"/>
        <pt x="525" y="-173" on="0"/>
        <pt x="473" y="-188" on="0"/>
        <pt x="448" y="-188" on="1"/>
        <pt x="411" y="-187" on="0"/>
        <pt x="357" y="-153" on="0"/>
        <pt x="357" y="-117" on="1"/>
        <pt x="357" y="-79" on="0"/>
        <pt x="419" y="-18" on="0"/>
        <pt x="458" y="-2" on="1"/>
        <pt x="458" y="0" on="1"/>
        <pt x="347" y="0" on="1"/>
        <pt x="347" y="37" on="1"/>
        <pt x="420" y="51" on="1"/>
        <pt x="377" y="174" on="1"/>
        <pt x="158" y="174" on="1"/>
        <pt x="118" y="51" on="1"/>
        <pt x="190" y="37" on="1"/>
        <pt x="190" y="0" on="1"/>
        <pt x="1" y="0" on="1"/>
        <pt x="1" y="37" on="1"/>
        <pt x="45" y="48" on="1"/>
        <pt x="53" y="50" on="0"/>
        <pt x="65" y="59" on="0"/>
        <pt x="67" y="67" on="1"/>
        <pt x="240" y="570" on="1"/>
        <pt x="318" y="570" on="1"/>
        <pt x="499" y="67" on="1"/>
        <pt x="502" y="59" on="0"/>
        <pt x="513" y="50" on="0"/>
        <pt x="521" y="48" on="1"/>
        <pt x="563" y="37" on="1"/>
        <pt x="563" y="0" on="1"/>
        <pt x="520" y="0" on="1"/>
        <pt x="480" y="-16" on="0"/>
        <pt x="427" y="-68" on="0"/>
        <pt x="427" y="-96" on="1"/>
        <pt x="427" y="-118" on="0"/>
        <pt x="457" y="-139" on="0"/>
        <pt x="479" y="-139" on="1"/>
        <pt x="490" y="-139" on="0"/>
        <pt x="516" y="-133" on="0"/>
        <pt x="528" y="-127" on="1"/>
      </contour>
    </TTGlyph>
    <TTGlyph name="Aring" xMin="1" yMin="0" xMax="563" yMax="736">
      <component glyphName="A" x="0" y="0" flags="0x204"/>
      <component glyphName="uni030A.case.low" x="281" y="0" flags="0x4"/>
    </TTGlyph>
    <TTGlyph name="Atilde" xMin="1" yMin="0" xMax="563" yMax="726">
      <component glyphName="A" x="0" y="0" flags="0x204"/>
      <component glyphName="tildecomb.case" x="281" y="0" flags="0x4"/>
    </TTGlyph>
    <TTGlyph name="B" xMin="40" yMin="-4" xMax="507" yMax="574">
      <contour>
        <pt x="276" y="-4" on="1"/>
        <pt x="245" y="-4" on="0"/>
        <pt x="196" y="0" on="0"/>
        <pt x="155" y="0" on="1"/>
        <pt x="40" y="0" on="1"/>
        <pt x="40" y="37" on="1"/>
        <pt x="100" y="48" on="1"/>
        <pt x="107" y="49" on="0"/>
        <pt x="117" y="61" on="0"/>
        <pt x="117" y="68" on="1"/>
        <pt x="117" y="498" on="1"/>
        <pt x="117" y="505" on="0"/>
        <pt x="108" y="517" on="0"/>
        <pt x="101" y="518" on="1"/>
        <pt x="40" y="530" on="1"/>
        <pt x="40" y="568" on="1"/>
        <pt x="157" y="568" on="1"/>
        <pt x="191" y="568" on="0"/>
        <pt x="248" y="574" on="0"/>
        <pt x="280" y="574" on="1"/>
        <pt x="382" y="574" on="0"/>
        <pt x="468" y="505" on="0"/>
        <pt x="468" y="441" on="1"/>
        <pt x="468" y="390" on="0"/>
        <pt x="417" y="316" on="0"/>
        <pt x="369" y="303" on="1"/>
        <pt x="432" y="301" on="0"/>
        <pt x="507" y="228" on="0"/>
        <pt x="507" y="167" on="1"/>
        <pt x="507" y="95" on="0"/>
        <pt x="408" y="-4" on="0"/>
      </contour>
      <contour>
        <pt x="197" y="531" on="1"/>
        <pt x="197" y="316" on="1"/>
        <pt x="221" y="315" on="0"/>
        <pt x="268" y="316" on="0"/>
        <pt x="279" y="316" on="1"/>
        <pt x="332" y="316" on="0"/>
        <pt x="388" y="373" on="0"/>
        <pt x="388" y="431" on="1"/>
        <pt x="388" y="484" on="0"/>
        <pt x="333" y="535" on="0"/>
        <pt x="267" y="535" on="1"/>
        <pt x="245" y="535" on="0"/>
        <pt x="207" y="531" on="0"/>
      </contour>
      <contour>
        <pt x="274" y="36" on="1"/>
        <pt x="352" y="36" on="0"/>
        <pt x="419" y="97" on="0"/>
        <pt x="419" y="158" on="1"/>
        <pt x="419" y="219" on="0"/>
        <pt x="357" y="273" on="0"/>
        <pt x="292" y="273" on="1"/>
        <pt x="276" y="273" on="0"/>
        <pt x="222" y="272" on="0"/>
        <pt x="197" y="272" on="1"/>
        <pt x="197" y="41" on="1"/>
        <pt x="212" y="39" on="0"/>
        <pt x="256" y="36" on="0"/>
      </contour>
    </TTGlyph>
    <TTGlyph name="C" xMin="45" yMin="-10" xMax="480" yMax="577">
      <contour>
        <pt x="305" y="-10" on="1"/>
        <pt x="174" y="-10" on="0"/>
        <pt x="45" y="141" on="0"/>
        <pt x="45" y="274" on="1"/>
        <pt x="45" y="425" on="0"/>
        <pt x="194" y="577" on="0"/>
        <pt x="319" y="577" on="1"/>
        <pt x="354" y="577" on="0"/>
        <pt x="441" y="564" on="0"/>
        <pt x="478" y="550" on="1"/>
        <pt x="479" y="519" on="0"/>
        <pt x="475" y="446" on="0"/>
        <pt x="470" y="410" on="1"/>
        <pt x="423" y="410" on="1"/>
        <pt x="406" y="492" on="1"/>
        <pt x="404" y="500" on="0"/>
        <pt x="395" y="513" on="0"/>
        <pt x="387" y="517" on="1"/>
        <pt x="375" y="524" on="0"/>
        <pt x="327" y="536" on="0"/>
        <pt x="301" y="536" on="1"/>
        <pt x="226" y="536" on="0"/>
        <pt x="137" y="418" on="0"/>
        <pt x="137" y="288" on="1"/>
        <pt x="137" y="175" on="0"/>
        <pt x="214" y="31" on="0"/>
        <pt x="302" y="31" on="1"/>
        <pt x="326" y="31" on="0"/>
        <pt x="373" y="43" on="0"/>
        <pt x="389" y="53" on="1"/>
        <pt x="396" y="58" on="0"/>
        <pt x="404" y="70" on="0"/>
        <pt x="407" y="79" on="1"/>
        <pt x="432" y="154" on="1"/>
        <pt x="479" y="149" on="1"/>
        <pt x="480" y="120" on="0"/>
        <pt x="475" y="51" on="0"/>
        <pt x="470" y="19" on="1"/>
        <pt x="438" y="6" on="0"/>
        <pt x="349" y="-10" on="0"/>
      </contour>
    </TTGlyph>
    <TTGlyph name="Cacute" xMin="45" yMin="-10" xMax="480" yMax="754">
      <component glyphName="C" x="0" y="0" flags="0x204"/>
      <component glyphName="acutecomb.case" x="304" y="0" flags="0x4"/>
    </TTGlyph>
    <TTGlyph name="Ccaron" xMin="45" yMin="-10" xMax="480" yMax="752">
      <component glyphName="C" x="0" y="0" flags="0x204"/>
      <component glyphName="uni030C.case" x="304" y="0" flags="0x4"/>
    </TTGlyph>
    <TTGlyph name="Ccedilla" xMin="45" yMin="-188" xMax="480" yMax="577">
      <component glyphName="C" x="0" y="0" flags="0x204"/>
      <component glyphName="uni0327" x="297" y="0" flags="0x4"/>
    </TTGlyph>
    <TTGlyph name="Ccircumflex" xMin="45" yMin="-10" xMax="480" yMax="748">
      <component glyphName="C" x="0" y="0" flags="0x204"/>
      <component glyphName="uni0302.case" x="304" y="0" flags="0x4"/>
    </TTGlyph>
    <TTGlyph name="Cdotaccent" xMin="45" yMin="-10" xMax="480" yMax="727">
      <component glyphName="C" x="0" y="0" flags="0x204"/>
      <component glyphName="uni0307.case" x="304" y="0" flags="0x4"/>
    </TTGlyph>
    <TTGlyph name="D" xMin="40" yMin="-8" xMax="562" yMax="574">
      <contour>
        <pt x="157" y="568" on="1"/>
        <pt x="191" y="568" on="0"/>
        <pt x="255" y="574" on="0"/>
        <pt x="289" y="574" on="1"/>
        <pt x="429" y="574" on="0"/>
        <pt x="562" y="434" on="0"/>
        <pt x="562" y="301" on="1"/>
        <pt x="562" y="149" on="0"/>
        <pt x="408" y="-8" on="0"/>
        <pt x="278" y="-5" on="1"/>
        <pt x="254" y="-5" on="0"/>
        <pt x="187" y="0" on="0"/>
        <pt x="158" y="0" on="1"/>
        <pt x="40" y="0" on="1"/>
        <pt x="40" y="37" on="1"/>
        <pt x="99" y="48" on="1"/>
        <pt x="107" y="49" on="0"/>
        <pt x="117" y="61" on="0"/>
        <pt x="117" y="69" on="1"/>
        <pt x="117" y="498" on="1"/>
        <pt x="117" y="505" on="0"/>
        <pt x="108" y="517" on="0"/>
        <pt x="101" y="518" on="1"/>
        <pt x="40" y="530" on="1"/>
        <pt x="40" y="568" on="1"/>
      </contour>
      <contour>
        <pt x="198" y="43" on="1"/>
        <pt x="214" y="39" on="0"/>
        <pt x="266" y="35" on="0"/>
        <pt x="286" y="36" on="1"/>
        <pt x="376" y="38" on="0"/>
        <pt x="475" y="156" on="0"/>
        <pt x="475" y="287" on="1"/>
        <pt x="475" y="413" on="0"/>
        <pt x="374" y="533" on="0"/>
        <pt x="271" y="533" on="1"/>
        <pt x="248" y="533" on="0"/>
        <pt x="210" y="529" on="0"/>
        <pt x="198" y="528" on="1"/>
      </contour>
    </TTGlyph>
    <TTGlyph name="Dcaron" xMin="40" yMin="-8" xMax="562" yMax="752">
      <component glyphName="D" x="0" y="0" flags="0x204"/>
      <component glyphName="uni030C.case" x="293" y="0" flags="0x4"/>
    </TTGlyph>
    <TTGlyph name="Dcroat" xMin="41" yMin="-8" xMax="563" yMax="574">
      <contour>
        <pt x="563" y="301" on="1"/>
        <pt x="563" y="149" on="0"/>
        <pt x="409" y="-8" on="0"/>
        <pt x="279" y="-5" on="1"/>
        <pt x="255" y="-5" on="0"/>
        <pt x="188" y="0" on="0"/>
        <pt x="159" y="0" on="1"/>
        <pt x="41" y="0" on="1"/>
        <pt x="41" y="37" on="1"/>
        <pt x="99" y="48" on="1"/>
        <pt x="108" y="49" on="0"/>
        <pt x="117" y="61" on="0"/>
        <pt x="117" y="69" on="1"/>
        <pt x="117" y="269" on="1"/>
        <pt x="45" y="269" on="1"/>
        <pt x="45" y="315" on="1"/>
        <pt x="117" y="315" on="1"/>
        <pt x="117" y="498" on="1"/>
        <pt x="117" y="505" on="0"/>
        <pt x="108" y="517" on="0"/>
        <pt x="101" y="518" on="1"/>
        <pt x="41" y="530" on="1"/>
        <pt x="41" y="568" on="1"/>
        <pt x="157" y="568" on="1"/>
        <pt x="192" y="568" on="0"/>
        <pt x="256" y="574" on="0"/>
        <pt x="290" y="574" on="1"/>
        <pt x="430" y="574" on="0"/>
        <pt x="563" y="434" on="0"/>
      </contour>
      <contour>
        <pt x="198" y="43" on="1"/>
        <pt x="214" y="39" on="0"/>
        <pt x="267" y="35" on="0"/>
        <pt x="286" y="36" on="1"/>
        <pt x="376" y="38" on="0"/>
        <pt x="476" y="156" on="0"/>
        <pt x="476" y="287" on="1"/>
        <pt x="476" y="413" on="0"/>
        <pt x="375" y="533" on="0"/>
        <pt x="272" y="533" on="1"/>
        <pt x="249" y="533" on="0"/>
        <pt x="211" y="529" on="0"/>
        <pt x="198" y="528" on="1"/>
        <pt x="198" y="315" on="1"/>
        <pt x="327" y="315" on="1"/>
        <pt x="327" y="269" on="1"/>
        <pt x="198" y="269" on="1"/>
      </contour>
    </TTGlyph>
    <TTGlyph name="E" xMin="40" yMin="0" xMax="477" yMax="568">
      <contour>
        <pt x="443" y="428" on="1"/>
        <pt x="402" y="428" on="1"/>
        <pt x="386" y="497" on="1"/>
        <pt x="384" y="505" on="0"/>
        <pt x="373" y="515" on="0"/>
        <pt x="365" y="519" on="1"/>
        <pt x="352" y="523" on="0"/>
        <pt x="312" y="527" on="0"/>
        <pt x="289" y="527" on="1"/>
        <pt x="198" y="527" on="1"/>
        <pt x="198" y="314" on="1"/>
        <pt x="375" y="320" on="1"/>
        <pt x="375" y="264" on="1"/>
        <pt x="198" y="268" on="1"/>
        <pt x="198" y="44" on="1"/>
        <pt x="309" y="44" on="1"/>
        <pt x="333" y="44" on="0"/>
        <pt x="377" y="48" on="0"/>
        <pt x="389" y="53" on="1"/>
        <pt x="398" y="56" on="0"/>
        <pt x="407" y="67" on="0"/>
        <pt x="410" y="75" on="1"/>
        <pt x="437" y="153" on="1"/>
        <pt x="477" y="148" on="1"/>
        <pt x="477" y="112" on="0"/>
        <pt x="469" y="37" on="0"/>
        <pt x="462" y="0" on="1"/>
        <pt x="40" y="0" on="1"/>
        <pt x="40" y="37" on="1"/>
        <pt x="98" y="48" on="1"/>
        <pt x="108" y="49" on="0"/>
        <pt x="117" y="61" on="0"/>
        <pt x="117" y="70" on="1"/>
        <pt x="117" y="496" on="1"/>
        <pt x="117" y="505" on="0"/>
        <pt x="107" y="518" on="0"/>
        <pt x="98" y="519" on="1"/>
        <pt x="40" y="530" on="1"/>
        <pt x="40" y="568" on="1"/>
        <pt x="444" y="568" on="1"/>
        <pt x="446" y="534" on="0"/>
        <pt x="446" y="465" on="0"/>
      </contour>
    </TTGlyph>
    <TTGlyph name="Eacute" xMin="40" yMin="0" xMax="477" yMax="754">
      <component glyphName="E" x="0" y="0" flags="0x204"/>
      <component glyphName="acutecomb.case" x="267" y="0" flags="0x4"/>
    </TTGlyph>
    <TTGlyph name="Ebreve" xMin="40" yMin="0" xMax="477" yMax="737">
      <component glyphName="E" x="0" y="0" flags="0x204"/>
      <component glyphName="uni0306.case" x="267" y="0" flags="0x4"/>
    </TTGlyph>
    <TTGlyph name="Ecaron" xMin="40" yMin="0" xMax="477" yMax="752">
      <component glyphName="E" x="0" y="0" flags="0x204"/>
      <component glyphName="uni030C.case" x="267" y="0" flags="0x4"/>
    </TTGlyph>
    <TTGlyph name="Ecircumflex" xMin="40" yMin="0" xMax="477" yMax="748">
      <component glyphName="E" x="0" y="0" flags="0x204"/>
      <component glyphName="uni0302.case" x="267" y="0" flags="0x4"/>
    </TTGlyph>
    <TTGlyph name="Edieresis" xMin="40" yMin="0" xMax="477" yMax="716">
      <component glyphName="E" x="0" y="0" flags="0x204"/>
      <component glyphName="uni0308.case" x="267" y="0" flags="0x4"/>
    </TTGlyph>
    <TTGlyph name="Edotaccent" xMin="40" yMin="0" xMax="477" yMax="727">
      <component glyphName="E" x="0" y="0" flags="0x204"/>
      <component glyphName="uni0307.case" x="267" y="0" flags="0x4"/>
    </TTGlyph>
    <TTGlyph name="Egrave" xMin="40" yMin="0" xMax="477" yMax="758">
      <component glyphName="E" x="0" y="0" flags="0x204"/>
      <component glyphName="gravecomb.case" x="267" y="0" flags="0x4"/>
    </TTGlyph>
    <TTGlyph name="Emacron" xMin="40" yMin="0" xMax="477" yMax="692">
      <component glyphName="E" x="0" y="0" flags="0x204"/>
      <component glyphName="uni0304.case" x="267" y="0" flags="0x4"/>
    </TTGlyph>
    <TTGlyph name="Eng" xMin="40" yMin="-183" xMax="612" yMax="568">
      <contour>
        <pt x="384" y="-183" on="1"/>
        <pt x="371" y="-183" on="0"/>
        <pt x="347" y="-180" on="0"/>
        <pt x="333" y="-179" on="1"/>
        <pt x="330" y="-138" on="1"/>
        <pt x="353" y="-134" on="0"/>
        <pt x="401" y="-121" on="0"/>
        <pt x="419" y="-111" on="1"/>
        <pt x="444" y="-95" on="0"/>
        <pt x="476" y="-41" on="0"/>
        <pt x="483" y="-1" on="1"/>
        <pt x="169" y="466" on="1"/>
        <pt x="169" y="71" on="1"/>
        <pt x="169" y="61" on="0"/>
        <pt x="179" y="49" on="0"/>
        <pt x="189" y="48" on="1"/>
        <pt x="255" y="37" on="1"/>
        <pt x="255" y="0" on="1"/>
        <pt x="40" y="0" on="1"/>
        <pt x="40" y="37" on="1"/>
        <pt x="98" y="48" on="1"/>
        <pt x="108" y="49" on="0"/>
        <pt x="117" y="61" on="0"/>
        <pt x="117" y="70" on="1"/>
        <pt x="117" y="496" on="1"/>
        <pt x="117" y="505" on="0"/>
        <pt x="107" y="518" on="0"/>
        <pt x="98" y="519" on="1"/>
        <pt x="40" y="530" on="1"/>
        <pt x="40" y="568" on="1"/>
        <pt x="198" y="568" on="1"/>
        <pt x="488" y="133" on="1"/>
        <pt x="488" y="496" on="1"/>
        <pt x="488" y="505" on="0"/>
        <pt x="479" y="518" on="0"/>
        <pt x="469" y="519" on="1"/>
        <pt x="408" y="530" on="1"/>
        <pt x="408" y="568" on="1"/>
        <pt x="612" y="568" on="1"/>
        <pt x="612" y="530" on="1"/>
        <pt x="560" y="519" on="1"/>
        <pt x="551" y="517" on="0"/>
        <pt x="541" y="506" on="0"/>
        <pt x="541" y="496" on="1"/>
        <pt x="541" y="23" on="1"/>
        <pt x="541" y="-67" on="0"/>
        <pt x="476" y="-183" on="0"/>
      </contour>
    </TTGlyph>
    <TTGlyph name="Eogonek" xMin="40" yMin="-188" xMax="477" yMax="568">
      <contour>
        <pt x="472" y="-160" on="1"/>
        <pt x="453" y="-173" on="0"/>
        <pt x="402" y="-188" on="0"/>
        <pt x="377" y="-188" on="1"/>
        <pt x="340" y="-187" on="0"/>
        <pt x="287" y="-153" on="0"/>
        <pt x="287" y="-117" on="1"/>
        <pt x="287" y="-79" on="0"/>
        <pt x="350" y="-18" on="0"/>
        <pt x="391" y="-2" on="1"/>
        <pt x="391" y="0" on="1"/>
        <pt x="40" y="0" on="1"/>
        <pt x="40" y="37" on="1"/>
        <pt x="98" y="48" on="1"/>
        <pt x="108" y="49" on="0"/>
        <pt x="117" y="61" on="0"/>
        <pt x="117" y="70" on="1"/>
        <pt x="117" y="496" on="1"/>
        <pt x="117" y="505" on="0"/>
        <pt x="107" y="518" on="0"/>
        <pt x="98" y="519" on="1"/>
        <pt x="40" y="530" on="1"/>
        <pt x="40" y="568" on="1"/>
        <pt x="444" y="568" on="1"/>
        <pt x="446" y="534" on="0"/>
        <pt x="446" y="465" on="0"/>
        <pt x="443" y="428" on="1"/>
        <pt x="402" y="428" on="1"/>
        <pt x="386" y="497" on="1"/>
        <pt x="384" y="505" on="0"/>
        <pt x="373" y="515" on="0"/>
        <pt x="365" y="519" on="1"/>
        <pt x="352" y="523" on="0"/>
        <pt x="312" y="527" on="0"/>
        <pt x="289" y="527" on="1"/>
        <pt x="198" y="527" on="1"/>
        <pt x="198" y="314" on="1"/>
        <pt x="375" y="320" on="1"/>
        <pt x="375" y="264" on="1"/>
        <pt x="198" y="268" on="1"/>
        <pt x="198" y="44" on="1"/>
        <pt x="309" y="44" on="1"/>
        <pt x="333" y="44" on="0"/>
        <pt x="377" y="48" on="0"/>
        <pt x="389" y="53" on="1"/>
        <pt x="398" y="56" on="0"/>
        <pt x="407" y="67" on="0"/>
        <pt x="410" y="75" on="1"/>
        <pt x="437" y="153" on="1"/>
        <pt x="477" y="148" on="1"/>
        <pt x="477" y="112" on="0"/>
        <pt x="469" y="37" on="0"/>
        <pt x="462" y="0" on="1"/>
        <pt x="420" y="-11" on="0"/>
        <pt x="356" y="-66" on="0"/>
        <pt x="356" y="-96" on="1"/>
        <pt x="356" y="-118" on="0"/>
        <pt x="385" y="-139" on="0"/>
        <pt x="407" y="-139" on="1"/>
        <pt x="419" y="-139" on="0"/>
        <pt x="445" y="-133" on="0"/>
        <pt x="457" y="-127" on="1"/>
      </contour>
    </TTGlyph>
    <TTGlyph name="Eth" xMin="41" yMin="-8" xMax="563" yMax="574">
      <component glyphName="Dcroat" x="0" y="0" flags="0x204"/>
    </TTGlyph>
    <TTGlyph name="Euro" xMin="36" yMin="-8" xMax="487" yMax="507">
      <contour>
        <pt x="478" y="20" on="1"/>
        <pt x="451" y="8" on="0"/>
        <pt x="372" y="-8" on="0"/>
        <pt x="335" y="-8" on="1"/>
        <pt x="242" y="-8" on="0"/>
        <pt x="132" y="86" on="0"/>
        <pt x="119" y="175" on="1"/>
        <pt x="36" y="175" on="1"/>
        <pt x="36" y="216" on="1"/>
        <pt x="115" y="216" on="1"/>
        <pt x="115" y="221" on="0"/>
        <pt x="115" y="232" on="0"/>
        <pt x="115" y="237" on="1"/>
        <pt x="115" y="247" on="0"/>
        <pt x="116" y="268" on="0"/>
        <pt x="117" y="278" on="1"/>
        <pt x="41" y="278" on="1"/>
        <pt x="41" y="318" on="1"/>
        <pt x="122" y="318" on="1"/>
        <pt x="141" y="412" on="0"/>
        <pt x="262" y="507" on="0"/>
        <pt x="349" y="507" on="1"/>
        <pt x="380" y="507" on="0"/>
        <pt x="453" y="495" on="0"/>
        <pt x="484" y="482" on="1"/>
        <pt x="485" y="453" on="0"/>
        <pt x="481" y="386" on="0"/>
        <pt x="477" y="355" on="1"/>
        <pt x="433" y="355" on="1"/>
        <pt x="418" y="426" on="1"/>
        <pt x="416" y="436" on="0"/>
        <pt x="407" y="447" on="0"/>
        <pt x="400" y="452" on="1"/>
        <pt x="389" y="459" on="0"/>
        <pt x="351" y="469" on="0"/>
        <pt x="332" y="469" on="1"/>
        <pt x="283" y="469" on="0"/>
        <pt x="215" y="396" on="0"/>
        <pt x="205" y="318" on="1"/>
        <pt x="371" y="318" on="1"/>
        <pt x="371" y="278" on="1"/>
        <pt x="201" y="278" on="1"/>
        <pt x="200" y="271" on="0"/>
        <pt x="200" y="254" on="0"/>
        <pt x="200" y="246" on="1"/>
        <pt x="200" y="239" on="0"/>
        <pt x="200" y="223" on="0"/>
        <pt x="201" y="216" on="1"/>
        <pt x="366" y="216" on="1"/>
        <pt x="366" y="175" on="1"/>
        <pt x="204" y="175" on="1"/>
        <pt x="214" y="106" on="0"/>
        <pt x="276" y="31" on="0"/>
        <pt x="330" y="31" on="1"/>
        <pt x="352" y="31" on="0"/>
        <pt x="390" y="45" on="0"/>
        <pt x="400" y="52" on="1"/>
        <pt x="407" y="57" on="0"/>
        <pt x="415" y="69" on="0"/>
        <pt x="418" y="77" on="1"/>
        <pt x="441" y="143" on="1"/>
        <pt x="486" y="140" on="1"/>
        <pt x="487" y="112" on="0"/>
        <pt x="483" y="50" on="0"/>
      </contour>
    </TTGlyph>
    <TTGlyph name="Euro.tf" xMin="1" yMin="-8" xMax="418" yMax="507">
      <contour>
        <pt x="409" y="19" on="1"/>
        <pt x="384" y="7" on="0"/>
        <pt x="310" y="-8" on="0"/>
        <pt x="275" y="-8" on="1"/>
        <pt x="185" y="-8" on="0"/>
        <pt x="82" y="84" on="0"/>
        <pt x="70" y="175" on="1"/>
        <pt x="1" y="175" on="1"/>
        <pt x="1" y="216" on="1"/>
        <pt x="66" y="216" on="1"/>
        <pt x="66" y="221" on="0"/>
        <pt x="66" y="232" on="0"/>
        <pt x="66" y="237" on="1"/>
        <pt x="66" y="247" on="0"/>
        <pt x="67" y="268" on="0"/>
        <pt x="68" y="278" on="1"/>
        <pt x="3" y="278" on="1"/>
        <pt x="3" y="318" on="1"/>
        <pt x="73" y="318" on="1"/>
        <pt x="89" y="414" on="0"/>
        <pt x="203" y="507" on="0"/>
        <pt x="286" y="507" on="1"/>
        <pt x="315" y="507" on="0"/>
        <pt x="383" y="495" on="0"/>
        <pt x="413" y="482" on="1"/>
        <pt x="414" y="453" on="0"/>
        <pt x="409" y="386" on="0"/>
        <pt x="405" y="355" on="1"/>
        <pt x="361" y="355" on="1"/>
        <pt x="346" y="426" on="1"/>
        <pt x="344" y="436" on="0"/>
        <pt x="337" y="447" on="0"/>
        <pt x="330" y="452" on="1"/>
        <pt x="320" y="459" on="0"/>
        <pt x="288" y="469" on="0"/>
        <pt x="271" y="469" on="1"/>
        <pt x="226" y="469" on="0"/>
        <pt x="164" y="396" on="0"/>
        <pt x="154" y="318" on="1"/>
        <pt x="305" y="318" on="1"/>
        <pt x="305" y="278" on="1"/>
        <pt x="151" y="278" on="1"/>
        <pt x="150" y="270" on="0"/>
        <pt x="150" y="252" on="0"/>
        <pt x="150" y="243" on="1"/>
        <pt x="150" y="236" on="0"/>
        <pt x="150" y="223" on="0"/>
        <pt x="151" y="216" on="1"/>
        <pt x="302" y="216" on="1"/>
        <pt x="302" y="175" on="1"/>
        <pt x="154" y="175" on="1"/>
        <pt x="162" y="105" on="0"/>
        <pt x="217" y="31" on="0"/>
        <pt x="266" y="31" on="1"/>
        <pt x="288" y="31" on="0"/>
        <pt x="322" y="43" on="0"/>
        <pt x="332" y="51" on="1"/>
        <pt x="339" y="56" on="0"/>
        <pt x="348" y="70" on="0"/>
        <pt x="351" y="79" on="1"/>
        <pt x="372" y="147" on="1"/>
        <pt x="416" y="143" on="1"/>
        <pt x="418" y="113" on="0"/>
        <pt x="415" y="49" on="0"/>
      </contour>
    </TTGlyph>
    <TTGlyph name="F" xMin="40" yMin="0" xMax="446" yMax="568">
      <contour>
        <pt x="375" y="256" on="1"/>
        <pt x="198" y="261" on="1"/>
        <pt x="198" y="69" on="1"/>
        <pt x="198" y="62" on="0"/>
        <pt x="208" y="50" on="0"/>
        <pt x="216" y="49" on="1"/>
        <pt x="308" y="37" on="1"/>
        <pt x="308" y="0" on="1"/>
        <pt x="40" y="0" on="1"/>
        <pt x="40" y="37" on="1"/>
        <pt x="98" y="48" on="1"/>
        <pt x="108" y="49" on="0"/>
        <pt x="117" y="61" on="0"/>
        <pt x="117" y="70" on="1"/>
        <pt x="117" y="496" on="1"/>
        <pt x="117" y="505" on="0"/>
        <pt x="107" y="518" on="0"/>
        <pt x="98" y="519" on="1"/>
        <pt x="40" y="530" on="1"/>
        <pt x="40" y="568" on="1"/>
        <pt x="444" y="568" on="1"/>
        <pt x="446" y="534" on="0"/>
        <pt x="446" y="465" on="0"/>
        <pt x="443" y="428" on="1"/>
        <pt x="402" y="428" on="1"/>
        <pt x="386" y="497" on="1"/>
        <pt x="384" y="505" on="0"/>
        <pt x="373" y="515" on="0"/>
        <pt x="365" y="519" on="1"/>
        <pt x="352" y="523" on="0"/>
        <pt x="312" y="527" on="0"/>
        <pt x="289" y="527" on="1"/>
        <pt x="198" y="527" on="1"/>
        <pt x="198" y="306" on="1"/>
        <pt x="375" y="312" on="1"/>
      </contour>
    </TTGlyph>
    <TTGlyph name="G" xMin="45" yMin="-9" xMax="547" yMax="577">
      <contour>
        <pt x="484" y="-4" on="1"/>
        <pt x="438" y="44" on="1"/>
        <pt x="410" y="19" on="0"/>
        <pt x="336" y="-9" on="0"/>
        <pt x="289" y="-9" on="1"/>
        <pt x="170" y="-9" on="0"/>
        <pt x="45" y="150" on="0"/>
        <pt x="45" y="277" on="1"/>
        <pt x="45" y="426" on="0"/>
        <pt x="202" y="577" on="0"/>
        <pt x="328" y="577" on="1"/>
        <pt x="373" y="577" on="0"/>
        <pt x="460" y="560" on="0"/>
        <pt x="497" y="541" on="1"/>
        <pt x="499" y="510" on="0"/>
        <pt x="494" y="446" on="0"/>
        <pt x="490" y="414" on="1"/>
        <pt x="442" y="414" on="1"/>
        <pt x="425" y="487" on="1"/>
        <pt x="422" y="497" on="0"/>
        <pt x="414" y="511" on="0"/>
        <pt x="406" y="515" on="1"/>
        <pt x="391" y="524" on="0"/>
        <pt x="344" y="537" on="0"/>
        <pt x="314" y="537" on="1"/>
        <pt x="236" y="537" on="0"/>
        <pt x="137" y="414" on="0"/>
        <pt x="137" y="286" on="1"/>
        <pt x="137" y="182" on="0"/>
        <pt x="218" y="43" on="0"/>
        <pt x="314" y="43" on="1"/>
        <pt x="345" y="43" on="0"/>
        <pt x="402" y="59" on="0"/>
        <pt x="424" y="78" on="1"/>
        <pt x="424" y="237" on="1"/>
        <pt x="324" y="244" on="1"/>
        <pt x="324" y="287" on="1"/>
        <pt x="547" y="287" on="1"/>
        <pt x="547" y="244" on="1"/>
        <pt x="504" y="237" on="1"/>
        <pt x="504" y="5" on="1"/>
      </contour>
    </TTGlyph>
    <TTGlyph name="Gbreve" xMin="45" yMin="-9" xMax="547" yMax="737">
      <component glyphName="G" x="0" y="0" flags="0x204"/>
      <component glyphName="uni0306.case" x="312" y="0" flags="0x4"/>
    </TTGlyph>
    <TTGlyph name="Gcircumflex" xMin="45" yMin="-9" xMax="547" yMax="748">
      <component glyphName="G" x="0" y="0" flags="0x204"/>
      <component glyphName="uni0302.case" x="312" y="0" flags="0x4"/>
    </TTGlyph>
    <TTGlyph name="Gcommaaccent" xMin="45" yMin="-212" xMax="547" yMax="577">
      <component glyphName="G" x="0" y="0" flags="0x204"/>
      <component glyphName="uni0326" x="294" y="0" flags="0x4"/>
    </TTGlyph>
    <TTGlyph name="Gdotaccent" xMin="45" yMin="-9" xMax="547" yMax="727">
      <component glyphName="G" x="0" y="0" flags="0x204"/>
      <component glyphName="uni0307.case" x="312" y="0" flags="0x4"/>
    </TTGlyph>
    <TTGlyph name="H" xMin="40" yMin="0" xMax="624" yMax="568">
      <contour>
        <pt x="624" y="568" on="1"/>
        <pt x="624" y="530" on="1"/>
        <pt x="566" y="519" on="1"/>
        <pt x="556" y="518" on="0"/>
        <pt x="547" y="505" on="0"/>
        <pt x="547" y="495" on="1"/>
        <pt x="547" y="71" on="1"/>
        <pt x="547" y="61" on="0"/>
        <pt x="556" y="49" on="0"/>
        <pt x="566" y="48" on="1"/>
        <pt x="624" y="37" on="1"/>
        <pt x="624" y="0" on="1"/>
        <pt x="397" y="0" on="1"/>
        <pt x="397" y="37" on="1"/>
        <pt x="446" y="48" on="1"/>
        <pt x="456" y="49" on="0"/>
        <pt x="466" y="61" on="0"/>
        <pt x="466" y="71" on="1"/>
        <pt x="466" y="268" on="1"/>
        <pt x="198" y="268" on="1"/>
        <pt x="198" y="70" on="1"/>
        <pt x="198" y="61" on="0"/>
        <pt x="207" y="49" on="0"/>
        <pt x="217" y="48" on="1"/>
        <pt x="270" y="37" on="1"/>
        <pt x="270" y="0" on="1"/>
        <pt x="40" y="0" on="1"/>
        <pt x="40" y="37" on="1"/>
        <pt x="98" y="48" on="1"/>
        <pt x="108" y="49" on="0"/>
        <pt x="117" y="61" on="0"/>
        <pt x="117" y="71" on="1"/>
        <pt x="117" y="495" on="1"/>
        <pt x="117" y="505" on="0"/>
        <pt x="107" y="518" on="0"/>
        <pt x="98" y="519" on="1"/>
        <pt x="40" y="530" on="1"/>
        <pt x="40" y="568" on="1"/>
        <pt x="270" y="568" on="1"/>
        <pt x="270" y="530" on="1"/>
        <pt x="216" y="519" on="1"/>
        <pt x="207" y="518" on="0"/>
        <pt x="198" y="506" on="0"/>
        <pt x="198" y="496" on="1"/>
        <pt x="198" y="314" on="1"/>
        <pt x="466" y="314" on="1"/>
        <pt x="466" y="496" on="1"/>
        <pt x="466" y="506" on="0"/>
        <pt x="457" y="517" on="0"/>
        <pt x="447" y="519" on="1"/>
        <pt x="396" y="530" on="1"/>
        <pt x="396" y="568" on="1"/>
      </contour>
    </TTGlyph>
    <TTGlyph name="Hbar" xMin="41" yMin="0" xMax="624" yMax="568">
      <contour>
        <pt x="198" y="296" on="1"/>
        <pt x="466" y="296" on="1"/>
        <pt x="466" y="380" on="1"/>
        <pt x="198" y="380" on="1"/>
      </contour>
      <contour>
        <pt x="271" y="37" on="1"/>
        <pt x="271" y="0" on="1"/>
        <pt x="41" y="0" on="1"/>
        <pt x="41" y="37" on="1"/>
        <pt x="98" y="48" on="1"/>
        <pt x="108" y="49" on="0"/>
        <pt x="117" y="61" on="0"/>
        <pt x="117" y="71" on="1"/>
        <pt x="117" y="380" on="1"/>
        <pt x="44" y="380" on="1"/>
        <pt x="44" y="420" on="1"/>
        <pt x="117" y="420" on="1"/>
        <pt x="117" y="495" on="1"/>
        <pt x="117" y="505" on="0"/>
        <pt x="108" y="518" on="0"/>
        <pt x="98" y="519" on="1"/>
        <pt x="41" y="530" on="1"/>
        <pt x="41" y="568" on="1"/>
        <pt x="270" y="568" on="1"/>
        <pt x="270" y="530" on="1"/>
        <pt x="217" y="519" on="1"/>
        <pt x="207" y="518" on="0"/>
        <pt x="198" y="506" on="0"/>
        <pt x="198" y="496" on="1"/>
        <pt x="198" y="420" on="1"/>
        <pt x="466" y="420" on="1"/>
        <pt x="466" y="496" on="1"/>
        <pt x="466" y="506" on="0"/>
        <pt x="457" y="517" on="0"/>
        <pt x="447" y="519" on="1"/>
        <pt x="397" y="530" on="1"/>
        <pt x="397" y="568" on="1"/>
        <pt x="624" y="568" on="1"/>
        <pt x="624" y="530" on="1"/>
        <pt x="566" y="519" on="1"/>
        <pt x="556" y="518" on="0"/>
        <pt x="547" y="505" on="0"/>
        <pt x="547" y="495" on="1"/>
        <pt x="547" y="420" on="1"/>
        <pt x="620" y="420" on="1"/>
        <pt x="620" y="380" on="1"/>
        <pt x="547" y="380" on="1"/>
        <pt x="547" y="71" on="1"/>
        <pt x="547" y="61" on="0"/>
        <pt x="556" y="49" on="0"/>
        <pt x="566" y="48" on="1"/>
        <pt x="624" y="37" on="1"/>
        <pt x="624" y="0" on="1"/>
        <pt x="397" y="0" on="1"/>
        <pt x="397" y="37" on="1"/>
        <pt x="447" y="48" on="1"/>
        <pt x="457" y="49" on="0"/>
        <pt x="466" y="61" on="0"/>
        <pt x="466" y="71" on="1"/>
        <pt x="466" y="250" on="1"/>
        <pt x="198" y="250" on="1"/>
        <pt x="198" y="70" on="1"/>
        <pt x="198" y="61" on="0"/>
        <pt x="207" y="49" on="0"/>
        <pt x="217" y="48" on="1"/>
      </contour>
    </TTGlyph>
    <TTGlyph name="Hcircumflex" xMin="40" yMin="0" xMax="624" yMax="748">
      <component glyphName="H" x="0" y="0" flags="0x204"/>
      <component glyphName="uni0302.case" x="333" y="0" flags="0x4"/>
    </TTGlyph>
    <TTGlyph name="I" xMin="40" yMin="0" xMax="274" yMax="568">
      <contour>
        <pt x="274" y="568" on="1"/>
        <pt x="274" y="530" on="1"/>
        <pt x="217" y="519" on="1"/>
        <pt x="207" y="518" on="0"/>
        <pt x="198" y="506" on="0"/>
        <pt x="198" y="496" on="1"/>
        <pt x="198" y="71" on="1"/>
        <pt x="198" y="61" on="0"/>
        <pt x="207" y="49" on="0"/>
        <pt x="217" y="48" on="1"/>
        <pt x="274" y="37" on="1"/>
        <pt x="274" y="0" on="1"/>
        <pt x="40" y="0" on="1"/>
        <pt x="40" y="37" on="1"/>
        <pt x="98" y="48" on="1"/>
        <pt x="108" y="49" on="0"/>
        <pt x="117" y="61" on="0"/>
        <pt x="117" y="70" on="1"/>
        <pt x="117" y="496" on="1"/>
        <pt x="117" y="505" on="0"/>
        <pt x="107" y="518" on="0"/>
        <pt x="98" y="519" on="1"/>
        <pt x="40" y="530" on="1"/>
        <pt x="40" y="568" on="1"/>
      </contour>
    </TTGlyph>
    <TTGlyph name="IJ" xMin="40" yMin="-138" xMax="561" yMax="568">
      <component glyphName="I" x="0" y="0" flags="0x204"/>
      <component glyphName="J" x="302" y="0" flags="0x4"/>
    </TTGlyph>
    <TTGlyph name="Iacute" xMin="40" yMin="0" xMax="295" yMax="754">
      <component glyphName="I" x="0" y="0" flags="0x204"/>
      <component glyphName="acutecomb.case" x="157" y="0" flags="0x4"/>
    </TTGlyph>
    <TTGlyph name="Iacute_J.NLD" xMin="40" yMin="-138" xMax="598" yMax="754">
      <component glyphName="I" x="0" y="0" flags="0x204"/>
      <component glyphName="acutecomb.case" x="157" y="0" flags="0x4"/>
      <component glyphName="J" x="315" y="0" flags="0x4"/>
      <component glyphName="acutecomb.case" x="460" y="0" flags="0x4"/>
    </TTGlyph>
    <TTGlyph name="Ibreve" xMin="19" yMin="0" xMax="295" yMax="737">
      <component glyphName="I" x="0" y="0" flags="0x204"/>
      <component glyphName="uni0306.case" x="157" y="0" flags="0x4"/>
    </TTGlyph>
    <TTGlyph name="Icircumflex" xMin="15" yMin="0" xMax="298" yMax="748">
      <component glyphName="I" x="0" y="0" flags="0x204"/>
      <component glyphName="uni0302.case" x="157" y="0" flags="0x4"/>
    </TTGlyph>
    <TTGlyph name="Idieresis" xMin="21" yMin="0" xMax="293" yMax="716">
      <component glyphName="I" x="0" y="0" flags="0x204"/>
      <component glyphName="uni0308.case" x="157" y="0" flags="0x4"/>
    </TTGlyph>
    <TTGlyph name="Idotaccent" xMin="40" yMin="0" xMax="274" yMax="727">
      <component glyphName="I" x="0" y="0" flags="0x204"/>
      <component glyphName="uni0307.case" x="157" y="0" flags="0x4"/>
    </TTGlyph>
    <TTGlyph name="Igrave" xMin="26" yMin="0" xMax="274" yMax="758">
      <component glyphName="I" x="0" y="0" flags="0x204"/>
      <component glyphName="gravecomb.case" x="157" y="0" flags="0x4"/>
    </TTGlyph>
    <TTGlyph name="Imacron" xMin="34" yMin="0" xMax="280" yMax="692">
      <component glyphName="I" x="0" y="0" flags="0x204"/>
      <component glyphName="uni0304.case" x="157" y="0" flags="0x4"/>
    </TTGlyph>
    <TTGlyph name="Iogonek" xMin="40" yMin="-188" xMax="274" yMax="568">
      <contour>
        <pt x="245" y="-160" on="1"/>
        <pt x="227" y="-173" on="0"/>
        <pt x="176" y="-188" on="0"/>
        <pt x="151" y="-188" on="1"/>
        <pt x="114" y="-187" on="0"/>
        <pt x="61" y="-153" on="0"/>
        <pt x="61" y="-117" on="1"/>
        <pt x="61" y="-79" on="0"/>
        <pt x="121" y="-18" on="0"/>
        <pt x="158" y="-2" on="1"/>
        <pt x="158" y="0" on="1"/>
        <pt x="40" y="0" on="1"/>
        <pt x="40" y="37" on="1"/>
        <pt x="98" y="48" on="1"/>
        <pt x="108" y="49" on="0"/>
        <pt x="117" y="61" on="0"/>
        <pt x="117" y="70" on="1"/>
        <pt x="117" y="496" on="1"/>
        <pt x="117" y="505" on="0"/>
        <pt x="107" y="518" on="0"/>
        <pt x="98" y="519" on="1"/>
        <pt x="40" y="530" on="1"/>
        <pt x="40" y="568" on="1"/>
        <pt x="274" y="568" on="1"/>
        <pt x="274" y="530" on="1"/>
        <pt x="217" y="519" on="1"/>
        <pt x="207" y="518" on="0"/>
        <pt x="198" y="506" on="0"/>
        <pt x="198" y="496" on="1"/>
        <pt x="198" y="71" on="1"/>
        <pt x="198" y="61" on="0"/>
        <pt x="207" y="49" on="0"/>
        <pt x="217" y="48" on="1"/>
        <pt x="274" y="37" on="1"/>
        <pt x="274" y="0" on="1"/>
        <pt x="220" y="0" on="1"/>
        <pt x="181" y="-16" on="0"/>
        <pt x="130" y="-68" on="0"/>
        <pt x="130" y="-96" on="1"/>
        <pt x="130" y="-118" on="0"/>
        <pt x="159" y="-139" on="0"/>
        <pt x="181" y="-139" on="1"/>
        <pt x="192" y="-139" on="0"/>
        <pt x="219" y="-133" on="0"/>
        <pt x="232" y="-127" on="1"/>
      </contour>
    </TTGlyph>
    <TTGlyph name="Itilde" xMin="1" yMin="0" xMax="313" yMax="726">
      <component glyphName="I" x="0" y="0" flags="0x204"/>
      <component glyphName="tildecomb.case" x="157" y="0" flags="0x4"/>
    </TTGlyph>
    <TTGlyph name="J" xMin="-3" yMin="-138" xMax="259" yMax="568">
      <contour>
        <pt x="209" y="519" on="1"/>
        <pt x="199" y="517" on="0"/>
        <pt x="189" y="506" on="0"/>
        <pt x="189" y="496" on="1"/>
        <pt x="189" y="154" on="1"/>
        <pt x="189" y="91" on="0"/>
        <pt x="178" y="2" on="0"/>
        <pt x="141" y="-63" on="0"/>
        <pt x="73" y="-113" on="0"/>
        <pt x="16" y="-138" on="1"/>
        <pt x="-3" y="-101" on="1"/>
        <pt x="66" y="-52" on="0"/>
        <pt x="108" y="41" on="0"/>
        <pt x="108" y="140" on="1"/>
        <pt x="108" y="496" on="1"/>
        <pt x="108" y="505" on="0"/>
        <pt x="99" y="518" on="0"/>
        <pt x="90" y="519" on="1"/>
        <pt x="32" y="530" on="1"/>
        <pt x="32" y="568" on="1"/>
        <pt x="259" y="568" on="1"/>
        <pt x="259" y="530" on="1"/>
      </contour>
    </TTGlyph>
    <TTGlyph name="Jacute" xMin="-3" yMin="-138" xMax="284" yMax="754">
      <component glyphName="J" x="0" y="0" flags="0x204"/>
      <component glyphName="acutecomb.case" x="146" y="0" flags="0x4"/>
    </TTGlyph>
    <TTGlyph name="Jcircumflex" xMin="-3" yMin="-138" xMax="287" yMax="748">
      <component glyphName="J" x="0" y="0" flags="0x204"/>
      <component glyphName="uni0302.case" x="146" y="0" flags="0x4"/>
    </TTGlyph>
    <TTGlyph name="K" xMin="40" yMin="0" xMax="572" yMax="568">
      <contour>
        <pt x="279" y="37" on="1"/>
        <pt x="279" y="0" on="1"/>
        <pt x="40" y="0" on="1"/>
        <pt x="40" y="37" on="1"/>
        <pt x="97" y="48" on="1"/>
        <pt x="107" y="49" on="0"/>
        <pt x="117" y="60" on="0"/>
        <pt x="117" y="70" on="1"/>
        <pt x="117" y="496" on="1"/>
        <pt x="117" y="506" on="0"/>
        <pt x="107" y="518" on="0"/>
        <pt x="97" y="519" on="1"/>
        <pt x="40" y="530" on="1"/>
        <pt x="40" y="568" on="1"/>
        <pt x="274" y="568" on="1"/>
        <pt x="274" y="530" on="1"/>
        <pt x="217" y="519" on="1"/>
        <pt x="207" y="518" on="0"/>
        <pt x="197" y="506" on="0"/>
        <pt x="197" y="496" on="1"/>
        <pt x="197" y="257" on="1"/>
        <pt x="424" y="517" on="1"/>
        <pt x="359" y="530" on="1"/>
        <pt x="359" y="568" on="1"/>
        <pt x="556" y="568" on="1"/>
        <pt x="556" y="530" on="1"/>
        <pt x="504" y="519" on="1"/>
        <pt x="497" y="518" on="0"/>
        <pt x="485" y="512" on="0"/>
        <pt x="479" y="506" on="1"/>
        <pt x="328" y="339" on="1"/>
        <pt x="347" y="318" on="0"/>
        <pt x="381" y="265" on="0"/>
        <pt x="405" y="226" on="1"/>
        <pt x="497" y="76" on="1"/>
        <pt x="505" y="62" on="0"/>
        <pt x="519" y="50" on="0"/>
        <pt x="532" y="47" on="1"/>
        <pt x="572" y="37" on="1"/>
        <pt x="572" y="0" on="1"/>
        <pt x="457" y="0" on="1"/>
        <pt x="444" y="0" on="0"/>
        <pt x="413" y="43" on="0"/>
        <pt x="391" y="80" on="1"/>
        <pt x="329" y="193" on="1"/>
        <pt x="314" y="221" on="0"/>
        <pt x="288" y="263" on="0"/>
        <pt x="276" y="281" on="1"/>
        <pt x="197" y="194" on="1"/>
        <pt x="197" y="70" on="1"/>
        <pt x="197" y="60" on="0"/>
        <pt x="208" y="50" on="0"/>
        <pt x="218" y="48" on="1"/>
      </contour>
    </TTGlyph>
    <TTGlyph name="Kcommaaccent" xMin="40" yMin="-212" xMax="572" yMax="568">
      <component glyphName="K" x="0" y="0" flags="0x204"/>
      <component glyphName="uni0326" x="321" y="0" flags="0x4"/>
    </TTGlyph>
    <TTGlyph name="L" xMin="40" yMin="0" xMax="475" yMax="568">
      <contour>
        <pt x="402" y="75" on="1"/>
        <pt x="434" y="173" on="1"/>
        <pt x="475" y="168" on="1"/>
        <pt x="474" y="129" on="0"/>
        <pt x="468" y="40" on="0"/>
        <pt x="459" y="0" on="1"/>
        <pt x="40" y="0" on="1"/>
        <pt x="40" y="37" on="1"/>
        <pt x="98" y="47" on="1"/>
        <pt x="108" y="48" on="0"/>
        <pt x="117" y="60" on="0"/>
        <pt x="117" y="70" on="1"/>
        <pt x="117" y="496" on="1"/>
        <pt x="117" y="506" on="0"/>
        <pt x="108" y="518" on="0"/>
        <pt x="98" y="519" on="1"/>
        <pt x="40" y="530" on="1"/>
        <pt x="40" y="568" on="1"/>
        <pt x="293" y="568" on="1"/>
        <pt x="293" y="530" on="1"/>
        <pt x="217" y="518" on="1"/>
        <pt x="207" y="517" on="0"/>
        <pt x="198" y="506" on="0"/>
        <pt x="198" y="496" on="1"/>
        <pt x="198" y="44" on="1"/>
        <pt x="301" y="44" on="1"/>
        <pt x="327" y="44" on="0"/>
        <pt x="368" y="49" on="0"/>
        <pt x="381" y="53" on="1"/>
        <pt x="389" y="56" on="0"/>
        <pt x="399" y="67" on="0"/>
      </contour>
    </TTGlyph>
    <TTGlyph name="Lacute" xMin="40" yMin="0" xMax="475" yMax="754">
      <component glyphName="L" x="0" y="0" flags="0x204"/>
      <component glyphName="acutecomb.case" x="188" y="0" flags="0x4"/>
    </TTGlyph>
    <TTGlyph name="Lcaron" xMin="40" yMin="0" xMax="475" yMax="604">
      <component glyphName="L" x="0" y="0" flags="0x204"/>
      <component glyphName="uni030C.calt" x="279" y="-80" flags="0x4"/>
    </TTGlyph>
    <TTGlyph name="Lcommaaccent" xMin="40" yMin="-212" xMax="475" yMax="568">
      <component glyphName="L" x="0" y="0" flags="0x204"/>
      <component glyphName="uni0326" x="273" y="0" flags="0x4"/>
    </TTGlyph>
    <TTGlyph name="Ldot" xMin="40" yMin="0" xMax="475" yMax="568">
      <component glyphName="L" x="0" y="0" flags="0x204"/>
      <component glyphName="periodcentered" x="283" y="70" flags="0x4"/>
    </TTGlyph>
    <TTGlyph name="Lslash" xMin="39" yMin="0" xMax="476" yMax="568">
      <contour>
        <pt x="460" y="0" on="1"/>
        <pt x="41" y="0" on="1"/>
        <pt x="41" y="37" on="1"/>
        <pt x="99" y="47" on="1"/>
        <pt x="109" y="48" on="0"/>
        <pt x="118" y="60" on="0"/>
        <pt x="118" y="70" on="1"/>
        <pt x="118" y="229" on="1"/>
        <pt x="39" y="196" on="1"/>
        <pt x="39" y="246" on="1"/>
        <pt x="118" y="278" on="1"/>
        <pt x="118" y="496" on="1"/>
        <pt x="118" y="506" on="0"/>
        <pt x="109" y="518" on="0"/>
        <pt x="99" y="519" on="1"/>
        <pt x="41" y="530" on="1"/>
        <pt x="41" y="568" on="1"/>
        <pt x="293" y="568" on="1"/>
        <pt x="293" y="530" on="1"/>
        <pt x="218" y="518" on="1"/>
        <pt x="208" y="517" on="0"/>
        <pt x="199" y="506" on="0"/>
        <pt x="199" y="496" on="1"/>
        <pt x="199" y="307" on="1"/>
        <pt x="359" y="378" on="1"/>
        <pt x="359" y="325" on="1"/>
        <pt x="199" y="259" on="1"/>
        <pt x="199" y="44" on="1"/>
        <pt x="302" y="44" on="1"/>
        <pt x="328" y="44" on="0"/>
        <pt x="370" y="49" on="0"/>
        <pt x="382" y="53" on="1"/>
        <pt x="390" y="56" on="0"/>
        <pt x="401" y="67" on="0"/>
        <pt x="403" y="75" on="1"/>
        <pt x="435" y="173" on="1"/>
        <pt x="476" y="168" on="1"/>
        <pt x="475" y="129" on="0"/>
        <pt x="468" y="40" on="0"/>
      </contour>
    </TTGlyph>
    <TTGlyph name="M" xMin="23" yMin="0" xMax="777" yMax="568">
      <contour>
        <pt x="225" y="37" on="1"/>
        <pt x="225" y="0" on="1"/>
        <pt x="23" y="0" on="1"/>
        <pt x="23" y="37" on="1"/>
        <pt x="78" y="48" on="1"/>
        <pt x="86" y="49" on="0"/>
        <pt x="96" y="60" on="0"/>
        <pt x="97" y="70" on="1"/>
        <pt x="149" y="495" on="1"/>
        <pt x="150" y="505" on="0"/>
        <pt x="141" y="518" on="0"/>
        <pt x="131" y="519" on="1"/>
        <pt x="66" y="530" on="1"/>
        <pt x="66" y="568" on="1"/>
        <pt x="263" y="568" on="1"/>
        <pt x="400" y="142" on="1"/>
        <pt x="521" y="568" on="1"/>
        <pt x="719" y="568" on="1"/>
        <pt x="719" y="530" on="1"/>
        <pt x="653" y="519" on="1"/>
        <pt x="643" y="518" on="0"/>
        <pt x="634" y="504" on="0"/>
        <pt x="635" y="494" on="1"/>
        <pt x="703" y="69" on="1"/>
        <pt x="704" y="60" on="0"/>
        <pt x="715" y="49" on="0"/>
        <pt x="723" y="48" on="1"/>
        <pt x="777" y="37" on="1"/>
        <pt x="777" y="0" on="1"/>
        <pt x="556" y="0" on="1"/>
        <pt x="556" y="37" on="1"/>
        <pt x="624" y="49" on="1"/>
        <pt x="553" y="497" on="1"/>
        <pt x="418" y="24" on="1"/>
        <pt x="361" y="24" on="1"/>
        <pt x="202" y="496" on="1"/>
        <pt x="151" y="49" on="1"/>
      </contour>
    </TTGlyph>
    <TTGlyph name="N" xMin="40" yMin="0" xMax="612" yMax="568">
      <contour>
        <pt x="255" y="37" on="1"/>
        <pt x="255" y="0" on="1"/>
        <pt x="40" y="0" on="1"/>
        <pt x="40" y="37" on="1"/>
        <pt x="98" y="48" on="1"/>
        <pt x="108" y="49" on="0"/>
        <pt x="117" y="61" on="0"/>
        <pt x="117" y="70" on="1"/>
        <pt x="117" y="496" on="1"/>
        <pt x="117" y="505" on="0"/>
        <pt x="107" y="518" on="0"/>
        <pt x="98" y="519" on="1"/>
        <pt x="40" y="530" on="1"/>
        <pt x="40" y="568" on="1"/>
        <pt x="198" y="568" on="1"/>
        <pt x="488" y="125" on="1"/>
        <pt x="488" y="496" on="1"/>
        <pt x="488" y="505" on="0"/>
        <pt x="479" y="518" on="0"/>
        <pt x="469" y="519" on="1"/>
        <pt x="408" y="530" on="1"/>
        <pt x="408" y="568" on="1"/>
        <pt x="612" y="568" on="1"/>
        <pt x="612" y="530" on="1"/>
        <pt x="560" y="519" on="1"/>
        <pt x="551" y="517" on="0"/>
        <pt x="541" y="506" on="0"/>
        <pt x="541" y="496" on="1"/>
        <pt x="541" y="0" on="1"/>
        <pt x="473" y="0" on="1"/>
        <pt x="169" y="465" on="1"/>
        <pt x="169" y="70" on="1"/>
        <pt x="169" y="61" on="0"/>
        <pt x="179" y="49" on="0"/>
        <pt x="189" y="48" on="1"/>
      </contour>
    </TTGlyph>
    <TTGlyph name="Nacute" xMin="40" yMin="0" xMax="612" yMax="754">
      <component glyphName="N" x="0" y="0" flags="0x204"/>
      <component glyphName="acutecomb.case" x="320" y="0" flags="0x4"/>
    </TTGlyph>
    <TTGlyph name="Ncaron" xMin="40" yMin="0" xMax="612" yMax="752">
      <component glyphName="N" x="0" y="0" flags="0x204"/>
      <component glyphName="uni030C.case" x="320" y="0" flags="0x4"/>
    </TTGlyph>
    <TTGlyph name="Ncommaaccent" xMin="40" yMin="-212" xMax="612" yMax="568">
      <component glyphName="N" x="0" y="0" flags="0x204"/>
      <component glyphName="uni0326" x="340" y="0" flags="0x4"/>
    </TTGlyph>
    <TTGlyph name="Ntilde" xMin="40" yMin="0" xMax="612" yMax="726">
      <component glyphName="N" x="0" y="0" flags="0x204"/>
      <component glyphName="tildecomb.case" x="320" y="0" flags="0x4"/>
    </TTGlyph>
    <TTGlyph name="O" xMin="45" yMin="-9" xMax="537" yMax="577">
      <contour>
        <pt x="282" y="-9" on="1"/>
        <pt x="165" y="-9" on="0"/>
        <pt x="45" y="144" on="0"/>
        <pt x="45" y="275" on="1"/>
        <pt x="45" y="420" on="0"/>
        <pt x="185" y="577" on="0"/>
        <pt x="301" y="577" on="1"/>
        <pt x="418" y="577" on="0"/>
        <pt x="537" y="424" on="0"/>
        <pt x="537" y="293" on="1"/>
        <pt x="537" y="150" on="0"/>
        <pt x="398" y="-9" on="0"/>
      </contour>
      <contour>
        <pt x="292" y="534" on="1"/>
        <pt x="218" y="534" on="0"/>
        <pt x="135" y="410" on="0"/>
        <pt x="135" y="283" on="1"/>
        <pt x="135" y="161" on="0"/>
        <pt x="212" y="34" on="0"/>
        <pt x="290" y="34" on="1"/>
        <pt x="364" y="34" on="0"/>
        <pt x="447" y="159" on="0"/>
        <pt x="447" y="286" on="1"/>
        <pt x="447" y="408" on="0"/>
        <pt x="370" y="534" on="0"/>
      </contour>
    </TTGlyph>
    <TTGlyph name="OE" xMin="45" yMin="-8" xMax="741" yMax="574">
      <contour>
        <pt x="299" y="32" on="1"/>
        <pt x="321" y="32" on="0"/>
        <pt x="363" y="42" on="0"/>
        <pt x="382" y="54" on="1"/>
        <pt x="382" y="514" on="1"/>
        <pt x="363" y="525" on="0"/>
        <pt x="321" y="535" on="0"/>
        <pt x="301" y="535" on="1"/>
        <pt x="220" y="535" on="0"/>
        <pt x="134" y="411" on="0"/>
        <pt x="134" y="283" on="1"/>
        <pt x="134" y="159" on="0"/>
        <pt x="217" y="32" on="0"/>
      </contour>
      <contour>
        <pt x="382" y="0" on="1"/>
        <pt x="382" y="1" on="1"/>
        <pt x="360" y="-3" on="0"/>
        <pt x="313" y="-8" on="0"/>
        <pt x="291" y="-8" on="1"/>
        <pt x="171" y="-8" on="0"/>
        <pt x="45" y="135" on="0"/>
        <pt x="45" y="272" on="1"/>
        <pt x="45" y="421" on="0"/>
        <pt x="187" y="574" on="0"/>
        <pt x="306" y="574" on="1"/>
        <pt x="324" y="574" on="0"/>
        <pt x="363" y="571" on="0"/>
        <pt x="382" y="567" on="1"/>
        <pt x="382" y="568" on="1"/>
        <pt x="707" y="568" on="1"/>
        <pt x="710" y="534" on="0"/>
        <pt x="709" y="465" on="0"/>
        <pt x="706" y="428" on="1"/>
        <pt x="666" y="428" on="1"/>
        <pt x="649" y="497" on="1"/>
        <pt x="648" y="506" on="0"/>
        <pt x="636" y="516" on="0"/>
        <pt x="628" y="519" on="1"/>
        <pt x="616" y="523" on="0"/>
        <pt x="576" y="527" on="0"/>
        <pt x="552" y="527" on="1"/>
        <pt x="462" y="527" on="1"/>
        <pt x="462" y="314" on="1"/>
        <pt x="639" y="320" on="1"/>
        <pt x="639" y="264" on="1"/>
        <pt x="462" y="268" on="1"/>
        <pt x="462" y="44" on="1"/>
        <pt x="573" y="44" on="1"/>
        <pt x="597" y="44" on="0"/>
        <pt x="641" y="48" on="0"/>
        <pt x="653" y="53" on="1"/>
        <pt x="661" y="56" on="0"/>
        <pt x="671" y="67" on="0"/>
        <pt x="673" y="75" on="1"/>
        <pt x="701" y="153" on="1"/>
        <pt x="741" y="148" on="1"/>
        <pt x="740" y="112" on="0"/>
        <pt x="732" y="37" on="0"/>
        <pt x="725" y="0" on="1"/>
      </contour>
    </TTGlyph>
    <TTGlyph name="Oacute" xMin="45" yMin="-9" xMax="537" yMax="754">
      <component glyphName="O" x="0" y="0" flags="0x204"/>
      <component glyphName="acutecomb.case" x="292" y="0" flags="0x4"/>
    </TTGlyph>
    <TTGlyph name="Obreve" xMin="45" yMin="-9" xMax="537" yMax="737">
      <component glyphName="O" x="0" y="0" flags="0x204"/>
      <component glyphName="uni0306.case" x="292" y="0" flags="0x4"/>
    </TTGlyph>
    <TTGlyph name="Ocircumflex" xMin="45" yMin="-9" xMax="537" yMax="748">
      <component glyphName="O" x="0" y="0" flags="0x204"/>
      <component glyphName="uni0302.case" x="292" y="0" flags="0x4"/>
    </TTGlyph>
    <TTGlyph name="Odieresis" xMin="45" yMin="-9" xMax="537" yMax="716">
      <component glyphName="O" x="0" y="0" flags="0x204"/>
      <component glyphName="uni0308.case" x="292" y="0" flags="0x4"/>
    </TTGlyph>
    <TTGlyph name="Ograve" xMin="45" yMin="-9" xMax="537" yMax="758">
      <component glyphName="O" x="0" y="0" flags="0x204"/>
      <component glyphName="gravecomb.case" x="292" y="0" flags="0x4"/>
    </TTGlyph>
    <TTGlyph name="Ohungarumlaut" xMin="45" yMin="-9" xMax="537" yMax="761">
      <component glyphName="O" x="0" y="0" flags="0x204"/>
      <component glyphName="uni030B.case" x="292" y="0" flags="0x4"/>
    </TTGlyph>
    <TTGlyph name="Omacron" xMin="45" yMin="-9" xMax="537" yMax="692">
      <component glyphName="O" x="0" y="0" flags="0x204"/>
      <component glyphName="uni0304.case" x="292" y="0" flags="0x4"/>
    </TTGlyph>
    <TTGlyph name="Oslash" xMin="45" yMin="-68" xMax="537" yMax="622">
      <contour>
        <pt x="131" y="283" on="1"/>
        <pt x="131" y="219" on="0"/>
        <pt x="152" y="121" on="0"/>
        <pt x="173" y="90" on="1"/>
        <pt x="379" y="509" on="1"/>
        <pt x="362" y="522" on="0"/>
        <pt x="318" y="536" on="0"/>
        <pt x="291" y="536" on="1"/>
        <pt x="215" y="536" on="0"/>
        <pt x="131" y="412" on="0"/>
      </contour>
      <contour>
        <pt x="290" y="32" on="1"/>
        <pt x="365" y="32" on="0"/>
        <pt x="450" y="157" on="0"/>
        <pt x="450" y="286" on="1"/>
        <pt x="450" y="349" on="0"/>
        <pt x="429" y="446" on="0"/>
        <pt x="409" y="477" on="1"/>
        <pt x="202" y="59" on="1"/>
        <pt x="220" y="46" on="0"/>
        <pt x="264" y="32" on="0"/>
      </contour>
      <contour>
        <pt x="281" y="-9" on="1"/>
        <pt x="253" y="-9" on="0"/>
        <pt x="202" y="0" on="0"/>
        <pt x="180" y="10" on="1"/>
        <pt x="141" y="-68" on="1"/>
        <pt x="99" y="-46" on="1"/>
        <pt x="140" y="33" on="1"/>
        <pt x="93" y="67" on="0"/>
        <pt x="45" y="192" on="0"/>
        <pt x="45" y="275" on="1"/>
        <pt x="45" y="420" on="0"/>
        <pt x="185" y="577" on="0"/>
        <pt x="300" y="577" on="1"/>
        <pt x="329" y="577" on="0"/>
        <pt x="380" y="567" on="0"/>
        <pt x="402" y="558" on="1"/>
        <pt x="435" y="622" on="1"/>
        <pt x="476" y="600" on="1"/>
        <pt x="443" y="535" on="1"/>
        <pt x="490" y="500" on="0"/>
        <pt x="537" y="376" on="0"/>
        <pt x="537" y="293" on="1"/>
        <pt x="537" y="150" on="0"/>
        <pt x="397" y="-9" on="0"/>
      </contour>
    </TTGlyph>
    <TTGlyph name="Otilde" xMin="45" yMin="-9" xMax="537" yMax="726">
      <component glyphName="O" x="0" y="0" flags="0x204"/>
      <component glyphName="tildecomb.case" x="292" y="0" flags="0x4"/>
    </TTGlyph>
    <TTGlyph name="P" xMin="40" yMin="0" xMax="485" yMax="573">
      <contour>
        <pt x="269" y="259" on="1"/>
        <pt x="320" y="259" on="0"/>
        <pt x="399" y="324" on="0"/>
        <pt x="399" y="412" on="1"/>
        <pt x="399" y="478" on="0"/>
        <pt x="335" y="533" on="0"/>
        <pt x="269" y="533" on="1"/>
        <pt x="244" y="533" on="0"/>
        <pt x="211" y="529" on="0"/>
        <pt x="198" y="529" on="1"/>
        <pt x="198" y="262" on="1"/>
        <pt x="216" y="261" on="0"/>
        <pt x="247" y="259" on="0"/>
      </contour>
      <contour>
        <pt x="304" y="37" on="1"/>
        <pt x="304" y="0" on="1"/>
        <pt x="40" y="0" on="1"/>
        <pt x="40" y="37" on="1"/>
        <pt x="98" y="48" on="1"/>
        <pt x="107" y="49" on="0"/>
        <pt x="117" y="61" on="0"/>
        <pt x="117" y="69" on="1"/>
        <pt x="117" y="498" on="1"/>
        <pt x="117" y="505" on="0"/>
        <pt x="108" y="517" on="0"/>
        <pt x="101" y="518" on="1"/>
        <pt x="40" y="530" on="1"/>
        <pt x="40" y="568" on="1"/>
        <pt x="158" y="568" on="1"/>
        <pt x="192" y="568" on="0"/>
        <pt x="240" y="573" on="0"/>
        <pt x="287" y="573" on="1"/>
        <pt x="400" y="573" on="0"/>
        <pt x="485" y="488" on="0"/>
        <pt x="485" y="413" on="1"/>
        <pt x="485" y="320" on="0"/>
        <pt x="363" y="218" on="0"/>
        <pt x="269" y="218" on="1"/>
        <pt x="251" y="218" on="0"/>
        <pt x="216" y="219" on="0"/>
        <pt x="198" y="220" on="1"/>
        <pt x="198" y="69" on="1"/>
        <pt x="198" y="62" on="0"/>
        <pt x="208" y="50" on="0"/>
        <pt x="216" y="49" on="1"/>
      </contour>
    </TTGlyph>
    <TTGlyph name="Q" xMin="45" yMin="-151" xMax="593" yMax="577">
      <contour>
        <pt x="503" y="-151" on="1"/>
        <pt x="464" y="-151" on="0"/>
        <pt x="407" y="-116" on="0"/>
        <pt x="359" y="-70" on="0"/>
        <pt x="310" y="-22" on="0"/>
        <pt x="280" y="-9" on="1"/>
        <pt x="164" y="-8" on="0"/>
        <pt x="45" y="145" on="0"/>
        <pt x="45" y="275" on="1"/>
        <pt x="45" y="419" on="0"/>
        <pt x="185" y="577" on="0"/>
        <pt x="301" y="577" on="1"/>
        <pt x="418" y="577" on="0"/>
        <pt x="537" y="424" on="0"/>
        <pt x="537" y="293" on="1"/>
        <pt x="537" y="177" on="0"/>
        <pt x="443" y="27" on="0"/>
        <pt x="363" y="2" on="1"/>
        <pt x="382" y="-5" on="0"/>
        <pt x="417" y="-27" on="0"/>
        <pt x="433" y="-39" on="1"/>
        <pt x="461" y="-60" on="0"/>
        <pt x="515" y="-89" on="0"/>
        <pt x="551" y="-89" on="1"/>
        <pt x="561" y="-89" on="0"/>
        <pt x="578" y="-89" on="0"/>
        <pt x="585" y="-88" on="1"/>
        <pt x="593" y="-122" on="1"/>
        <pt x="582" y="-131" on="0"/>
        <pt x="532" y="-151" on="0"/>
      </contour>
      <contour>
        <pt x="292" y="534" on="1"/>
        <pt x="217" y="534" on="0"/>
        <pt x="134" y="411" on="0"/>
        <pt x="134" y="283" on="1"/>
        <pt x="134" y="160" on="0"/>
        <pt x="212" y="34" on="0"/>
        <pt x="290" y="34" on="1"/>
        <pt x="365" y="34" on="0"/>
        <pt x="448" y="158" on="0"/>
        <pt x="448" y="286" on="1"/>
        <pt x="448" y="409" on="0"/>
        <pt x="370" y="534" on="0"/>
      </contour>
    </TTGlyph>
    <TTGlyph name="R" xMin="40" yMin="0" xMax="555" yMax="574">
      <contour>
        <pt x="197" y="528" on="1"/>
        <pt x="197" y="291" on="1"/>
        <pt x="221" y="290" on="0"/>
        <pt x="280" y="290" on="0"/>
        <pt x="292" y="290" on="1"/>
        <pt x="338" y="291" on="0"/>
        <pt x="397" y="352" on="0"/>
        <pt x="397" y="418" on="1"/>
        <pt x="397" y="472" on="0"/>
        <pt x="342" y="533" on="0"/>
        <pt x="268" y="533" on="1"/>
        <pt x="246" y="533" on="0"/>
        <pt x="207" y="529" on="0"/>
      </contour>
      <contour>
        <pt x="279" y="37" on="1"/>
        <pt x="279" y="0" on="1"/>
        <pt x="40" y="0" on="1"/>
        <pt x="40" y="37" on="1"/>
        <pt x="97" y="48" on="1"/>
        <pt x="107" y="49" on="0"/>
        <pt x="117" y="60" on="0"/>
        <pt x="117" y="70" on="1"/>
        <pt x="117" y="496" on="1"/>
        <pt x="117" y="506" on="0"/>
        <pt x="107" y="518" on="0"/>
        <pt x="97" y="519" on="1"/>
        <pt x="40" y="530" on="1"/>
        <pt x="40" y="568" on="1"/>
        <pt x="157" y="568" on="1"/>
        <pt x="189" y="568" on="0"/>
        <pt x="244" y="574" on="0"/>
        <pt x="281" y="574" on="1"/>
        <pt x="390" y="574" on="0"/>
        <pt x="483" y="499" on="0"/>
        <pt x="483" y="423" on="1"/>
        <pt x="483" y="339" on="0"/>
        <pt x="398" y="272" on="0"/>
        <pt x="360" y="262" on="1"/>
        <pt x="381" y="249" on="0"/>
        <pt x="412" y="208" on="0"/>
        <pt x="428" y="178" on="1"/>
        <pt x="482" y="72" on="1"/>
        <pt x="489" y="59" on="0"/>
        <pt x="503" y="49" on="0"/>
        <pt x="515" y="46" on="1"/>
        <pt x="555" y="37" on="1"/>
        <pt x="555" y="0" on="1"/>
        <pt x="443" y="0" on="1"/>
        <pt x="426" y="0" on="0"/>
        <pt x="397" y="48" on="0"/>
        <pt x="378" y="88" on="1"/>
        <pt x="342" y="165" on="1"/>
        <pt x="329" y="193" on="0"/>
        <pt x="304" y="237" on="0"/>
        <pt x="291" y="250" on="1"/>
        <pt x="197" y="250" on="1"/>
        <pt x="197" y="70" on="1"/>
        <pt x="197" y="60" on="0"/>
        <pt x="208" y="50" on="0"/>
        <pt x="218" y="48" on="1"/>
      </contour>
    </TTGlyph>
    <TTGlyph name="Racute" xMin="40" yMin="0" xMax="555" yMax="754">
      <component glyphName="R" x="0" y="0" flags="0x204"/>
      <component glyphName="acutecomb.case" x="271" y="0" flags="0x4"/>
    </TTGlyph>
    <TTGlyph name="Rcaron" xMin="40" yMin="0" xMax="555" yMax="752">
      <component glyphName="R" x="0" y="0" flags="0x204"/>
      <component glyphName="uni030C.case" x="271" y="0" flags="0x4"/>
    </TTGlyph>
    <TTGlyph name="Rcommaaccent" xMin="40" yMin="-212" xMax="555" yMax="574">
      <component glyphName="R" x="0" y="0" flags="0x204"/>
      <component glyphName="uni0326" x="313" y="0" flags="0x4"/>
    </TTGlyph>
    <TTGlyph name="S" xMin="48" yMin="-12" xMax="424" yMax="578">
      <contour>
        <pt x="424" y="151" on="1"/>
        <pt x="424" y="91" on="0"/>
        <pt x="330" y="-12" on="0"/>
        <pt x="227" y="-12" on="1"/>
        <pt x="170" y="-12" on="0"/>
        <pt x="77" y="18" on="0"/>
        <pt x="49" y="35" on="1"/>
        <pt x="48" y="70" on="0"/>
        <pt x="52" y="143" on="0"/>
        <pt x="56" y="178" on="1"/>
        <pt x="104" y="178" on="1"/>
        <pt x="118" y="93" on="1"/>
        <pt x="119" y="86" on="0"/>
        <pt x="124" y="74" on="0"/>
        <pt x="131" y="67" on="1"/>
        <pt x="145" y="52" on="0"/>
        <pt x="199" y="28" on="0"/>
        <pt x="233" y="28" on="1"/>
        <pt x="286" y="28" on="0"/>
        <pt x="342" y="81" on="0"/>
        <pt x="342" y="126" on="1"/>
        <pt x="342" y="179" on="0"/>
        <pt x="271" y="231" on="0"/>
        <pt x="214" y="257" on="1"/>
        <pt x="188" y="269" on="0"/>
        <pt x="132" y="298" on="0"/>
        <pt x="88" y="338" on="0"/>
        <pt x="59" y="392" on="0"/>
        <pt x="59" y="429" on="1"/>
        <pt x="59" y="493" on="0"/>
        <pt x="153" y="578" on="0"/>
        <pt x="245" y="578" on="1"/>
        <pt x="285" y="578" on="0"/>
        <pt x="366" y="561" on="0"/>
        <pt x="394" y="548" on="1"/>
        <pt x="397" y="512" on="0"/>
        <pt x="393" y="444" on="0"/>
        <pt x="389" y="413" on="1"/>
        <pt x="342" y="413" on="1"/>
        <pt x="328" y="487" on="1"/>
        <pt x="326" y="494" on="0"/>
        <pt x="319" y="508" on="0"/>
        <pt x="312" y="514" on="1"/>
        <pt x="300" y="524" on="0"/>
        <pt x="257" y="538" on="0"/>
        <pt x="231" y="538" on="1"/>
        <pt x="184" y="538" on="0"/>
        <pt x="135" y="493" on="0"/>
        <pt x="135" y="453" on="1"/>
        <pt x="135" y="404" on="0"/>
        <pt x="205" y="354" on="0"/>
        <pt x="269" y="323" on="1"/>
        <pt x="328" y="295" on="0"/>
        <pt x="424" y="220" on="0"/>
      </contour>
    </TTGlyph>
    <TTGlyph name="Sacute" xMin="48" yMin="-12" xMax="424" yMax="754">
      <component glyphName="S" x="0" y="0" flags="0x204"/>
      <component glyphName="acutecomb.case" x="237" y="0" flags="0x4"/>
    </TTGlyph>
    <TTGlyph name="Scaron" xMin="48" yMin="-12" xMax="424" yMax="752">
      <component glyphName="S" x="0" y="0" flags="0x204"/>
      <component glyphName="uni030C.case" x="237" y="0" flags="0x4"/>
    </TTGlyph>
    <TTGlyph name="Scedilla" xMin="48" yMin="-188" xMax="424" yMax="578">
      <component glyphName="S" x="0" y="0" flags="0x204"/>
      <component glyphName="uni0327" x="221" y="0" flags="0x4"/>
    </TTGlyph>
    <TTGlyph name="Scircumflex" xMin="48" yMin="-12" xMax="424" yMax="748">
      <component glyphName="S" x="0" y="0" flags="0x204"/>
      <component glyphName="uni0302.case" x="237" y="0" flags="0x4"/>
    </TTGlyph>
    <TTGlyph name="Scommaaccent" xMin="48" yMin="-212" xMax="424" yMax="578">
      <component glyphName="S" x="0" y="0" flags="0x204"/>
      <component glyphName="uni0326" x="221" y="0" flags="0x4"/>
    </TTGlyph>
    <TTGlyph name="T" xMin="27" yMin="0" xMax="523" yMax="568">
      <contour>
        <pt x="421" y="0" on="1"/>
        <pt x="130" y="0" on="1"/>
        <pt x="130" y="37" on="1"/>
        <pt x="215" y="50" on="1"/>
        <pt x="225" y="51" on="0"/>
        <pt x="235" y="62" on="0"/>
        <pt x="235" y="72" on="1"/>
        <pt x="235" y="527" on="1"/>
        <pt x="192" y="527" on="1"/>
        <pt x="168" y="527" on="0"/>
        <pt x="128" y="523" on="0"/>
        <pt x="118" y="519" on="1"/>
        <pt x="109" y="516" on="0"/>
        <pt x="99" y="506" on="0"/>
        <pt x="98" y="497" on="1"/>
        <pt x="74" y="395" on="1"/>
        <pt x="30" y="395" on="1"/>
        <pt x="27" y="441" on="0"/>
        <pt x="30" y="525" on="0"/>
        <pt x="34" y="568" on="1"/>
        <pt x="517" y="568" on="1"/>
        <pt x="522" y="525" on="0"/>
        <pt x="523" y="441" on="0"/>
        <pt x="519" y="395" on="1"/>
        <pt x="476" y="395" on="1"/>
        <pt x="452" y="497" on="1"/>
        <pt x="451" y="506" on="0"/>
        <pt x="441" y="516" on="0"/>
        <pt x="434" y="519" on="1"/>
        <pt x="423" y="523" on="0"/>
        <pt x="385" y="527" on="0"/>
        <pt x="360" y="527" on="1"/>
        <pt x="316" y="527" on="1"/>
        <pt x="316" y="72" on="1"/>
        <pt x="316" y="62" on="0"/>
        <pt x="326" y="51" on="0"/>
        <pt x="336" y="50" on="1"/>
        <pt x="421" y="37" on="1"/>
      </contour>
    </TTGlyph>
    <TTGlyph name="Tbar" xMin="27" yMin="0" xMax="523" yMax="568">
      <contour>
        <pt x="421" y="37" on="1"/>
        <pt x="421" y="0" on="1"/>
        <pt x="130" y="0" on="1"/>
        <pt x="130" y="37" on="1"/>
        <pt x="215" y="50" on="1"/>
        <pt x="225" y="51" on="0"/>
        <pt x="235" y="62" on="0"/>
        <pt x="235" y="72" on="1"/>
        <pt x="235" y="244" on="1"/>
        <pt x="139" y="244" on="1"/>
        <pt x="139" y="290" on="1"/>
        <pt x="235" y="290" on="1"/>
        <pt x="235" y="527" on="1"/>
        <pt x="192" y="527" on="1"/>
        <pt x="168" y="527" on="0"/>
        <pt x="128" y="523" on="0"/>
        <pt x="118" y="519" on="1"/>
        <pt x="109" y="516" on="0"/>
        <pt x="99" y="506" on="0"/>
        <pt x="98" y="497" on="1"/>
        <pt x="74" y="395" on="1"/>
        <pt x="30" y="395" on="1"/>
        <pt x="27" y="441" on="0"/>
        <pt x="30" y="525" on="0"/>
        <pt x="34" y="568" on="1"/>
        <pt x="517" y="568" on="1"/>
        <pt x="522" y="525" on="0"/>
        <pt x="523" y="441" on="0"/>
        <pt x="519" y="395" on="1"/>
        <pt x="476" y="395" on="1"/>
        <pt x="452" y="497" on="1"/>
        <pt x="451" y="506" on="0"/>
        <pt x="441" y="516" on="0"/>
        <pt x="434" y="519" on="1"/>
        <pt x="423" y="523" on="0"/>
        <pt x="385" y="527" on="0"/>
        <pt x="360" y="527" on="1"/>
        <pt x="316" y="527" on="1"/>
        <pt x="316" y="290" on="1"/>
        <pt x="412" y="290" on="1"/>
        <pt x="412" y="244" on="1"/>
        <pt x="316" y="244" on="1"/>
        <pt x="316" y="72" on="1"/>
        <pt x="316" y="62" on="0"/>
        <pt x="326" y="51" on="0"/>
        <pt x="336" y="50" on="1"/>
      </contour>
    </TTGlyph>
    <TTGlyph name="Tcaron" xMin="27" yMin="0" xMax="523" yMax="752">
      <component glyphName="T" x="0" y="0" flags="0x204"/>
      <component glyphName="uni030C.case" x="277" y="0" flags="0x4"/>
    </TTGlyph>
    <TTGlyph name="Thorn" xMin="45" yMin="0" xMax="479" yMax="568">
      <contour>
        <pt x="276" y="160" on="1"/>
        <pt x="328" y="160" on="0"/>
        <pt x="392" y="217" on="0"/>
        <pt x="392" y="289" on="1"/>
        <pt x="392" y="345" on="0"/>
        <pt x="338" y="406" on="0"/>
        <pt x="272" y="406" on="1"/>
        <pt x="252" y="406" on="0"/>
        <pt x="212" y="402" on="0"/>
        <pt x="194" y="401" on="1"/>
        <pt x="194" y="165" on="1"/>
        <pt x="216" y="163" on="0"/>
        <pt x="257" y="160" on="0"/>
      </contour>
      <contour>
        <pt x="275" y="37" on="1"/>
        <pt x="275" y="0" on="1"/>
        <pt x="45" y="0" on="1"/>
        <pt x="45" y="37" on="1"/>
        <pt x="96" y="48" on="1"/>
        <pt x="106" y="49" on="0"/>
        <pt x="115" y="61" on="0"/>
        <pt x="115" y="70" on="1"/>
        <pt x="115" y="496" on="1"/>
        <pt x="115" y="505" on="0"/>
        <pt x="105" y="517" on="0"/>
        <pt x="96" y="519" on="1"/>
        <pt x="45" y="530" on="1"/>
        <pt x="45" y="568" on="1"/>
        <pt x="275" y="568" on="1"/>
        <pt x="275" y="530" on="1"/>
        <pt x="214" y="519" on="1"/>
        <pt x="204" y="518" on="0"/>
        <pt x="194" y="506" on="0"/>
        <pt x="194" y="496" on="1"/>
        <pt x="194" y="441" on="1"/>
        <pt x="222" y="444" on="0"/>
        <pt x="275" y="447" on="0"/>
        <pt x="302" y="447" on="1"/>
        <pt x="388" y="447" on="0"/>
        <pt x="479" y="372" on="0"/>
        <pt x="479" y="293" on="1"/>
        <pt x="479" y="204" on="0"/>
        <pt x="377" y="121" on="0"/>
        <pt x="284" y="121" on="1"/>
        <pt x="256" y="121" on="0"/>
        <pt x="213" y="123" on="0"/>
        <pt x="194" y="124" on="1"/>
        <pt x="194" y="71" on="1"/>
        <pt x="194" y="61" on="0"/>
        <pt x="204" y="49" on="0"/>
        <pt x="214" y="48" on="1"/>
      </contour>
    </TTGlyph>
    <TTGlyph name="U" xMin="37" yMin="-8" xMax="579" yMax="568">
      <contour>
        <pt x="379" y="568" on="1"/>
        <pt x="579" y="568" on="1"/>
        <pt x="579" y="530" on="1"/>
        <pt x="536" y="520" on="1"/>
        <pt x="526" y="518" on="0"/>
        <pt x="517" y="506" on="0"/>
        <pt x="517" y="496" on="1"/>
        <pt x="517" y="209" on="1"/>
        <pt x="517" y="96" on="0"/>
        <pt x="405" y="-8" on="0"/>
        <pt x="305" y="-8" on="1"/>
        <pt x="198" y="-8" on="0"/>
        <pt x="97" y="105" on="0"/>
        <pt x="97" y="218" on="1"/>
        <pt x="97" y="496" on="1"/>
        <pt x="97" y="506" on="0"/>
        <pt x="88" y="518" on="0"/>
        <pt x="79" y="520" on="1"/>
        <pt x="37" y="530" on="1"/>
        <pt x="37" y="568" on="1"/>
        <pt x="263" y="568" on="1"/>
        <pt x="263" y="530" on="1"/>
        <pt x="199" y="518" on="1"/>
        <pt x="190" y="517" on="0"/>
        <pt x="180" y="505" on="0"/>
        <pt x="180" y="495" on="1"/>
        <pt x="180" y="210" on="1"/>
        <pt x="180" y="112" on="0"/>
        <pt x="256" y="33" on="0"/>
        <pt x="319" y="33" on="1"/>
        <pt x="394" y="33" on="0"/>
        <pt x="460" y="122" on="0"/>
        <pt x="460" y="205" on="1"/>
        <pt x="460" y="496" on="1"/>
        <pt x="460" y="506" on="0"/>
        <pt x="451" y="518" on="0"/>
        <pt x="442" y="519" on="1"/>
        <pt x="379" y="530" on="1"/>
      </contour>
    </TTGlyph>
    <TTGlyph name="Uacute" xMin="37" yMin="-8" xMax="579" yMax="754">
      <component glyphName="U" x="0" y="0" flags="0x204"/>
      <component glyphName="acutecomb.case" x="316" y="0" flags="0x4"/>
    </TTGlyph>
    <TTGlyph name="Ubreve" xMin="37" yMin="-8" xMax="579" yMax="737">
      <component glyphName="U" x="0" y="0" flags="0x204"/>
      <component glyphName="uni0306.case" x="316" y="0" flags="0x4"/>
    </TTGlyph>
    <TTGlyph name="Ucircumflex" xMin="37" yMin="-8" xMax="579" yMax="748">
      <component glyphName="U" x="0" y="0" flags="0x204"/>
      <component glyphName="uni0302.case" x="316" y="0" flags="0x4"/>
    </TTGlyph>
    <TTGlyph name="Udieresis" xMin="37" yMin="-8" xMax="579" yMax="716">
      <component glyphName="U" x="0" y="0" flags="0x204"/>
      <component glyphName="uni0308.case" x="316" y="0" flags="0x4"/>
    </TTGlyph>
    <TTGlyph name="Ugrave" xMin="37" yMin="-8" xMax="579" yMax="758">
      <component glyphName="U" x="0" y="0" flags="0x204"/>
      <component glyphName="gravecomb.case" x="316" y="0" flags="0x4"/>
    </TTGlyph>
    <TTGlyph name="Uhungarumlaut" xMin="37" yMin="-8" xMax="579" yMax="761">
      <component glyphName="U" x="0" y="0" flags="0x204"/>
      <component glyphName="uni030B.case" x="316" y="0" flags="0x4"/>
    </TTGlyph>
    <TTGlyph name="Umacron" xMin="37" yMin="-8" xMax="579" yMax="692">
      <component glyphName="U" x="0" y="0" flags="0x204"/>
      <component glyphName="uni0304.case" x="316" y="0" flags="0x4"/>
    </TTGlyph>
    <TTGlyph name="Uogonek" xMin="37" yMin="-188" xMax="579" yMax="568">
      <contour>
        <pt x="345" y="-188" on="1"/>
        <pt x="308" y="-187" on="0"/>
        <pt x="254" y="-153" on="0"/>
        <pt x="254" y="-117" on="1"/>
        <pt x="254" y="-78" on="0"/>
        <pt x="314" y="-23" on="0"/>
        <pt x="347" y="-7" on="1"/>
        <pt x="347" y="-6" on="1"/>
        <pt x="337" y="-7" on="0"/>
        <pt x="316" y="-8" on="0"/>
        <pt x="305" y="-8" on="1"/>
        <pt x="198" y="-8" on="0"/>
        <pt x="97" y="105" on="0"/>
        <pt x="97" y="218" on="1"/>
        <pt x="97" y="496" on="1"/>
        <pt x="97" y="506" on="0"/>
        <pt x="88" y="518" on="0"/>
        <pt x="79" y="520" on="1"/>
        <pt x="37" y="530" on="1"/>
        <pt x="37" y="568" on="1"/>
        <pt x="263" y="568" on="1"/>
        <pt x="263" y="530" on="1"/>
        <pt x="199" y="518" on="1"/>
        <pt x="190" y="517" on="0"/>
        <pt x="180" y="505" on="0"/>
        <pt x="180" y="495" on="1"/>
        <pt x="180" y="210" on="1"/>
        <pt x="180" y="112" on="0"/>
        <pt x="256" y="33" on="0"/>
        <pt x="319" y="33" on="1"/>
        <pt x="394" y="33" on="0"/>
        <pt x="460" y="122" on="0"/>
        <pt x="460" y="205" on="1"/>
        <pt x="460" y="496" on="1"/>
        <pt x="460" y="506" on="0"/>
        <pt x="451" y="518" on="0"/>
        <pt x="442" y="519" on="1"/>
        <pt x="379" y="530" on="1"/>
        <pt x="379" y="568" on="1"/>
        <pt x="579" y="568" on="1"/>
        <pt x="579" y="530" on="1"/>
        <pt x="536" y="520" on="1"/>
        <pt x="526" y="518" on="0"/>
        <pt x="517" y="506" on="0"/>
        <pt x="517" y="496" on="1"/>
        <pt x="517" y="209" on="1"/>
        <pt x="517" y="142" on="0"/>
        <pt x="477" y="49" on="0"/>
        <pt x="437" y="24" on="1"/>
        <pt x="384" y="-10" on="0"/>
        <pt x="323" y="-67" on="0"/>
        <pt x="323" y="-97" on="1"/>
        <pt x="323" y="-118" on="0"/>
        <pt x="352" y="-139" on="0"/>
        <pt x="374" y="-139" on="1"/>
        <pt x="385" y="-139" on="0"/>
        <pt x="412" y="-133" on="0"/>
        <pt x="424" y="-127" on="1"/>
        <pt x="439" y="-160" on="1"/>
        <pt x="420" y="-173" on="0"/>
        <pt x="369" y="-188" on="0"/>
      </contour>
    </TTGlyph>
    <TTGlyph name="Uring" xMin="37" yMin="-8" xMax="579" yMax="771">
      <component glyphName="U" x="0" y="0" flags="0x204"/>
      <component glyphName="uni030A.case" x="316" y="0" flags="0x4"/>
    </TTGlyph>
    <TTGlyph name="Utilde" xMin="37" yMin="-8" xMax="579" yMax="726">
      <component glyphName="U" x="0" y="0" flags="0x204"/>
      <component glyphName="tildecomb.case" x="316" y="0" flags="0x4"/>
    </TTGlyph>
    <TTGlyph name="V" xMin="-3" yMin="-2" xMax="559" yMax="568">
      <contour>
        <pt x="323" y="-2" on="1"/>
        <pt x="249" y="-2" on="1"/>
        <pt x="60" y="500" on="1"/>
        <pt x="57" y="508" on="0"/>
        <pt x="47" y="517" on="0"/>
        <pt x="38" y="519" on="1"/>
        <pt x="-3" y="530" on="1"/>
        <pt x="-3" y="568" on="1"/>
        <pt x="216" y="568" on="1"/>
        <pt x="216" y="530" on="1"/>
        <pt x="141" y="516" on="1"/>
        <pt x="300" y="81" on="1"/>
        <pt x="441" y="516" on="1"/>
        <pt x="367" y="530" on="1"/>
        <pt x="367" y="568" on="1"/>
        <pt x="559" y="568" on="1"/>
        <pt x="559" y="530" on="1"/>
        <pt x="515" y="519" on="1"/>
        <pt x="507" y="517" on="0"/>
        <pt x="495" y="508" on="0"/>
        <pt x="493" y="500" on="1"/>
      </contour>
    </TTGlyph>
    <TTGlyph name="W" xMin="-1" yMin="-4" xMax="812" yMax="568">
      <contour>
        <pt x="523" y="-4" on="1"/>
        <pt x="409" y="377" on="1"/>
        <pt x="299" y="-4" on="1"/>
        <pt x="223" y="-4" on="1"/>
        <pt x="64" y="499" on="1"/>
        <pt x="62" y="507" on="0"/>
        <pt x="51" y="517" on="0"/>
        <pt x="43" y="519" on="1"/>
        <pt x="-1" y="530" on="1"/>
        <pt x="-1" y="568" on="1"/>
        <pt x="217" y="568" on="1"/>
        <pt x="217" y="530" on="1"/>
        <pt x="144" y="516" on="1"/>
        <pt x="273" y="80" on="1"/>
        <pt x="384" y="456" on="1"/>
        <pt x="369" y="499" on="1"/>
        <pt x="366" y="507" on="0"/>
        <pt x="356" y="517" on="0"/>
        <pt x="348" y="519" on="1"/>
        <pt x="311" y="530" on="1"/>
        <pt x="311" y="568" on="1"/>
        <pt x="523" y="568" on="1"/>
        <pt x="523" y="530" on="1"/>
        <pt x="449" y="516" on="1"/>
        <pt x="574" y="84" on="1"/>
        <pt x="696" y="516" on="1"/>
        <pt x="623" y="530" on="1"/>
        <pt x="623" y="568" on="1"/>
        <pt x="812" y="568" on="1"/>
        <pt x="812" y="530" on="1"/>
        <pt x="767" y="519" on="1"/>
        <pt x="759" y="517" on="0"/>
        <pt x="748" y="508" on="0"/>
        <pt x="746" y="499" on="1"/>
        <pt x="599" y="-4" on="1"/>
      </contour>
    </TTGlyph>
    <TTGlyph name="Wacute" xMin="-1" yMin="-4" xMax="812" yMax="754">
      <component glyphName="W" x="0" y="0" flags="0x204"/>
      <component glyphName="acutecomb.case" x="407" y="0" flags="0x4"/>
    </TTGlyph>
    <TTGlyph name="Wcircumflex" xMin="-1" yMin="-4" xMax="812" yMax="748">
      <component glyphName="W" x="0" y="0" flags="0x204"/>
      <component glyphName="uni0302.case" x="407" y="0" flags="0x4"/>
    </TTGlyph>
    <TTGlyph name="Wdieresis" xMin="-1" yMin="-4" xMax="812" yMax="716">
      <component glyphName="W" x="0" y="0" flags="0x204"/>
      <component glyphName="uni0308.case" x="407" y="0" flags="0x4"/>
    </TTGlyph>
    <TTGlyph name="Wgrave" xMin="-1" yMin="-4" xMax="812" yMax="758">
      <component glyphName="W" x="0" y="0" flags="0x204"/>
      <component glyphName="gravecomb.case" x="407" y="0" flags="0x4"/>
    </TTGlyph>
    <TTGlyph name="X" xMin="9" yMin="0" xMax="537" yMax="568">
      <contour>
        <pt x="209" y="37" on="1"/>
        <pt x="209" y="0" on="1"/>
        <pt x="9" y="0" on="1"/>
        <pt x="9" y="37" on="1"/>
        <pt x="59" y="48" on="1"/>
        <pt x="67" y="49" on="0"/>
        <pt x="78" y="57" on="0"/>
        <pt x="82" y="64" on="1"/>
        <pt x="232" y="279" on="1"/>
        <pt x="86" y="502" on="1"/>
        <pt x="82" y="509" on="0"/>
        <pt x="70" y="517" on="0"/>
        <pt x="63" y="519" on="1"/>
        <pt x="21" y="530" on="1"/>
        <pt x="21" y="568" on="1"/>
        <pt x="245" y="568" on="1"/>
        <pt x="245" y="530" on="1"/>
        <pt x="174" y="517" on="1"/>
        <pt x="287" y="336" on="1"/>
        <pt x="405" y="517" on="1"/>
        <pt x="340" y="530" on="1"/>
        <pt x="340" y="568" on="1"/>
        <pt x="523" y="568" on="1"/>
        <pt x="523" y="530" on="1"/>
        <pt x="478" y="519" on="1"/>
        <pt x="471" y="517" on="0"/>
        <pt x="460" y="510" on="0"/>
        <pt x="456" y="503" on="1"/>
        <pt x="314" y="300" on="1"/>
        <pt x="472" y="64" on="1"/>
        <pt x="476" y="57" on="0"/>
        <pt x="488" y="49" on="0"/>
        <pt x="495" y="48" on="1"/>
        <pt x="537" y="37" on="1"/>
        <pt x="537" y="0" on="1"/>
        <pt x="315" y="0" on="1"/>
        <pt x="315" y="37" on="1"/>
        <pt x="383" y="49" on="1"/>
        <pt x="261" y="242" on="1"/>
        <pt x="135" y="49" on="1"/>
      </contour>
    </TTGlyph>
    <TTGlyph name="Y" xMin="-2" yMin="0" xMax="528" yMax="568">
      <contour>
        <pt x="401" y="0" on="1"/>
        <pt x="140" y="0" on="1"/>
        <pt x="140" y="37" on="1"/>
        <pt x="210" y="50" on="1"/>
        <pt x="220" y="51" on="0"/>
        <pt x="230" y="62" on="0"/>
        <pt x="230" y="72" on="1"/>
        <pt x="230" y="217" on="1"/>
        <pt x="66" y="502" on="1"/>
        <pt x="62" y="509" on="0"/>
        <pt x="50" y="518" on="0"/>
        <pt x="43" y="519" on="1"/>
        <pt x="-2" y="530" on="1"/>
        <pt x="-2" y="568" on="1"/>
        <pt x="219" y="568" on="1"/>
        <pt x="219" y="530" on="1"/>
        <pt x="153" y="517" on="1"/>
        <pt x="286" y="277" on="1"/>
        <pt x="409" y="517" on="1"/>
        <pt x="341" y="530" on="1"/>
        <pt x="341" y="568" on="1"/>
        <pt x="528" y="568" on="1"/>
        <pt x="528" y="530" on="1"/>
        <pt x="483" y="520" on="1"/>
        <pt x="476" y="518" on="0"/>
        <pt x="464" y="510" on="0"/>
        <pt x="460" y="503" on="1"/>
        <pt x="312" y="219" on="1"/>
        <pt x="312" y="72" on="1"/>
        <pt x="312" y="62" on="0"/>
        <pt x="321" y="51" on="0"/>
        <pt x="331" y="50" on="1"/>
        <pt x="401" y="37" on="1"/>
      </contour>
    </TTGlyph>
    <TTGlyph name="Yacute" xMin="-2" yMin="0" xMax="528" yMax="754">
      <component glyphName="Y" x="0" y="0" flags="0x204"/>
      <component glyphName="acutecomb.case" x="268" y="0" flags="0x4"/>
    </TTGlyph>
    <TTGlyph name="Ycircumflex" xMin="-2" yMin="0" xMax="528" yMax="748">
      <component glyphName="Y" x="0" y="0" flags="0x204"/>
      <component glyphName="uni0302.case" x="268" y="0" flags="0x4"/>
    </TTGlyph>
    <TTGlyph name="Ydieresis" xMin="-2" yMin="0" xMax="528" yMax="716">
      <component glyphName="Y" x="0" y="0" flags="0x204"/>
      <component glyphName="uni0308.case" x="268" y="0" flags="0x4"/>
    </TTGlyph>
    <TTGlyph name="Ygrave" xMin="-2" yMin="0" xMax="528" yMax="758">
      <component glyphName="Y" x="0" y="0" flags="0x204"/>
      <component glyphName="gravecomb.case" x="268" y="0" flags="0x4"/>
    </TTGlyph>
    <TTGlyph name="Z" xMin="25" yMin="0" xMax="454" yMax="568">
      <contour>
        <pt x="441" y="0" on="1"/>
        <pt x="44" y="0" on="1"/>
        <pt x="25" y="33" on="1"/>
        <pt x="352" y="526" on="1"/>
        <pt x="233" y="526" on="1"/>
        <pt x="208" y="526" on="0"/>
        <pt x="166" y="523" on="0"/>
        <pt x="153" y="518" on="1"/>
        <pt x="145" y="515" on="0"/>
        <pt x="135" y="505" on="0"/>
        <pt x="132" y="497" on="1"/>
        <pt x="107" y="406" on="1"/>
        <pt x="62" y="406" on="1"/>
        <pt x="60" y="445" on="0"/>
        <pt x="65" y="530" on="0"/>
        <pt x="71" y="568" on="1"/>
        <pt x="437" y="568" on="1"/>
        <pt x="453" y="536" on="1"/>
        <pt x="129" y="44" on="1"/>
        <pt x="279" y="44" on="1"/>
        <pt x="304" y="44" on="0"/>
        <pt x="347" y="49" on="0"/>
        <pt x="360" y="53" on="1"/>
        <pt x="367" y="56" on="0"/>
        <pt x="378" y="66" on="0"/>
        <pt x="380" y="75" on="1"/>
        <pt x="410" y="171" on="1"/>
        <pt x="453" y="166" on="1"/>
        <pt x="454" y="130" on="0"/>
        <pt x="447" y="36" on="0"/>
      </contour>
    </TTGlyph>
    <TTGlyph name="Zacute" xMin="25" yMin="0" xMax="454" yMax="754">
      <component glyphName="Z" x="0" y="0" flags="0x204"/>
      <component glyphName="acutecomb.case" x="262" y="0" flags="0x4"/>
    </TTGlyph>
    <TTGlyph name="Zcaron" xMin="25" yMin="0" xMax="454" yMax="752">
      <component glyphName="Z" x="0" y="0" flags="0x204"/>
      <component glyphName="uni030C.case" x="262" y="0" flags="0x4"/>
    </TTGlyph>
    <TTGlyph name="Zdotaccent" xMin="25" yMin="0" xMax="454" yMax="727">
      <component glyphName="Z" x="0" y="0" flags="0x204"/>
      <component glyphName="uni0307.case" x="262" y="0" flags="0x4"/>
    </TTGlyph>
    <TTGlyph name="__periodcentered.CAT" xMin="-11" yMin="220" xMax="96" yMax="324">
      <contour>
        <pt x="96" y="272" on="1"/>
        <pt x="96" y="249" on="0"/>
        <pt x="67" y="220" on="0"/>
        <pt x="43" y="220" on="1"/>
        <pt x="18" y="220" on="0"/>
        <pt x="-11" y="249" on="0"/>
        <pt x="-11" y="272" on="1"/>
        <pt x="-11" y="295" on="0"/>
        <pt x="18" y="324" on="0"/>
        <pt x="43" y="324" on="1"/>
        <pt x="67" y="324" on="0"/>
        <pt x="96" y="295" on="0"/>
      </contour>
    </TTGlyph>
    <TTGlyph name="__periodcentered.CAT.case" xMin="-152" yMin="261" xMax="-45" yMax="365">
      <contour>
        <pt x="-45" y="313" on="1"/>
        <pt x="-45" y="290" on="0"/>
        <pt x="-75" y="261" on="0"/>
        <pt x="-99" y="261" on="1"/>
        <pt x="-123" y="261" on="0"/>
        <pt x="-152" y="290" on="0"/>
        <pt x="-152" y="313" on="1"/>
        <pt x="-152" y="336" on="0"/>
        <pt x="-123" y="365" on="0"/>
        <pt x="-99" y="365" on="1"/>
        <pt x="-75" y="365" on="0"/>
        <pt x="-45" y="336" on="0"/>
      </contour>
    </TTGlyph>
    <TTGlyph name="a" xMin="35" yMin="-8" xMax="418" yMax="423">
      <contour>
        <pt x="180" y="43" on="1"/>
        <pt x="206" y="43" on="0"/>
        <pt x="260" y="62" on="0"/>
        <pt x="279" y="78" on="1"/>
        <pt x="279" y="176" on="1"/>
        <pt x="209" y="169" on="1"/>
        <pt x="165" y="166" on="0"/>
        <pt x="118" y="133" on="0"/>
        <pt x="118" y="99" on="1"/>
        <pt x="118" y="73" on="0"/>
        <pt x="149" y="43" on="0"/>
      </contour>
      <contour>
        <pt x="348" y="-6" on="1"/>
        <pt x="322" y="-6" on="0"/>
        <pt x="288" y="21" on="0"/>
        <pt x="282" y="46" on="1"/>
        <pt x="259" y="21" on="0"/>
        <pt x="190" y="-8" on="0"/>
        <pt x="152" y="-8" on="1"/>
        <pt x="102" y="-8" on="0"/>
        <pt x="35" y="43" on="0"/>
        <pt x="35" y="92" on="1"/>
        <pt x="35" y="124" on="0"/>
        <pt x="64" y="166" on="0"/>
        <pt x="110" y="192" on="0"/>
        <pt x="168" y="205" on="0"/>
        <pt x="196" y="207" on="1"/>
        <pt x="279" y="214" on="1"/>
        <pt x="279" y="263" on="1"/>
        <pt x="279" y="320" on="0"/>
        <pt x="234" y="365" on="0"/>
        <pt x="188" y="365" on="1"/>
        <pt x="154" y="365" on="0"/>
        <pt x="92" y="343" on="0"/>
        <pt x="66" y="318" on="1"/>
        <pt x="47" y="336" on="1"/>
        <pt x="62" y="379" on="0"/>
        <pt x="153" y="423" on="0"/>
        <pt x="210" y="423" on="1"/>
        <pt x="282" y="423" on="0"/>
        <pt x="355" y="349" on="0"/>
        <pt x="355" y="274" on="1"/>
        <pt x="355" y="69" on="1"/>
        <pt x="355" y="57" on="0"/>
        <pt x="366" y="46" on="0"/>
        <pt x="377" y="45" on="1"/>
        <pt x="418" y="41" on="1"/>
        <pt x="418" y="7" on="1"/>
        <pt x="408" y="4" on="0"/>
        <pt x="365" y="-6" on="0"/>
      </contour>
    </TTGlyph>
    <TTGlyph name="aacute" xMin="35" yMin="-8" xMax="418" yMax="640">
      <component glyphName="a" x="0" y="0" flags="0x204"/>
      <component glyphName="acutecomb" x="210" y="0" flags="0x4"/>
    </TTGlyph>
    <TTGlyph name="abreve" xMin="35" yMin="-8" xMax="418" yMax="599">
      <component glyphName="a" x="0" y="0" flags="0x204"/>
      <component glyphName="uni0306" x="210" y="0" flags="0x4"/>
    </TTGlyph>
    <TTGlyph name="acircumflex" xMin="35" yMin="-8" xMax="418" yMax="629">
      <component glyphName="a" x="0" y="0" flags="0x204"/>
      <component glyphName="uni0302" x="210" y="0" flags="0x4"/>
    </TTGlyph>
    <TTGlyph name="acute" xMin="123" yMin="458" xMax="309" yMax="640">
      <component glyphName="acutecomb" x="182" y="0" flags="0x4"/>
    </TTGlyph>
    <TTGlyph name="acutecomb" xMin="-59" yMin="458" xMax="127" yMax="640">
      <contour>
        <pt x="-35" y="458" on="1"/>
        <pt x="-59" y="484" on="1"/>
        <pt x="74" y="640" on="1"/>
        <pt x="127" y="594" on="1"/>
        <pt x="105" y="565" on="0"/>
        <pt x="10" y="487" on="0"/>
      </contour>
    </TTGlyph>
    <TTGlyph name="acutecomb.case" xMin="-77" yMin="607" xMax="138" yMax="754">
      <contour>
        <pt x="138" y="697" on="1"/>
        <pt x="107" y="673" on="0"/>
        <pt x="-12" y="624" on="0"/>
        <pt x="-61" y="607" on="1"/>
        <pt x="-77" y="637" on="1"/>
        <pt x="96" y="754" on="1"/>
      </contour>
    </TTGlyph>
    <TTGlyph name="adieresis" xMin="35" yMin="-8" xMax="418" yMax="580">
      <component glyphName="a" x="0" y="0" flags="0x204"/>
      <component glyphName="uni0308" x="210" y="0" flags="0x4"/>
    </TTGlyph>
    <TTGlyph name="ae" xMin="35" yMin="-8" xMax="622" yMax="425">
      <contour>
        <pt x="459" y="382" on="1"/>
        <pt x="420" y="382" on="0"/>
        <pt x="368" y="328" on="0"/>
        <pt x="361" y="269" on="1"/>
        <pt x="544" y="269" on="1"/>
        <pt x="544" y="286" on="1"/>
        <pt x="544" y="329" on="0"/>
        <pt x="500" y="382" on="0"/>
      </contour>
      <contour>
        <pt x="621" y="90" on="1"/>
        <pt x="606" y="45" on="0"/>
        <pt x="519" y="-8" on="0"/>
        <pt x="460" y="-8" on="1"/>
        <pt x="408" y="-8" on="0"/>
        <pt x="334" y="32" on="0"/>
        <pt x="312" y="67" on="1"/>
        <pt x="287" y="31" on="0"/>
        <pt x="202" y="-8" on="0"/>
        <pt x="155" y="-8" on="1"/>
        <pt x="101" y="-8" on="0"/>
        <pt x="35" y="43" on="0"/>
        <pt x="35" y="91" on="1"/>
        <pt x="35" y="154" on="0"/>
        <pt x="139" y="203" on="0"/>
        <pt x="196" y="207" on="1"/>
        <pt x="279" y="213" on="1"/>
        <pt x="279" y="263" on="1"/>
        <pt x="279" y="319" on="0"/>
        <pt x="231" y="365" on="0"/>
        <pt x="185" y="365" on="1"/>
        <pt x="156" y="365" on="0"/>
        <pt x="93" y="343" on="0"/>
        <pt x="66" y="318" on="1"/>
        <pt x="47" y="336" on="1"/>
        <pt x="61" y="379" on="0"/>
        <pt x="154" y="423" on="0"/>
        <pt x="205" y="423" on="1"/>
        <pt x="251" y="423" on="0"/>
        <pt x="311" y="391" on="0"/>
        <pt x="327" y="361" on="1"/>
        <pt x="352" y="392" on="0"/>
        <pt x="424" y="425" on="0"/>
        <pt x="470" y="425" on="1"/>
        <pt x="537" y="425" on="0"/>
        <pt x="622" y="352" on="0"/>
        <pt x="622" y="282" on="1"/>
        <pt x="622" y="272" on="0"/>
        <pt x="620" y="243" on="0"/>
        <pt x="618" y="231" on="1"/>
        <pt x="358" y="231" on="1"/>
        <pt x="358" y="229" on="0"/>
        <pt x="358" y="224" on="0"/>
        <pt x="358" y="221" on="1"/>
        <pt x="358" y="122" on="0"/>
        <pt x="430" y="46" on="0"/>
        <pt x="480" y="46" on="1"/>
        <pt x="514" y="46" on="0"/>
        <pt x="577" y="77" on="0"/>
        <pt x="595" y="105" on="1"/>
      </contour>
      <contour>
        <pt x="180" y="43" on="1"/>
        <pt x="208" y="43" on="0"/>
        <pt x="273" y="67" on="0"/>
        <pt x="299" y="92" on="1"/>
        <pt x="292" y="110" on="0"/>
        <pt x="281" y="152" on="0"/>
        <pt x="280" y="175" on="1"/>
        <pt x="209" y="169" on="1"/>
        <pt x="165" y="166" on="0"/>
        <pt x="118" y="133" on="0"/>
        <pt x="118" y="99" on="1"/>
        <pt x="118" y="73" on="0"/>
        <pt x="149" y="43" on="0"/>
      </contour>
    </TTGlyph>
    <TTGlyph name="agrave" xMin="35" yMin="-8" xMax="418" yMax="640">
      <component glyphName="a" x="0" y="0" flags="0x204"/>
      <component glyphName="gravecomb" x="210" y="0" flags="0x4"/>
    </TTGlyph>
    <TTGlyph name="amacron" xMin="35" yMin="-8" xMax="418" yMax="548">
      <component glyphName="a" x="0" y="0" flags="0x204"/>
      <component glyphName="uni0304" x="210" y="0" flags="0x4"/>
    </TTGlyph>
    <TTGlyph name="ampersand" xMin="40" yMin="-10" xMax="545" yMax="576">
      <contour>
        <pt x="164" y="451" on="1"/>
        <pt x="164" y="429" on="0"/>
        <pt x="186" y="369" on="0"/>
        <pt x="221" y="320" on="1"/>
        <pt x="257" y="347" on="0"/>
        <pt x="304" y="415" on="0"/>
        <pt x="304" y="458" on="1"/>
        <pt x="304" y="492" on="0"/>
        <pt x="273" y="543" on="0"/>
        <pt x="238" y="543" on="1"/>
        <pt x="201" y="543" on="0"/>
        <pt x="164" y="487" on="0"/>
      </contour>
      <contour>
        <pt x="232" y="33" on="1"/>
        <pt x="260" y="33" on="0"/>
        <pt x="317" y="50" on="0"/>
        <pt x="341" y="66" on="1"/>
        <pt x="298" y="106" on="0"/>
        <pt x="205" y="214" on="0"/>
        <pt x="177" y="253" on="1"/>
        <pt x="152" y="234" on="0"/>
        <pt x="115" y="183" on="0"/>
        <pt x="115" y="143" on="1"/>
        <pt x="115" y="94" on="0"/>
        <pt x="177" y="33" on="0"/>
      </contour>
      <contour>
        <pt x="470" y="-6" on="1"/>
        <pt x="447" y="-6" on="0"/>
        <pt x="400" y="14" on="0"/>
        <pt x="370" y="39" on="1"/>
        <pt x="338" y="13" on="0"/>
        <pt x="256" y="-10" on="0"/>
        <pt x="216" y="-10" on="1"/>
        <pt x="144" y="-10" on="0"/>
        <pt x="40" y="59" on="0"/>
        <pt x="40" y="133" on="1"/>
        <pt x="40" y="197" on="0"/>
        <pt x="113" y="266" on="0"/>
        <pt x="154" y="282" on="1"/>
        <pt x="123" y="325" on="0"/>
        <pt x="89" y="400" on="0"/>
        <pt x="89" y="437" on="1"/>
        <pt x="89" y="494" on="0"/>
        <pt x="168" y="576" on="0"/>
        <pt x="239" y="576" on="1"/>
        <pt x="299" y="576" on="0"/>
        <pt x="374" y="511" on="0"/>
        <pt x="374" y="454" on="1"/>
        <pt x="374" y="399" on="0"/>
        <pt x="302" y="320" on="0"/>
        <pt x="240" y="294" on="1"/>
        <pt x="274" y="251" on="0"/>
        <pt x="361" y="154" on="0"/>
        <pt x="398" y="117" on="1"/>
        <pt x="417" y="144" on="0"/>
        <pt x="432" y="210" on="0"/>
        <pt x="432" y="240" on="1"/>
        <pt x="432" y="246" on="0"/>
        <pt x="427" y="261" on="0"/>
        <pt x="416" y="263" on="1"/>
        <pt x="359" y="274" on="1"/>
        <pt x="359" y="312" on="1"/>
        <pt x="545" y="312" on="1"/>
        <pt x="545" y="274" on="1"/>
        <pt x="508" y="263" on="1"/>
        <pt x="498" y="259" on="0"/>
        <pt x="492" y="249" on="0"/>
        <pt x="491" y="239" on="1"/>
        <pt x="485" y="199" on="0"/>
        <pt x="456" y="123" on="0"/>
        <pt x="425" y="91" on="1"/>
        <pt x="455" y="62" on="0"/>
        <pt x="499" y="47" on="0"/>
        <pt x="544" y="47" on="1"/>
        <pt x="544" y="9" on="1"/>
        <pt x="528" y="4" on="0"/>
        <pt x="489" y="-6" on="0"/>
      </contour>
    </TTGlyph>
    <TTGlyph name="aogonek" xMin="35" yMin="-188" xMax="418" yMax="423">
      <contour>
        <pt x="316" y="-188" on="1"/>
        <pt x="279" y="-187" on="0"/>
        <pt x="225" y="-153" on="0"/>
        <pt x="225" y="-117" on="1"/>
        <pt x="225" y="-80" on="0"/>
        <pt x="287" y="-20" on="0"/>
        <pt x="324" y="-4" on="1"/>
        <pt x="324" y="-3" on="1"/>
        <pt x="308" y="2" on="0"/>
        <pt x="286" y="27" on="0"/>
        <pt x="282" y="46" on="1"/>
        <pt x="259" y="21" on="0"/>
        <pt x="190" y="-8" on="0"/>
        <pt x="152" y="-8" on="1"/>
        <pt x="102" y="-8" on="0"/>
        <pt x="35" y="43" on="0"/>
        <pt x="35" y="92" on="1"/>
        <pt x="35" y="124" on="0"/>
        <pt x="64" y="166" on="0"/>
        <pt x="110" y="192" on="0"/>
        <pt x="168" y="205" on="0"/>
        <pt x="196" y="207" on="1"/>
        <pt x="279" y="214" on="1"/>
        <pt x="279" y="263" on="1"/>
        <pt x="279" y="320" on="0"/>
        <pt x="234" y="365" on="0"/>
        <pt x="188" y="365" on="1"/>
        <pt x="154" y="365" on="0"/>
        <pt x="92" y="343" on="0"/>
        <pt x="66" y="318" on="1"/>
        <pt x="47" y="336" on="1"/>
        <pt x="62" y="379" on="0"/>
        <pt x="153" y="423" on="0"/>
        <pt x="210" y="423" on="1"/>
        <pt x="282" y="423" on="0"/>
        <pt x="355" y="349" on="0"/>
        <pt x="355" y="274" on="1"/>
        <pt x="355" y="69" on="1"/>
        <pt x="355" y="57" on="0"/>
        <pt x="366" y="46" on="0"/>
        <pt x="377" y="45" on="1"/>
        <pt x="418" y="41" on="1"/>
        <pt x="418" y="7" on="1"/>
        <pt x="413" y="6" on="0"/>
        <pt x="393" y="0" on="0"/>
        <pt x="382" y="-2" on="1"/>
        <pt x="344" y="-18" on="0"/>
        <pt x="294" y="-69" on="0"/>
        <pt x="294" y="-96" on="1"/>
        <pt x="294" y="-118" on="0"/>
        <pt x="324" y="-139" on="0"/>
        <pt x="346" y="-139" on="1"/>
        <pt x="357" y="-139" on="0"/>
        <pt x="383" y="-133" on="0"/>
        <pt x="396" y="-127" on="1"/>
        <pt x="409" y="-160" on="1"/>
        <pt x="392" y="-173" on="0"/>
        <pt x="341" y="-188" on="0"/>
      </contour>
      <contour>
        <pt x="180" y="43" on="1"/>
        <pt x="206" y="43" on="0"/>
        <pt x="260" y="62" on="0"/>
        <pt x="279" y="78" on="1"/>
        <pt x="279" y="176" on="1"/>
        <pt x="209" y="169" on="1"/>
        <pt x="165" y="166" on="0"/>
        <pt x="118" y="133" on="0"/>
        <pt x="118" y="99" on="1"/>
        <pt x="118" y="73" on="0"/>
        <pt x="149" y="43" on="0"/>
      </contour>
    </TTGlyph>
    <TTGlyph name="approxequal" xMin="58" yMin="96" xMax="419" yMax="352">
      <component glyphName="asciitilde" x="0" y="-72" flags="0x4"/>
      <component glyphName="asciitilde" x="0" y="73" flags="0x4"/>
    </TTGlyph>
    <TTGlyph name="aring" xMin="35" yMin="-8" xMax="418" yMax="635">
      <component glyphName="a" x="0" y="0" flags="0x204"/>
      <component glyphName="uni030A" x="210" y="0" flags="0x4"/>
    </TTGlyph>
    <TTGlyph name="asciicircum" xMin="38" yMin="291" xMax="409" yMax="559">
      <contour>
        <pt x="372" y="291" on="1"/>
        <pt x="219" y="480" on="1"/>
        <pt x="71" y="291" on="1"/>
        <pt x="38" y="315" on="1"/>
        <pt x="186" y="554" on="1"/>
        <pt x="253" y="559" on="1"/>
        <pt x="409" y="315" on="1"/>
      </contour>
    </TTGlyph>
    <TTGlyph name="asciitilde" xMin="58" yMin="168" xMax="419" yMax="279">
      <contour>
        <pt x="419" y="252" on="1"/>
        <pt x="403" y="218" on="0"/>
        <pt x="344" y="168" on="0"/>
        <pt x="307" y="168" on="1"/>
        <pt x="264" y="168" on="0"/>
        <pt x="191" y="217" on="0"/>
        <pt x="157" y="217" on="1"/>
        <pt x="136" y="217" on="0"/>
        <pt x="98" y="192" on="0"/>
        <pt x="84" y="173" on="1"/>
        <pt x="58" y="195" on="1"/>
        <pt x="74" y="229" on="0"/>
        <pt x="133" y="279" on="0"/>
        <pt x="170" y="279" on="1"/>
        <pt x="213" y="279" on="0"/>
        <pt x="286" y="229" on="0"/>
        <pt x="320" y="229" on="1"/>
        <pt x="341" y="229" on="0"/>
        <pt x="379" y="255" on="0"/>
        <pt x="393" y="274" on="1"/>
      </contour>
    </TTGlyph>
    <TTGlyph name="asterisk" xMin="50" yMin="302" xMax="389" yMax="653">
      <contour>
        <pt x="246" y="396" on="1"/>
        <pt x="255" y="302" on="1"/>
        <pt x="184" y="302" on="1"/>
        <pt x="194" y="396" on="1"/>
        <pt x="209" y="459" on="1"/>
        <pt x="162" y="414" on="1"/>
        <pt x="86" y="358" on="1"/>
        <pt x="50" y="421" on="1"/>
        <pt x="136" y="459" on="1"/>
        <pt x="198" y="477" on="1"/>
        <pt x="136" y="495" on="1"/>
        <pt x="50" y="534" on="1"/>
        <pt x="86" y="596" on="1"/>
        <pt x="162" y="541" on="1"/>
        <pt x="209" y="496" on="1"/>
        <pt x="194" y="559" on="1"/>
        <pt x="184" y="653" on="1"/>
        <pt x="255" y="653" on="1"/>
        <pt x="246" y="559" on="1"/>
        <pt x="230" y="496" on="1"/>
        <pt x="277" y="541" on="1"/>
        <pt x="353" y="596" on="1"/>
        <pt x="389" y="534" on="1"/>
        <pt x="303" y="495" on="1"/>
        <pt x="241" y="477" on="1"/>
        <pt x="303" y="459" on="1"/>
        <pt x="389" y="421" on="1"/>
        <pt x="353" y="358" on="1"/>
        <pt x="277" y="414" on="1"/>
        <pt x="230" y="459" on="1"/>
      </contour>
    </TTGlyph>
    <TTGlyph name="at" xMin="41" yMin="-188" xMax="726" yMax="562">
      <contour>
        <pt x="337" y="-188" on="1"/>
        <pt x="197" y="-188" on="0"/>
        <pt x="42" y="-8" on="0"/>
        <pt x="41" y="135" on="1"/>
        <pt x="41" y="231" on="0"/>
        <pt x="107" y="390" on="0"/>
        <pt x="217" y="501" on="0"/>
        <pt x="365" y="562" on="0"/>
        <pt x="445" y="562" on="1"/>
        <pt x="565" y="562" on="0"/>
        <pt x="726" y="421" on="0"/>
        <pt x="726" y="286" on="1"/>
        <pt x="726" y="212" on="0"/>
        <pt x="679" y="100" on="0"/>
        <pt x="612" y="26" on="0"/>
        <pt x="539" y="-11" on="0"/>
        <pt x="514" y="-11" on="1"/>
        <pt x="483" y="-11" on="0"/>
        <pt x="456" y="37" on="0"/>
        <pt x="456" y="74" on="1"/>
        <pt x="456" y="89" on="0"/>
        <pt x="461" y="133" on="0"/>
        <pt x="466" y="161" on="1"/>
        <pt x="442" y="95" on="0"/>
        <pt x="360" y="-13" on="0"/>
        <pt x="309" y="-13" on="1"/>
        <pt x="265" y="-13" on="0"/>
        <pt x="205" y="72" on="0"/>
        <pt x="205" y="138" on="1"/>
        <pt x="205" y="180" on="0"/>
        <pt x="232" y="267" on="0"/>
        <pt x="282" y="338" on="0"/>
        <pt x="354" y="383" on="0"/>
        <pt x="400" y="383" on="1"/>
        <pt x="422" y="383" on="0"/>
        <pt x="469" y="370" on="0"/>
        <pt x="493" y="357" on="1"/>
        <pt x="509" y="381" on="1"/>
        <pt x="557" y="365" on="1"/>
        <pt x="552" y="340" on="0"/>
        <pt x="539" y="270" on="0"/>
        <pt x="528" y="195" on="0"/>
        <pt x="520" y="123" on="0"/>
        <pt x="520" y="97" on="1"/>
        <pt x="520" y="66" on="0"/>
        <pt x="531" y="44" on="0"/>
        <pt x="543" y="44" on="1"/>
        <pt x="559" y="44" on="0"/>
        <pt x="604" y="74" on="0"/>
        <pt x="645" y="131" on="0"/>
        <pt x="674" y="216" on="0"/>
        <pt x="674" y="270" on="1"/>
        <pt x="674" y="335" on="0"/>
        <pt x="631" y="428" on="0"/>
        <pt x="561" y="487" on="0"/>
        <pt x="470" y="514" on="0"/>
        <pt x="423" y="514" on="1"/>
        <pt x="357" y="514" on="0"/>
        <pt x="239" y="464" on="0"/>
        <pt x="151" y="371" on="0"/>
        <pt x="99" y="237" on="0"/>
        <pt x="99" y="153" on="1"/>
        <pt x="99" y="9" on="0"/>
        <pt x="244" y="-140" on="0"/>
        <pt x="351" y="-140" on="1"/>
        <pt x="393" y="-140" on="0"/>
        <pt x="486" y="-119" on="0"/>
        <pt x="508" y="-105" on="1"/>
        <pt x="523" y="-134" on="1"/>
        <pt x="494" y="-157" on="0"/>
        <pt x="395" y="-188" on="0"/>
      </contour>
      <contour>
        <pt x="326" y="51" on="1"/>
        <pt x="360" y="51" on="0"/>
        <pt x="431" y="157" on="0"/>
        <pt x="455" y="228" on="1"/>
        <pt x="462" y="247" on="0"/>
        <pt x="471" y="282" on="0"/>
        <pt x="474" y="297" on="1"/>
        <pt x="455" y="316" on="0"/>
        <pt x="407" y="333" on="0"/>
        <pt x="388" y="333" on="1"/>
        <pt x="332" y="333" on="0"/>
        <pt x="274" y="226" on="0"/>
        <pt x="274" y="160" on="1"/>
        <pt x="274" y="118" on="0"/>
        <pt x="299" y="51" on="0"/>
      </contour>
    </TTGlyph>
    <TTGlyph name="atilde" xMin="35" yMin="-8" xMax="418" yMax="582">
      <component glyphName="a" x="0" y="0" flags="0x204"/>
      <component glyphName="tildecomb" x="210" y="0" flags="0x4"/>
    </TTGlyph>
    <TTGlyph name="b" xMin="-5" yMin="-8" xMax="431" yMax="654">
      <contour>
        <pt x="213" y="-8" on="1"/>
        <pt x="167" y="-8" on="0"/>
        <pt x="87" y="12" on="0"/>
        <pt x="68" y="20" on="1"/>
        <pt x="68" y="570" on="1"/>
        <pt x="68" y="580" on="0"/>
        <pt x="58" y="591" on="0"/>
        <pt x="49" y="592" on="1"/>
        <pt x="-5" y="600" on="1"/>
        <pt x="-5" y="633" on="1"/>
        <pt x="27" y="642" on="0"/>
        <pt x="103" y="653" on="0"/>
        <pt x="134" y="654" on="1"/>
        <pt x="146" y="643" on="1"/>
        <pt x="146" y="375" on="1"/>
        <pt x="168" y="397" on="0"/>
        <pt x="228" y="425" on="0"/>
        <pt x="268" y="425" on="1"/>
        <pt x="337" y="425" on="0"/>
        <pt x="431" y="331" on="0"/>
        <pt x="431" y="227" on="1"/>
        <pt x="431" y="120" on="0"/>
        <pt x="319" y="-8" on="0"/>
      </contour>
      <contour>
        <pt x="219" y="33" on="1"/>
        <pt x="280" y="33" on="0"/>
        <pt x="345" y="116" on="0"/>
        <pt x="346" y="207" on="1"/>
        <pt x="347" y="298" on="0"/>
        <pt x="288" y="371" on="0"/>
        <pt x="237" y="371" on="1"/>
        <pt x="210" y="371" on="0"/>
        <pt x="165" y="354" on="0"/>
        <pt x="146" y="339" on="1"/>
        <pt x="146" y="51" on="1"/>
        <pt x="159" y="44" on="0"/>
        <pt x="195" y="33" on="0"/>
      </contour>
    </TTGlyph>
    <TTGlyph name="backslash" xMin="26" yMin="-105" xMax="324" yMax="633">
      <contour>
        <pt x="324" y="-105" on="1"/>
        <pt x="257" y="-105" on="1"/>
        <pt x="26" y="633" on="1"/>
        <pt x="93" y="633" on="1"/>
      </contour>
    </TTGlyph>
    <TTGlyph name="bar" xMin="83" yMin="-110" xMax="147" yMax="689">
      <contour>
        <pt x="83" y="-110" on="1"/>
        <pt x="83" y="689" on="1"/>
        <pt x="147" y="689" on="1"/>
        <pt x="147" y="-110" on="1"/>
      </contour>
    </TTGlyph>
    <TTGlyph name="braceleft" xMin="13" yMin="-147" xMax="306" yMax="723">
      <contour>
        <pt x="306" y="-108" on="1"/>
        <pt x="301" y="-147" on="1"/>
        <pt x="286" y="-147" on="0"/>
        <pt x="252" y="-146" on="0"/>
        <pt x="232" y="-144" on="1"/>
        <pt x="164" y="-140" on="0"/>
        <pt x="100" y="-77" on="0"/>
        <pt x="100" y="-18" on="1"/>
        <pt x="100" y="37" on="0"/>
        <pt x="112" y="130" on="0"/>
        <pt x="112" y="170" on="1"/>
        <pt x="112" y="202" on="0"/>
        <pt x="82" y="251" on="0"/>
        <pt x="13" y="256" on="1"/>
        <pt x="13" y="319" on="1"/>
        <pt x="82" y="324" on="0"/>
        <pt x="112" y="374" on="0"/>
        <pt x="112" y="406" on="1"/>
        <pt x="112" y="446" on="0"/>
        <pt x="100" y="538" on="0"/>
        <pt x="100" y="594" on="1"/>
        <pt x="100" y="652" on="0"/>
        <pt x="164" y="716" on="0"/>
        <pt x="232" y="720" on="1"/>
        <pt x="252" y="721" on="0"/>
        <pt x="286" y="723" on="0"/>
        <pt x="301" y="723" on="1"/>
        <pt x="306" y="685" on="1"/>
        <pt x="256" y="675" on="1"/>
        <pt x="215" y="667" on="0"/>
        <pt x="174" y="625" on="0"/>
        <pt x="174" y="579" on="1"/>
        <pt x="174" y="537" on="0"/>
        <pt x="181" y="438" on="0"/>
        <pt x="181" y="395" on="1"/>
        <pt x="181" y="351" on="0"/>
        <pt x="131" y="301" on="0"/>
        <pt x="80" y="290" on="1"/>
        <pt x="131" y="278" on="0"/>
        <pt x="181" y="225" on="0"/>
        <pt x="181" y="180" on="1"/>
        <pt x="181" y="137" on="0"/>
        <pt x="174" y="38" on="0"/>
        <pt x="174" y="-4" on="1"/>
        <pt x="174" y="-50" on="0"/>
        <pt x="215" y="-92" on="0"/>
        <pt x="256" y="-100" on="1"/>
      </contour>
    </TTGlyph>
    <TTGlyph name="braceright" xMin="16" yMin="-147" xMax="309" yMax="723">
      <contour>
        <pt x="90" y="-145" on="1"/>
        <pt x="70" y="-146" on="0"/>
        <pt x="36" y="-147" on="0"/>
        <pt x="20" y="-147" on="1"/>
        <pt x="16" y="-108" on="1"/>
        <pt x="66" y="-100" on="1"/>
        <pt x="107" y="-92" on="0"/>
        <pt x="147" y="-50" on="0"/>
        <pt x="147" y="-4" on="1"/>
        <pt x="147" y="38" on="0"/>
        <pt x="140" y="137" on="0"/>
        <pt x="140" y="180" on="1"/>
        <pt x="140" y="225" on="0"/>
        <pt x="190" y="276" on="0"/>
        <pt x="241" y="287" on="1"/>
        <pt x="190" y="298" on="0"/>
        <pt x="140" y="351" on="0"/>
        <pt x="140" y="395" on="1"/>
        <pt x="140" y="438" on="0"/>
        <pt x="147" y="537" on="0"/>
        <pt x="147" y="579" on="1"/>
        <pt x="147" y="625" on="0"/>
        <pt x="107" y="668" on="0"/>
        <pt x="66" y="675" on="1"/>
        <pt x="16" y="685" on="1"/>
        <pt x="20" y="723" on="1"/>
        <pt x="36" y="723" on="0"/>
        <pt x="70" y="721" on="0"/>
        <pt x="90" y="720" on="1"/>
        <pt x="157" y="716" on="0"/>
        <pt x="222" y="653" on="0"/>
        <pt x="222" y="594" on="1"/>
        <pt x="222" y="538" on="0"/>
        <pt x="209" y="446" on="0"/>
        <pt x="209" y="406" on="1"/>
        <pt x="209" y="374" on="0"/>
        <pt x="240" y="324" on="0"/>
        <pt x="309" y="319" on="1"/>
        <pt x="309" y="256" on="1"/>
        <pt x="240" y="251" on="0"/>
        <pt x="209" y="202" on="0"/>
        <pt x="209" y="170" on="1"/>
        <pt x="209" y="130" on="0"/>
        <pt x="222" y="37" on="0"/>
        <pt x="222" y="-18" on="1"/>
        <pt x="222" y="-77" on="0"/>
        <pt x="157" y="-141" on="0"/>
      </contour>
    </TTGlyph>
    <TTGlyph name="bracketleft" xMin="83" yMin="-148" xMax="268" yMax="723">
      <contour>
        <pt x="268" y="-137" on="1"/>
        <pt x="228" y="-142" on="0"/>
        <pt x="130" y="-148" on="0"/>
        <pt x="94" y="-147" on="1"/>
        <pt x="83" y="-136" on="1"/>
        <pt x="83" y="711" on="1"/>
        <pt x="94" y="722" on="1"/>
        <pt x="130" y="723" on="0"/>
        <pt x="228" y="717" on="0"/>
        <pt x="268" y="713" on="1"/>
        <pt x="268" y="676" on="1"/>
        <pt x="174" y="668" on="1"/>
        <pt x="164" y="667" on="0"/>
        <pt x="153" y="656" on="0"/>
        <pt x="153" y="646" on="1"/>
        <pt x="153" y="-71" on="1"/>
        <pt x="153" y="-81" on="0"/>
        <pt x="164" y="-92" on="0"/>
        <pt x="174" y="-93" on="1"/>
        <pt x="268" y="-100" on="1"/>
      </contour>
    </TTGlyph>
    <TTGlyph name="bracketright" xMin="21" yMin="-148" xMax="207" yMax="723">
      <contour>
        <pt x="207" y="-136" on="1"/>
        <pt x="195" y="-147" on="1"/>
        <pt x="158" y="-148" on="0"/>
        <pt x="61" y="-142" on="0"/>
        <pt x="21" y="-137" on="1"/>
        <pt x="21" y="-100" on="1"/>
        <pt x="115" y="-93" on="1"/>
        <pt x="125" y="-92" on="0"/>
        <pt x="136" y="-81" on="0"/>
        <pt x="136" y="-71" on="1"/>
        <pt x="136" y="646" on="1"/>
        <pt x="136" y="656" on="0"/>
        <pt x="125" y="667" on="0"/>
        <pt x="115" y="668" on="1"/>
        <pt x="21" y="676" on="1"/>
        <pt x="21" y="713" on="1"/>
        <pt x="61" y="717" on="0"/>
        <pt x="158" y="723" on="0"/>
        <pt x="195" y="722" on="1"/>
        <pt x="207" y="711" on="1"/>
      </contour>
    </TTGlyph>
    <TTGlyph name="breve" xMin="47" yMin="471" xMax="317" yMax="599">
      <component glyphName="uni0306" x="182" y="0" flags="0x4"/>
    </TTGlyph>
    <TTGlyph name="brokenbar" xMin="82" yMin="-110" xMax="146" yMax="689">
      <contour>
        <pt x="82" y="345" on="1"/>
        <pt x="82" y="689" on="1"/>
        <pt x="146" y="689" on="1"/>
        <pt x="146" y="345" on="1"/>
      </contour>
      <contour>
        <pt x="82" y="-110" on="1"/>
        <pt x="82" y="233" on="1"/>
        <pt x="146" y="233" on="1"/>
        <pt x="146" y="-110" on="1"/>
      </contour>
    </TTGlyph>
    <TTGlyph name="bullet" xMin="69" yMin="147" xMax="246" yMax="316">
      <contour>
        <pt x="246" y="231" on="1"/>
        <pt x="246" y="193" on="0"/>
        <pt x="198" y="147" on="0"/>
        <pt x="158" y="147" on="1"/>
        <pt x="118" y="147" on="0"/>
        <pt x="69" y="193" on="0"/>
        <pt x="69" y="231" on="1"/>
        <pt x="69" y="269" on="0"/>
        <pt x="118" y="316" on="0"/>
        <pt x="158" y="316" on="1"/>
        <pt x="198" y="316" on="0"/>
        <pt x="246" y="269" on="0"/>
      </contour>
    </TTGlyph>
    <TTGlyph name="bulletoperator" xMin="110" yMin="165" xMax="226" yMax="281">
      <contour>
        <pt x="226" y="223" on="1"/>
        <pt x="226" y="198" on="0"/>
        <pt x="194" y="165" on="0"/>
        <pt x="168" y="165" on="1"/>
        <pt x="142" y="165" on="0"/>
        <pt x="110" y="198" on="0"/>
        <pt x="110" y="223" on="1"/>
        <pt x="110" y="249" on="0"/>
        <pt x="142" y="281" on="0"/>
        <pt x="168" y="281" on="1"/>
        <pt x="194" y="281" on="0"/>
        <pt x="226" y="249" on="0"/>
      </contour>
    </TTGlyph>
    <TTGlyph name="c" xMin="40" yMin="-8" xMax="373" yMax="425">
      <contour>
        <pt x="40" y="202" on="1"/>
        <pt x="40" y="298" on="0"/>
        <pt x="142" y="425" on="0"/>
        <pt x="241" y="425" on="1"/>
        <pt x="275" y="425" on="0"/>
        <pt x="346" y="409" on="0"/>
        <pt x="368" y="398" on="1"/>
        <pt x="370" y="370" on="0"/>
        <pt x="365" y="304" on="0"/>
        <pt x="361" y="276" on="1"/>
        <pt x="321" y="276" on="1"/>
        <pt x="305" y="337" on="1"/>
        <pt x="303" y="347" on="0"/>
        <pt x="297" y="361" on="0"/>
        <pt x="290" y="367" on="1"/>
        <pt x="281" y="374" on="0"/>
        <pt x="252" y="384" on="0"/>
        <pt x="233" y="384" on="1"/>
        <pt x="182" y="384" on="0"/>
        <pt x="126" y="302" on="0"/>
        <pt x="126" y="219" on="1"/>
        <pt x="126" y="132" on="0"/>
        <pt x="190" y="46" on="0"/>
        <pt x="247" y="46" on="1"/>
        <pt x="281" y="46" on="0"/>
        <pt x="334" y="72" on="0"/>
        <pt x="351" y="90" on="1"/>
        <pt x="373" y="71" on="1"/>
        <pt x="356" y="34" on="0"/>
        <pt x="278" y="-8" on="0"/>
        <pt x="224" y="-8" on="1"/>
        <pt x="133" y="-8" on="0"/>
        <pt x="40" y="111" on="0"/>
      </contour>
    </TTGlyph>
    <TTGlyph name="cacute" xMin="40" yMin="-8" xMax="373" yMax="640">
      <component glyphName="c" x="0" y="0" flags="0x204"/>
      <component glyphName="acutecomb" x="229" y="0" flags="0x4"/>
    </TTGlyph>
    <TTGlyph name="caron" xMin="49" yMin="473" xMax="323" yMax="643">
      <component glyphName="uni030C" x="182" y="0" flags="0x4"/>
    </TTGlyph>
    <TTGlyph name="ccaron" xMin="40" yMin="-8" xMax="373" yMax="643">
      <component glyphName="c" x="0" y="0" flags="0x204"/>
      <component glyphName="uni030C" x="229" y="0" flags="0x4"/>
    </TTGlyph>
    <TTGlyph name="ccedilla" xMin="40" yMin="-188" xMax="373" yMax="425">
      <component glyphName="c" x="0" y="0" flags="0x204"/>
      <component glyphName="uni0327" x="214" y="0" flags="0x4"/>
    </TTGlyph>
    <TTGlyph name="ccircumflex" xMin="40" yMin="-8" xMax="373" yMax="629">
      <component glyphName="c" x="0" y="0" flags="0x204"/>
      <component glyphName="uni0302" x="229" y="0" flags="0x4"/>
    </TTGlyph>
    <TTGlyph name="cdotaccent" xMin="40" yMin="-8" xMax="373" yMax="587">
      <component glyphName="c" x="0" y="0" flags="0x204"/>
      <component glyphName="uni0307" x="229" y="0" flags="0x4"/>
    </TTGlyph>
    <TTGlyph name="cedilla" xMin="111" yMin="-188" xMax="258" yMax="19">
      <component glyphName="uni0327" x="182" y="0" flags="0x4"/>
    </TTGlyph>
    <TTGlyph name="cent" xMin="42" yMin="-76" xMax="384" yMax="513">
      <contour>
        <pt x="383" y="85" on="1"/>
        <pt x="366" y="51" on="0"/>
        <pt x="291" y="9" on="0"/>
        <pt x="246" y="5" on="1"/>
        <pt x="246" y="-76" on="1"/>
        <pt x="193" y="-76" on="1"/>
        <pt x="193" y="6" on="1"/>
        <pt x="121" y="17" on="0"/>
        <pt x="42" y="131" on="0"/>
        <pt x="42" y="215" on="1"/>
        <pt x="42" y="307" on="0"/>
        <pt x="137" y="428" on="0"/>
        <pt x="227" y="436" on="1"/>
        <pt x="227" y="513" on="1"/>
        <pt x="281" y="513" on="1"/>
        <pt x="281" y="436" on="1"/>
        <pt x="311" y="433" on="0"/>
        <pt x="366" y="418" on="0"/>
        <pt x="383" y="410" on="1"/>
        <pt x="384" y="382" on="0"/>
        <pt x="379" y="316" on="0"/>
        <pt x="375" y="288" on="1"/>
        <pt x="335" y="288" on="1"/>
        <pt x="320" y="349" on="1"/>
        <pt x="318" y="359" on="0"/>
        <pt x="312" y="373" on="0"/>
        <pt x="305" y="379" on="1"/>
        <pt x="295" y="386" on="0"/>
        <pt x="262" y="396" on="0"/>
        <pt x="243" y="396" on="1"/>
        <pt x="189" y="396" on="0"/>
        <pt x="128" y="309" on="0"/>
        <pt x="128" y="229" on="1"/>
        <pt x="128" y="146" on="0"/>
        <pt x="193" y="57" on="0"/>
        <pt x="250" y="57" on="1"/>
        <pt x="285" y="57" on="0"/>
        <pt x="343" y="86" on="0"/>
        <pt x="361" y="107" on="1"/>
      </contour>
    </TTGlyph>
    <TTGlyph name="cent.tf" xMin="45" yMin="-76" xMax="387" yMax="513">
      <component glyphName="cent" x="3" y="0" flags="0x4"/>
    </TTGlyph>
    <TTGlyph name="circumflex" xMin="46" yMin="458" xMax="320" yMax="629">
      <component glyphName="uni0302" x="182" y="0" flags="0x4"/>
    </TTGlyph>
    <TTGlyph name="colon" xMin="60" yMin="-8" xMax="167" yMax="404">
      <contour>
        <pt x="167" y="352" on="1"/>
        <pt x="167" y="329" on="0"/>
        <pt x="138" y="300" on="0"/>
        <pt x="114" y="300" on="1"/>
        <pt x="89" y="300" on="0"/>
        <pt x="60" y="329" on="0"/>
        <pt x="60" y="352" on="1"/>
        <pt x="60" y="375" on="0"/>
        <pt x="89" y="404" on="0"/>
        <pt x="114" y="404" on="1"/>
        <pt x="138" y="404" on="0"/>
        <pt x="167" y="375" on="0"/>
      </contour>
      <contour>
        <pt x="167" y="45" on="1"/>
        <pt x="167" y="22" on="0"/>
        <pt x="138" y="-8" on="0"/>
        <pt x="114" y="-8" on="1"/>
        <pt x="89" y="-8" on="0"/>
        <pt x="60" y="22" on="0"/>
        <pt x="60" y="45" on="1"/>
        <pt x="60" y="68" on="0"/>
        <pt x="89" y="97" on="0"/>
        <pt x="114" y="97" on="1"/>
        <pt x="138" y="97" on="0"/>
        <pt x="167" y="68" on="0"/>
      </contour>
    </TTGlyph>
    <TTGlyph name="comma" xMin="41" yMin="-147" xMax="168" yMax="109">
      <contour>
        <pt x="168" y="26" on="1"/>
        <pt x="168" y="-28" on="0"/>
        <pt x="105" y="-119" on="0"/>
        <pt x="58" y="-147" on="1"/>
        <pt x="41" y="-124" on="1"/>
        <pt x="70" y="-98" on="0"/>
        <pt x="102" y="-43" on="0"/>
        <pt x="102" y="-18" on="1"/>
        <pt x="102" y="-5" on="0"/>
        <pt x="91" y="6" on="0"/>
        <pt x="83" y="10" on="1"/>
        <pt x="73" y="17" on="0"/>
        <pt x="54" y="39" on="0"/>
        <pt x="54" y="58" on="1"/>
        <pt x="54" y="79" on="0"/>
        <pt x="83" y="109" on="0"/>
        <pt x="106" y="109" on="1"/>
        <pt x="131" y="109" on="0"/>
        <pt x="168" y="67" on="0"/>
      </contour>
    </TTGlyph>
    <TTGlyph name="copyright" xMin="42" yMin="-40" xMax="686" yMax="609">
      <contour>
        <pt x="42" y="285" on="1"/>
        <pt x="42" y="354" on="0"/>
        <pt x="91" y="473" on="0"/>
        <pt x="177" y="560" on="0"/>
        <pt x="295" y="609" on="0"/>
        <pt x="364" y="609" on="1"/>
        <pt x="433" y="609" on="0"/>
        <pt x="552" y="560" on="0"/>
        <pt x="637" y="473" on="0"/>
        <pt x="686" y="354" on="0"/>
        <pt x="686" y="285" on="1"/>
        <pt x="686" y="216" on="0"/>
        <pt x="637" y="96" on="0"/>
        <pt x="551" y="9" on="0"/>
        <pt x="433" y="-40" on="0"/>
        <pt x="364" y="-40" on="1"/>
        <pt x="295" y="-40" on="0"/>
        <pt x="177" y="9" on="0"/>
        <pt x="91" y="96" on="0"/>
        <pt x="42" y="216" on="0"/>
      </contour>
      <contour>
        <pt x="88" y="285" on="1"/>
        <pt x="88" y="161" on="0"/>
        <pt x="244" y="0" on="0"/>
        <pt x="364" y="0" on="1"/>
        <pt x="484" y="0" on="0"/>
        <pt x="641" y="161" on="0"/>
        <pt x="641" y="285" on="1"/>
        <pt x="641" y="409" on="0"/>
        <pt x="484" y="571" on="0"/>
        <pt x="364" y="571" on="1"/>
        <pt x="244" y="571" on="0"/>
        <pt x="88" y="409" on="0"/>
      </contour>
      <contour>
        <pt x="362" y="104" on="1"/>
        <pt x="287" y="104" on="0"/>
        <pt x="204" y="204" on="0"/>
        <pt x="204" y="282" on="1"/>
        <pt x="204" y="369" on="0"/>
        <pt x="301" y="467" on="0"/>
        <pt x="378" y="467" on="1"/>
        <pt x="412" y="467" on="0"/>
        <pt x="476" y="449" on="0"/>
        <pt x="490" y="439" on="1"/>
        <pt x="491" y="416" on="0"/>
        <pt x="488" y="363" on="0"/>
        <pt x="484" y="336" on="1"/>
        <pt x="445" y="336" on="1"/>
        <pt x="432" y="389" on="1"/>
        <pt x="431" y="395" on="0"/>
        <pt x="425" y="407" on="0"/>
        <pt x="417" y="412" on="1"/>
        <pt x="407" y="419" on="0"/>
        <pt x="381" y="426" on="0"/>
        <pt x="367" y="426" on="1"/>
        <pt x="322" y="426" on="0"/>
        <pt x="276" y="356" on="0"/>
        <pt x="276" y="294" on="1"/>
        <pt x="276" y="228" on="0"/>
        <pt x="330" y="156" on="0"/>
        <pt x="381" y="156" on="1"/>
        <pt x="409" y="156" on="0"/>
        <pt x="459" y="176" on="0"/>
        <pt x="473" y="192" on="1"/>
        <pt x="493" y="172" on="1"/>
        <pt x="478" y="143" on="0"/>
        <pt x="411" y="104" on="0"/>
      </contour>
    </TTGlyph>
    <TTGlyph name="currency" xMin="49" yMin="65" xMax="464" yMax="497">
      <contour>
        <pt x="256" y="175" on="1"/>
        <pt x="306" y="175" on="0"/>
        <pt x="355" y="237" on="0"/>
        <pt x="355" y="280" on="1"/>
        <pt x="355" y="324" on="0"/>
        <pt x="295" y="387" on="0"/>
        <pt x="254" y="387" on="1"/>
        <pt x="206" y="387" on="0"/>
        <pt x="157" y="321" on="0"/>
        <pt x="157" y="279" on="1"/>
        <pt x="157" y="236" on="0"/>
        <pt x="215" y="175" on="0"/>
      </contour>
      <contour>
        <pt x="256" y="119" on="1"/>
        <pt x="231" y="119" on="0"/>
        <pt x="187" y="132" on="0"/>
        <pt x="168" y="144" on="1"/>
        <pt x="89" y="65" on="1"/>
        <pt x="49" y="106" on="1"/>
        <pt x="126" y="183" on="1"/>
        <pt x="113" y="202" on="0"/>
        <pt x="97" y="250" on="0"/>
        <pt x="97" y="277" on="1"/>
        <pt x="97" y="305" on="0"/>
        <pt x="113" y="356" on="0"/>
        <pt x="128" y="377" on="1"/>
        <pt x="49" y="456" on="1"/>
        <pt x="89" y="496" on="1"/>
        <pt x="169" y="417" on="1"/>
        <pt x="188" y="430" on="0"/>
        <pt x="231" y="444" on="0"/>
        <pt x="256" y="444" on="1"/>
        <pt x="281" y="444" on="0"/>
        <pt x="326" y="431" on="0"/>
        <pt x="345" y="419" on="1"/>
        <pt x="424" y="497" on="1"/>
        <pt x="464" y="457" on="1"/>
        <pt x="387" y="380" on="1"/>
        <pt x="402" y="361" on="0"/>
        <pt x="418" y="312" on="0"/>
        <pt x="418" y="285" on="1"/>
        <pt x="418" y="257" on="0"/>
        <pt x="401" y="206" on="0"/>
        <pt x="385" y="185" on="1"/>
        <pt x="463" y="107" on="1"/>
        <pt x="423" y="67" on="1"/>
        <pt x="344" y="145" on="1"/>
        <pt x="325" y="133" on="0"/>
        <pt x="280" y="119" on="0"/>
      </contour>
    </TTGlyph>
    <TTGlyph name="d" xMin="41" yMin="-8" xMax="468" yMax="654">
      <contour>
        <pt x="233" y="45" on="1"/>
        <pt x="261" y="45" on="0"/>
        <pt x="308" y="63" on="0"/>
        <pt x="327" y="78" on="1"/>
        <pt x="327" y="364" on="1"/>
        <pt x="314" y="371" on="0"/>
        <pt x="272" y="383" on="0"/>
        <pt x="249" y="383" on="1"/>
        <pt x="198" y="383" on="0"/>
        <pt x="126" y="308" on="0"/>
        <pt x="125" y="208" on="1"/>
        <pt x="125" y="113" on="0"/>
        <pt x="190" y="45" on="0"/>
      </contour>
      <contour>
        <pt x="398" y="-6" on="1"/>
        <pt x="368" y="-6" on="0"/>
        <pt x="337" y="25" on="0"/>
        <pt x="330" y="48" on="1"/>
        <pt x="309" y="25" on="0"/>
        <pt x="247" y="-8" on="0"/>
        <pt x="205" y="-8" on="1"/>
        <pt x="139" y="-8" on="0"/>
        <pt x="41" y="89" on="0"/>
        <pt x="41" y="196" on="1"/>
        <pt x="41" y="312" on="0"/>
        <pt x="159" y="425" on="0"/>
        <pt x="253" y="425" on="1"/>
        <pt x="273" y="425" on="0"/>
        <pt x="312" y="420" on="0"/>
        <pt x="327" y="416" on="1"/>
        <pt x="327" y="570" on="1"/>
        <pt x="327" y="580" on="0"/>
        <pt x="317" y="591" on="0"/>
        <pt x="308" y="592" on="1"/>
        <pt x="252" y="600" on="1"/>
        <pt x="252" y="633" on="1"/>
        <pt x="283" y="643" on="0"/>
        <pt x="362" y="653" on="0"/>
        <pt x="393" y="654" on="1"/>
        <pt x="405" y="642" on="1"/>
        <pt x="405" y="69" on="1"/>
        <pt x="405" y="56" on="0"/>
        <pt x="416" y="46" on="0"/>
        <pt x="426" y="45" on="1"/>
        <pt x="468" y="41" on="1"/>
        <pt x="468" y="7" on="1"/>
        <pt x="455" y="3" on="0"/>
        <pt x="415" y="-6" on="0"/>
      </contour>
    </TTGlyph>
    <TTGlyph name="dagger" xMin="28" yMin="-90" xMax="322" yMax="605">
      <contour>
        <pt x="194" y="-90" on="1"/>
        <pt x="156" y="-90" on="1"/>
        <pt x="140" y="363" on="1"/>
        <pt x="139" y="370" on="1"/>
        <pt x="138" y="380" on="0"/>
        <pt x="127" y="389" on="0"/>
        <pt x="117" y="391" on="1"/>
        <pt x="28" y="410" on="1"/>
        <pt x="28" y="451" on="1"/>
        <pt x="137" y="447" on="1"/>
        <pt x="133" y="546" on="1"/>
        <pt x="133" y="605" on="1"/>
        <pt x="217" y="605" on="1"/>
        <pt x="217" y="546" on="1"/>
        <pt x="213" y="447" on="1"/>
        <pt x="322" y="451" on="1"/>
        <pt x="322" y="410" on="1"/>
        <pt x="232" y="391" on="1"/>
        <pt x="222" y="389" on="0"/>
        <pt x="211" y="381" on="0"/>
        <pt x="211" y="374" on="1"/>
      </contour>
    </TTGlyph>
    <TTGlyph name="daggerdbl" xMin="35" yMin="-91" xMax="329" yMax="605">
      <contour>
        <pt x="201" y="-91" on="1"/>
        <pt x="163" y="-90" on="1"/>
        <pt x="152" y="191" on="1"/>
        <pt x="152" y="193" on="1"/>
        <pt x="151" y="203" on="0"/>
        <pt x="141" y="212" on="0"/>
        <pt x="130" y="214" on="1"/>
        <pt x="35" y="234" on="1"/>
        <pt x="35" y="275" on="1"/>
        <pt x="149" y="271" on="1"/>
        <pt x="146" y="373" on="1"/>
        <pt x="145" y="381" on="0"/>
        <pt x="134" y="389" on="0"/>
        <pt x="124" y="391" on="1"/>
        <pt x="35" y="410" on="1"/>
        <pt x="35" y="451" on="1"/>
        <pt x="143" y="447" on="1"/>
        <pt x="139" y="546" on="1"/>
        <pt x="139" y="605" on="1"/>
        <pt x="224" y="605" on="1"/>
        <pt x="224" y="546" on="1"/>
        <pt x="220" y="447" on="1"/>
        <pt x="329" y="451" on="1"/>
        <pt x="329" y="410" on="1"/>
        <pt x="239" y="391" on="1"/>
        <pt x="229" y="389" on="0"/>
        <pt x="219" y="380" on="0"/>
        <pt x="218" y="370" on="1"/>
        <pt x="218" y="368" on="1"/>
        <pt x="214" y="271" on="1"/>
        <pt x="329" y="275" on="1"/>
        <pt x="329" y="234" on="1"/>
        <pt x="233" y="214" on="1"/>
        <pt x="222" y="212" on="0"/>
        <pt x="212" y="203" on="0"/>
        <pt x="211" y="195" on="1"/>
      </contour>
    </TTGlyph>
    <TTGlyph name="dcaron" xMin="41" yMin="-8" xMax="543" yMax="684">
      <component glyphName="d" x="0" y="0" flags="0x204"/>
      <component glyphName="uni030C.calt" x="405" y="0" flags="0x4"/>
    </TTGlyph>
    <TTGlyph name="dcroat" xMin="41" yMin="-8" xMax="468" yMax="654">
      <contour>
        <pt x="233" y="45" on="1"/>
        <pt x="261" y="45" on="0"/>
        <pt x="308" y="63" on="0"/>
        <pt x="327" y="78" on="1"/>
        <pt x="327" y="353" on="1"/>
        <pt x="314" y="360" on="0"/>
        <pt x="272" y="372" on="0"/>
        <pt x="249" y="372" on="1"/>
        <pt x="198" y="372" on="0"/>
        <pt x="126" y="300" on="0"/>
        <pt x="125" y="204" on="1"/>
        <pt x="125" y="112" on="0"/>
        <pt x="190" y="45" on="0"/>
      </contour>
      <contour>
        <pt x="398" y="-6" on="1"/>
        <pt x="368" y="-6" on="0"/>
        <pt x="337" y="25" on="0"/>
        <pt x="330" y="48" on="1"/>
        <pt x="309" y="25" on="0"/>
        <pt x="247" y="-8" on="0"/>
        <pt x="205" y="-8" on="1"/>
        <pt x="139" y="-8" on="0"/>
        <pt x="41" y="86" on="0"/>
        <pt x="41" y="192" on="1"/>
        <pt x="41" y="304" on="0"/>
        <pt x="159" y="414" on="0"/>
        <pt x="253" y="414" on="1"/>
        <pt x="273" y="414" on="0"/>
        <pt x="312" y="409" on="0"/>
        <pt x="327" y="405" on="1"/>
        <pt x="327" y="481" on="1"/>
        <pt x="196" y="481" on="1"/>
        <pt x="196" y="524" on="1"/>
        <pt x="327" y="524" on="1"/>
        <pt x="327" y="570" on="1"/>
        <pt x="327" y="580" on="0"/>
        <pt x="317" y="591" on="0"/>
        <pt x="308" y="592" on="1"/>
        <pt x="252" y="600" on="1"/>
        <pt x="252" y="633" on="1"/>
        <pt x="283" y="643" on="0"/>
        <pt x="362" y="653" on="0"/>
        <pt x="393" y="654" on="1"/>
        <pt x="405" y="642" on="1"/>
        <pt x="405" y="524" on="1"/>
        <pt x="457" y="524" on="1"/>
        <pt x="457" y="481" on="1"/>
        <pt x="405" y="481" on="1"/>
        <pt x="405" y="69" on="1"/>
        <pt x="405" y="56" on="0"/>
        <pt x="416" y="46" on="0"/>
        <pt x="426" y="45" on="1"/>
        <pt x="468" y="41" on="1"/>
        <pt x="468" y="7" on="1"/>
        <pt x="455" y="3" on="0"/>
        <pt x="415" y="-6" on="0"/>
      </contour>
    </TTGlyph>
    <TTGlyph name="degree" xMin="40" yMin="343" xMax="297" yMax="598">
      <contour>
        <pt x="168" y="343" on="1"/>
        <pt x="116" y="343" on="0"/>
        <pt x="40" y="418" on="0"/>
        <pt x="40" y="470" on="1"/>
        <pt x="40" y="524" on="0"/>
        <pt x="116" y="598" on="0"/>
        <pt x="168" y="598" on="1"/>
        <pt x="224" y="598" on="0"/>
        <pt x="297" y="522" on="0"/>
        <pt x="297" y="470" on="1"/>
        <pt x="297" y="416" on="0"/>
        <pt x="222" y="343" on="0"/>
      </contour>
      <contour>
        <pt x="169" y="390" on="1"/>
        <pt x="203" y="390" on="0"/>
        <pt x="245" y="435" on="0"/>
        <pt x="245" y="470" on="1"/>
        <pt x="245" y="503" on="0"/>
        <pt x="201" y="550" on="0"/>
        <pt x="168" y="550" on="1"/>
        <pt x="134" y="550" on="0"/>
        <pt x="91" y="504" on="0"/>
        <pt x="91" y="470" on="1"/>
        <pt x="91" y="438" on="0"/>
        <pt x="137" y="390" on="0"/>
      </contour>
    </TTGlyph>
    <TTGlyph name="dieresis" xMin="54" yMin="484" xMax="309" yMax="580">
      <component glyphName="uni0308" x="182" y="0" flags="0x4"/>
    </TTGlyph>
    <TTGlyph name="divide" xMin="56" yMin="49" xMax="388" yMax="399">
      <contour>
        <pt x="269" y="354" on="1"/>
        <pt x="269" y="334" on="0"/>
        <pt x="242" y="309" on="0"/>
        <pt x="221" y="309" on="1"/>
        <pt x="200" y="309" on="0"/>
        <pt x="175" y="334" on="0"/>
        <pt x="175" y="354" on="1"/>
        <pt x="175" y="374" on="0"/>
        <pt x="200" y="399" on="0"/>
        <pt x="221" y="399" on="1"/>
        <pt x="242" y="399" on="0"/>
        <pt x="269" y="374" on="0"/>
      </contour>
      <contour>
        <pt x="388" y="197" on="1"/>
        <pt x="56" y="197" on="1"/>
        <pt x="56" y="251" on="1"/>
        <pt x="388" y="251" on="1"/>
      </contour>
      <contour>
        <pt x="269" y="94" on="1"/>
        <pt x="269" y="75" on="0"/>
        <pt x="242" y="49" on="0"/>
        <pt x="221" y="49" on="1"/>
        <pt x="200" y="49" on="0"/>
        <pt x="175" y="75" on="0"/>
        <pt x="175" y="94" on="1"/>
        <pt x="175" y="114" on="0"/>
        <pt x="200" y="140" on="0"/>
        <pt x="221" y="140" on="1"/>
        <pt x="242" y="140" on="0"/>
        <pt x="269" y="114" on="0"/>
      </contour>
    </TTGlyph>
    <TTGlyph name="dollar" xMin="42" yMin="-76" xMax="389" yMax="577">
      <contour>
        <pt x="228" y="-76" on="1"/>
        <pt x="175" y="-76" on="1"/>
        <pt x="175" y="7" on="1"/>
        <pt x="133" y="11" on="0"/>
        <pt x="64" y="35" on="0"/>
        <pt x="43" y="47" on="1"/>
        <pt x="42" y="77" on="0"/>
        <pt x="46" y="140" on="0"/>
        <pt x="50" y="170" on="1"/>
        <pt x="99" y="170" on="1"/>
        <pt x="111" y="101" on="1"/>
        <pt x="112" y="96" on="0"/>
        <pt x="118" y="85" on="0"/>
        <pt x="123" y="80" on="1"/>
        <pt x="134" y="68" on="0"/>
        <pt x="182" y="47" on="0"/>
        <pt x="216" y="47" on="1"/>
        <pt x="261" y="47" on="0"/>
        <pt x="309" y="90" on="0"/>
        <pt x="309" y="122" on="1"/>
        <pt x="309" y="158" on="0"/>
        <pt x="248" y="199" on="0"/>
        <pt x="194" y="224" on="1"/>
        <pt x="142" y="247" on="0"/>
        <pt x="52" y="310" on="0"/>
        <pt x="52" y="368" on="1"/>
        <pt x="52" y="418" on="0"/>
        <pt x="128" y="489" on="0"/>
        <pt x="200" y="494" on="1"/>
        <pt x="200" y="577" on="1"/>
        <pt x="254" y="577" on="1"/>
        <pt x="254" y="494" on="1"/>
        <pt x="283" y="492" on="0"/>
        <pt x="339" y="479" on="0"/>
        <pt x="360" y="469" on="1"/>
        <pt x="362" y="438" on="0"/>
        <pt x="359" y="380" on="0"/>
        <pt x="355" y="352" on="1"/>
        <pt x="308" y="351" on="1"/>
        <pt x="295" y="413" on="1"/>
        <pt x="294" y="418" on="0"/>
        <pt x="288" y="429" on="0"/>
        <pt x="281" y="434" on="1"/>
        <pt x="271" y="442" on="0"/>
        <pt x="234" y="455" on="0"/>
        <pt x="209" y="455" on="1"/>
        <pt x="166" y="455" on="0"/>
        <pt x="126" y="418" on="0"/>
        <pt x="126" y="390" on="1"/>
        <pt x="126" y="354" on="0"/>
        <pt x="190" y="313" on="0"/>
        <pt x="245" y="288" on="1"/>
        <pt x="308" y="259" on="0"/>
        <pt x="389" y="196" on="0"/>
        <pt x="389" y="145" on="1"/>
        <pt x="389" y="97" on="0"/>
        <pt x="309" y="13" on="0"/>
        <pt x="228" y="7" on="1"/>
      </contour>
    </TTGlyph>
    <TTGlyph name="dollar.tf" xMin="48" yMin="-76" xMax="395" yMax="577">
      <component glyphName="dollar" x="6" y="0" flags="0x4"/>
    </TTGlyph>
    <TTGlyph name="dotaccent" xMin="135" yMin="483" xMax="243" yMax="587">
      <component glyphName="uni0307" x="182" y="0" flags="0x4"/>
    </TTGlyph>
    <TTGlyph name="dotlessi" xMin="30" yMin="0" xMax="242" yMax="423">
      <contour>
        <pt x="178" y="411" on="1"/>
        <pt x="178" y="67" on="1"/>
        <pt x="178" y="57" on="0"/>
        <pt x="188" y="45" on="0"/>
        <pt x="198" y="44" on="1"/>
        <pt x="242" y="37" on="1"/>
        <pt x="242" y="0" on="1"/>
        <pt x="36" y="0" on="1"/>
        <pt x="36" y="37" on="1"/>
        <pt x="80" y="44" on="1"/>
        <pt x="90" y="45" on="0"/>
        <pt x="100" y="57" on="0"/>
        <pt x="100" y="67" on="1"/>
        <pt x="100" y="338" on="1"/>
        <pt x="100" y="347" on="0"/>
        <pt x="91" y="359" on="0"/>
        <pt x="81" y="360" on="1"/>
        <pt x="30" y="367" on="1"/>
        <pt x="30" y="403" on="1"/>
        <pt x="62" y="413" on="0"/>
        <pt x="136" y="422" on="0"/>
        <pt x="167" y="423" on="1"/>
      </contour>
    </TTGlyph>
    <TTGlyph name="dotlessiogonek" xMin="30" yMin="-188" xMax="242" yMax="423">
      <contour>
        <pt x="225" y="-160" on="1"/>
        <pt x="207" y="-173" on="0"/>
        <pt x="156" y="-188" on="0"/>
        <pt x="131" y="-188" on="1"/>
        <pt x="94" y="-187" on="0"/>
        <pt x="40" y="-153" on="0"/>
        <pt x="40" y="-117" on="1"/>
        <pt x="40" y="-79" on="0"/>
        <pt x="102" y="-18" on="0"/>
        <pt x="141" y="-2" on="1"/>
        <pt x="141" y="0" on="1"/>
        <pt x="36" y="0" on="1"/>
        <pt x="36" y="37" on="1"/>
        <pt x="80" y="44" on="1"/>
        <pt x="90" y="45" on="0"/>
        <pt x="100" y="57" on="0"/>
        <pt x="100" y="67" on="1"/>
        <pt x="100" y="338" on="1"/>
        <pt x="100" y="347" on="0"/>
        <pt x="91" y="359" on="0"/>
        <pt x="81" y="360" on="1"/>
        <pt x="30" y="367" on="1"/>
        <pt x="30" y="403" on="1"/>
        <pt x="62" y="413" on="0"/>
        <pt x="136" y="422" on="0"/>
        <pt x="167" y="423" on="1"/>
        <pt x="178" y="411" on="1"/>
        <pt x="178" y="67" on="1"/>
        <pt x="178" y="57" on="0"/>
        <pt x="188" y="45" on="0"/>
        <pt x="198" y="44" on="1"/>
        <pt x="242" y="37" on="1"/>
        <pt x="242" y="0" on="1"/>
        <pt x="202" y="0" on="1"/>
        <pt x="163" y="-16" on="0"/>
        <pt x="110" y="-68" on="0"/>
        <pt x="110" y="-96" on="1"/>
        <pt x="110" y="-118" on="0"/>
        <pt x="139" y="-139" on="0"/>
        <pt x="161" y="-139" on="1"/>
        <pt x="173" y="-139" on="0"/>
        <pt x="199" y="-133" on="0"/>
        <pt x="211" y="-127" on="1"/>
      </contour>
    </TTGlyph>
    <TTGlyph name="dotlessj" xMin="-17" yMin="-194" xMax="169" yMax="423">
      <contour>
        <pt x="158" y="423" on="1"/>
        <pt x="169" y="411" on="1"/>
        <pt x="169" y="44" on="1"/>
        <pt x="169" y="-34" on="0"/>
        <pt x="144" y="-110" on="0"/>
        <pt x="112" y="-137" on="1"/>
        <pt x="90" y="-156" on="0"/>
        <pt x="31" y="-184" on="0"/>
        <pt x="1" y="-194" on="1"/>
        <pt x="-17" y="-158" on="1"/>
        <pt x="48" y="-117" on="0"/>
        <pt x="92" y="-36" on="0"/>
        <pt x="92" y="44" on="1"/>
        <pt x="92" y="338" on="1"/>
        <pt x="92" y="347" on="0"/>
        <pt x="82" y="359" on="0"/>
        <pt x="73" y="360" on="1"/>
        <pt x="22" y="367" on="1"/>
        <pt x="22" y="403" on="1"/>
        <pt x="53" y="413" on="0"/>
        <pt x="127" y="422" on="0"/>
      </contour>
    </TTGlyph>
    <TTGlyph name="e" xMin="41" yMin="-8" xMax="387" yMax="425">
      <contour>
        <pt x="224" y="384" on="1"/>
        <pt x="185" y="384" on="0"/>
        <pt x="133" y="329" on="0"/>
        <pt x="126" y="269" on="1"/>
        <pt x="308" y="269" on="1"/>
        <pt x="309" y="274" on="0"/>
        <pt x="310" y="282" on="0"/>
        <pt x="310" y="287" on="1"/>
        <pt x="310" y="330" on="0"/>
        <pt x="265" y="384" on="0"/>
      </contour>
      <contour>
        <pt x="385" y="90" on="1"/>
        <pt x="372" y="46" on="0"/>
        <pt x="287" y="-8" on="0"/>
        <pt x="224" y="-8" on="1"/>
        <pt x="131" y="-8" on="0"/>
        <pt x="41" y="111" on="0"/>
        <pt x="41" y="203" on="1"/>
        <pt x="41" y="307" on="0"/>
        <pt x="147" y="425" on="0"/>
        <pt x="235" y="425" on="1"/>
        <pt x="302" y="425" on="0"/>
        <pt x="387" y="352" on="0"/>
        <pt x="387" y="282" on="1"/>
        <pt x="387" y="272" on="0"/>
        <pt x="385" y="243" on="0"/>
        <pt x="383" y="231" on="1"/>
        <pt x="123" y="231" on="1"/>
        <pt x="123" y="229" on="0"/>
        <pt x="123" y="223" on="0"/>
        <pt x="123" y="220" on="1"/>
        <pt x="123" y="122" on="0"/>
        <pt x="193" y="46" on="0"/>
        <pt x="246" y="46" on="1"/>
        <pt x="281" y="46" on="0"/>
        <pt x="342" y="77" on="0"/>
        <pt x="360" y="105" on="1"/>
      </contour>
    </TTGlyph>
    <TTGlyph name="eacute" xMin="41" yMin="-8" xMax="387" yMax="640">
      <component glyphName="e" x="0" y="0" flags="0x204"/>
      <component glyphName="acutecomb" x="225" y="0" flags="0x4"/>
    </TTGlyph>
    <TTGlyph name="ebreve" xMin="41" yMin="-8" xMax="387" yMax="599">
      <component glyphName="e" x="0" y="0" flags="0x204"/>
      <component glyphName="uni0306" x="225" y="0" flags="0x4"/>
    </TTGlyph>
    <TTGlyph name="ecaron" xMin="41" yMin="-8" xMax="387" yMax="643">
      <component glyphName="e" x="0" y="0" flags="0x204"/>
      <component glyphName="uni030C" x="225" y="0" flags="0x4"/>
    </TTGlyph>
    <TTGlyph name="ecircumflex" xMin="41" yMin="-8" xMax="387" yMax="629">
      <component glyphName="e" x="0" y="0" flags="0x204"/>
      <component glyphName="uni0302" x="225" y="0" flags="0x4"/>
    </TTGlyph>
    <TTGlyph name="edieresis" xMin="41" yMin="-8" xMax="387" yMax="580">
      <component glyphName="e" x="0" y="0" flags="0x204"/>
      <component glyphName="uni0308" x="225" y="0" flags="0x4"/>
    </TTGlyph>
    <TTGlyph name="edotaccent" xMin="41" yMin="-8" xMax="387" yMax="587">
      <component glyphName="e" x="0" y="0" flags="0x204"/>
      <component glyphName="uni0307" x="225" y="0" flags="0x4"/>
    </TTGlyph>
    <TTGlyph name="egrave" xMin="41" yMin="-8" xMax="387" yMax="640">
      <component glyphName="e" x="0" y="0" flags="0x204"/>
      <component glyphName="gravecomb" x="225" y="0" flags="0x4"/>
    </TTGlyph>
    <TTGlyph name="eight" xMin="44" yMin="-9" xMax="418" yMax="509">
      <contour>
        <pt x="229" y="-9" on="1"/>
        <pt x="151" y="-9" on="0"/>
        <pt x="44" y="62" on="0"/>
        <pt x="44" y="125" on="1"/>
        <pt x="44" y="171" on="0"/>
        <pt x="103" y="241" on="0"/>
        <pt x="152" y="258" on="1"/>
        <pt x="118" y="278" on="0"/>
        <pt x="71" y="336" on="0"/>
        <pt x="71" y="379" on="1"/>
        <pt x="71" y="436" on="0"/>
        <pt x="164" y="509" on="0"/>
        <pt x="236" y="509" on="1"/>
        <pt x="305" y="509" on="0"/>
        <pt x="396" y="444" on="0"/>
        <pt x="396" y="393" on="1"/>
        <pt x="396" y="353" on="0"/>
        <pt x="340" y="286" on="0"/>
        <pt x="298" y="270" on="1"/>
        <pt x="347" y="245" on="0"/>
        <pt x="418" y="183" on="0"/>
        <pt x="418" y="131" on="1"/>
        <pt x="418" y="67" on="0"/>
        <pt x="311" y="-9" on="0"/>
      </contour>
      <contour>
        <pt x="144" y="397" on="1"/>
        <pt x="144" y="357" on="0"/>
        <pt x="212" y="311" on="0"/>
        <pt x="258" y="289" on="1"/>
        <pt x="290" y="307" on="0"/>
        <pt x="322" y="356" on="0"/>
        <pt x="322" y="385" on="1"/>
        <pt x="322" y="425" on="0"/>
        <pt x="272" y="469" on="0"/>
        <pt x="231" y="469" on="1"/>
        <pt x="189" y="469" on="0"/>
        <pt x="144" y="427" on="0"/>
      </contour>
      <contour>
        <pt x="234" y="33" on="1"/>
        <pt x="280" y="33" on="0"/>
        <pt x="334" y="78" on="0"/>
        <pt x="334" y="115" on="1"/>
        <pt x="334" y="159" on="0"/>
        <pt x="264" y="203" on="0"/>
        <pt x="218" y="224" on="1"/>
        <pt x="211" y="227" on="0"/>
        <pt x="195" y="234" on="0"/>
        <pt x="188" y="238" on="1"/>
        <pt x="154" y="219" on="0"/>
        <pt x="122" y="164" on="0"/>
        <pt x="122" y="132" on="1"/>
        <pt x="122" y="82" on="0"/>
        <pt x="189" y="33" on="0"/>
      </contour>
    </TTGlyph>
    <TTGlyph name="eight.tf" xMin="31" yMin="-9" xMax="405" yMax="509">
      <component glyphName="eight" x="-13" y="0" flags="0x4"/>
    </TTGlyph>
    <TTGlyph name="ellipsis" xMin="52" yMin="-8" xMax="582" yMax="97">
      <contour>
        <pt x="159" y="45" on="1"/>
        <pt x="159" y="22" on="0"/>
        <pt x="130" y="-8" on="0"/>
        <pt x="106" y="-8" on="1"/>
        <pt x="82" y="-8" on="0"/>
        <pt x="52" y="22" on="0"/>
        <pt x="52" y="45" on="1"/>
        <pt x="52" y="68" on="0"/>
        <pt x="82" y="97" on="0"/>
        <pt x="106" y="97" on="1"/>
        <pt x="130" y="97" on="0"/>
        <pt x="159" y="68" on="0"/>
      </contour>
      <contour>
        <pt x="582" y="45" on="1"/>
        <pt x="582" y="22" on="0"/>
        <pt x="552" y="-8" on="0"/>
        <pt x="528" y="-8" on="1"/>
        <pt x="504" y="-8" on="0"/>
        <pt x="474" y="22" on="0"/>
        <pt x="474" y="45" on="1"/>
        <pt x="474" y="68" on="0"/>
        <pt x="504" y="97" on="0"/>
        <pt x="528" y="97" on="1"/>
        <pt x="552" y="97" on="0"/>
        <pt x="582" y="68" on="0"/>
      </contour>
      <contour>
        <pt x="370" y="45" on="1"/>
        <pt x="370" y="22" on="0"/>
        <pt x="341" y="-8" on="0"/>
        <pt x="317" y="-8" on="1"/>
        <pt x="293" y="-8" on="0"/>
        <pt x="263" y="22" on="0"/>
        <pt x="263" y="45" on="1"/>
        <pt x="263" y="68" on="0"/>
        <pt x="293" y="97" on="0"/>
        <pt x="317" y="97" on="1"/>
        <pt x="341" y="97" on="0"/>
        <pt x="370" y="68" on="0"/>
      </contour>
    </TTGlyph>
    <TTGlyph name="emacron" xMin="41" yMin="-8" xMax="387" yMax="548">
      <component glyphName="e" x="0" y="0" flags="0x204"/>
      <component glyphName="uni0304" x="225" y="0" flags="0x4"/>
    </TTGlyph>
    <TTGlyph name="emdash" xMin="59" yMin="189" xMax="752" yMax="244">
      <contour>
        <pt x="59" y="189" on="1"/>
        <pt x="59" y="244" on="1"/>
        <pt x="752" y="244" on="1"/>
        <pt x="752" y="189" on="1"/>
      </contour>
    </TTGlyph>
    <TTGlyph name="endash" xMin="59" yMin="188" xMax="482" yMax="244">
      <contour>
        <pt x="59" y="188" on="1"/>
        <pt x="59" y="244" on="1"/>
        <pt x="482" y="244" on="1"/>
        <pt x="482" y="188" on="1"/>
      </contour>
    </TTGlyph>
    <TTGlyph name="eng" xMin="30" yMin="-183" xMax="445" yMax="423">
      <contour>
        <pt x="308" y="-183" on="1"/>
        <pt x="298" y="-183" on="0"/>
        <pt x="274" y="-182" on="0"/>
        <pt x="264" y="-181" on="1"/>
        <pt x="261" y="-143" on="1"/>
        <pt x="280" y="-139" on="0"/>
        <pt x="325" y="-127" on="0"/>
        <pt x="340" y="-111" on="1"/>
        <pt x="354" y="-95" on="0"/>
        <pt x="366" y="-33" on="0"/>
        <pt x="366" y="21" on="1"/>
        <pt x="366" y="250" on="1"/>
        <pt x="366" y="310" on="0"/>
        <pt x="333" y="369" on="0"/>
        <pt x="284" y="369" on="1"/>
        <pt x="257" y="369" on="0"/>
        <pt x="202" y="351" on="0"/>
        <pt x="178" y="333" on="1"/>
        <pt x="178" y="67" on="1"/>
        <pt x="178" y="57" on="0"/>
        <pt x="188" y="46" on="0"/>
        <pt x="197" y="44" on="1"/>
        <pt x="238" y="37" on="1"/>
        <pt x="238" y="0" on="1"/>
        <pt x="36" y="0" on="1"/>
        <pt x="36" y="37" on="1"/>
        <pt x="80" y="44" on="1"/>
        <pt x="90" y="45" on="0"/>
        <pt x="100" y="57" on="0"/>
        <pt x="100" y="67" on="1"/>
        <pt x="100" y="338" on="1"/>
        <pt x="100" y="347" on="0"/>
        <pt x="91" y="359" on="0"/>
        <pt x="81" y="360" on="1"/>
        <pt x="30" y="367" on="1"/>
        <pt x="30" y="403" on="1"/>
        <pt x="60" y="412" on="0"/>
        <pt x="128" y="422" on="0"/>
        <pt x="156" y="423" on="1"/>
        <pt x="170" y="410" on="1"/>
        <pt x="175" y="365" on="1"/>
        <pt x="206" y="397" on="0"/>
        <pt x="281" y="423" on="0"/>
        <pt x="318" y="423" on="1"/>
        <pt x="391" y="423" on="0"/>
        <pt x="445" y="340" on="0"/>
        <pt x="445" y="264" on="1"/>
        <pt x="445" y="5" on="1"/>
        <pt x="445" y="-86" on="0"/>
        <pt x="382" y="-183" on="0"/>
      </contour>
    </TTGlyph>
    <TTGlyph name="eogonek" xMin="41" yMin="-188" xMax="387" yMax="425">
      <contour>
        <pt x="224" y="382" on="1"/>
        <pt x="185" y="382" on="0"/>
        <pt x="133" y="329" on="0"/>
        <pt x="126" y="269" on="1"/>
        <pt x="308" y="269" on="1"/>
        <pt x="309" y="274" on="0"/>
        <pt x="310" y="282" on="0"/>
        <pt x="310" y="287" on="1"/>
        <pt x="310" y="330" on="0"/>
        <pt x="265" y="382" on="0"/>
      </contour>
      <contour>
        <pt x="363" y="-160" on="1"/>
        <pt x="345" y="-173" on="0"/>
        <pt x="294" y="-188" on="0"/>
        <pt x="269" y="-188" on="1"/>
        <pt x="232" y="-187" on="0"/>
        <pt x="179" y="-153" on="0"/>
        <pt x="179" y="-118" on="1"/>
        <pt x="179" y="-80" on="0"/>
        <pt x="231" y="-24" on="0"/>
        <pt x="257" y="-8" on="1"/>
        <pt x="257" y="-6" on="1"/>
        <pt x="250" y="-7" on="0"/>
        <pt x="232" y="-8" on="0"/>
        <pt x="224" y="-8" on="1"/>
        <pt x="131" y="-8" on="0"/>
        <pt x="41" y="111" on="0"/>
        <pt x="41" y="203" on="1"/>
        <pt x="41" y="307" on="0"/>
        <pt x="147" y="425" on="0"/>
        <pt x="235" y="425" on="1"/>
        <pt x="302" y="425" on="0"/>
        <pt x="387" y="352" on="0"/>
        <pt x="387" y="282" on="1"/>
        <pt x="387" y="272" on="0"/>
        <pt x="385" y="243" on="0"/>
        <pt x="383" y="231" on="1"/>
        <pt x="123" y="231" on="1"/>
        <pt x="123" y="229" on="0"/>
        <pt x="123" y="223" on="0"/>
        <pt x="123" y="220" on="1"/>
        <pt x="123" y="122" on="0"/>
        <pt x="193" y="46" on="0"/>
        <pt x="246" y="46" on="1"/>
        <pt x="281" y="46" on="0"/>
        <pt x="342" y="77" on="0"/>
        <pt x="360" y="105" on="1"/>
        <pt x="386" y="90" on="1"/>
        <pt x="380" y="71" on="0"/>
        <pt x="356" y="38" on="0"/>
        <pt x="338" y="25" on="1"/>
        <pt x="294" y="-9" on="0"/>
        <pt x="248" y="-66" on="0"/>
        <pt x="248" y="-96" on="1"/>
        <pt x="248" y="-118" on="0"/>
        <pt x="277" y="-139" on="0"/>
        <pt x="299" y="-139" on="1"/>
        <pt x="310" y="-139" on="0"/>
        <pt x="337" y="-133" on="0"/>
        <pt x="349" y="-127" on="1"/>
      </contour>
    </TTGlyph>
    <TTGlyph name="equal" xMin="59" yMin="125" xMax="392" yMax="322">
      <contour>
        <pt x="392" y="267" on="1"/>
        <pt x="59" y="267" on="1"/>
        <pt x="59" y="322" on="1"/>
        <pt x="392" y="322" on="1"/>
      </contour>
      <contour>
        <pt x="392" y="125" on="1"/>
        <pt x="59" y="125" on="1"/>
        <pt x="59" y="180" on="1"/>
        <pt x="392" y="180" on="1"/>
      </contour>
    </TTGlyph>
    <TTGlyph name="estimated" xMin="46" yMin="-8" xMax="475" yMax="495">
      <contour>
        <pt x="152" y="404" on="1"/>
        <pt x="152" y="271" on="1"/>
        <pt x="376" y="271" on="1"/>
        <pt x="376" y="418" on="1"/>
        <pt x="361" y="436" on="0"/>
        <pt x="305" y="455" on="0"/>
        <pt x="271" y="455" on="1"/>
        <pt x="231" y="455" on="0"/>
        <pt x="169" y="426" on="0"/>
      </contour>
      <contour>
        <pt x="450" y="42" on="1"/>
        <pt x="417" y="17" on="0"/>
        <pt x="335" y="-8" on="0"/>
        <pt x="292" y="-8" on="1"/>
        <pt x="185" y="-8" on="0"/>
        <pt x="46" y="129" on="0"/>
        <pt x="46" y="246" on="1"/>
        <pt x="46" y="352" on="0"/>
        <pt x="166" y="495" on="0"/>
        <pt x="274" y="495" on="1"/>
        <pt x="360" y="495" on="0"/>
        <pt x="474" y="393" on="0"/>
        <pt x="475" y="289" on="1"/>
        <pt x="475" y="272" on="0"/>
        <pt x="472" y="241" on="0"/>
        <pt x="471" y="228" on="1"/>
        <pt x="152" y="228" on="1"/>
        <pt x="152" y="92" on="1"/>
        <pt x="173" y="66" on="0"/>
        <pt x="251" y="34" on="0"/>
        <pt x="297" y="34" on="1"/>
        <pt x="336" y="34" on="0"/>
        <pt x="404" y="56" on="0"/>
        <pt x="430" y="75" on="1"/>
      </contour>
    </TTGlyph>
    <TTGlyph name="eth" xMin="41" yMin="-8" xMax="417" yMax="653">
      <contour>
        <pt x="219" y="-8" on="1"/>
        <pt x="134" y="-8" on="0"/>
        <pt x="41" y="103" on="0"/>
        <pt x="41" y="199" on="1"/>
        <pt x="41" y="257" on="0"/>
        <pt x="73" y="337" on="0"/>
        <pt x="122" y="386" on="0"/>
        <pt x="182" y="408" on="0"/>
        <pt x="211" y="408" on="1"/>
        <pt x="237" y="408" on="0"/>
        <pt x="291" y="391" on="0"/>
        <pt x="310" y="373" on="1"/>
        <pt x="297" y="414" on="0"/>
        <pt x="252" y="485" on="0"/>
        <pt x="222" y="516" on="1"/>
        <pt x="117" y="438" on="1"/>
        <pt x="88" y="480" on="1"/>
        <pt x="189" y="547" on="1"/>
        <pt x="164" y="567" on="0"/>
        <pt x="106" y="602" on="0"/>
        <pt x="73" y="618" on="1"/>
        <pt x="88" y="653" on="1"/>
        <pt x="131" y="640" on="0"/>
        <pt x="206" y="603" on="0"/>
        <pt x="238" y="581" on="1"/>
        <pt x="331" y="649" on="1"/>
        <pt x="360" y="608" on="1"/>
        <pt x="274" y="552" on="1"/>
        <pt x="346" y="489" on="0"/>
        <pt x="417" y="322" on="0"/>
        <pt x="417" y="234" on="1"/>
        <pt x="417" y="127" on="0"/>
        <pt x="317" y="-8" on="0"/>
      </contour>
      <contour>
        <pt x="229" y="33" on="1"/>
        <pt x="285" y="33" on="0"/>
        <pt x="333" y="130" on="0"/>
        <pt x="333" y="223" on="1"/>
        <pt x="333" y="248" on="0"/>
        <pt x="328" y="296" on="0"/>
        <pt x="324" y="318" on="1"/>
        <pt x="306" y="337" on="0"/>
        <pt x="257" y="358" on="0"/>
        <pt x="230" y="358" on="1"/>
        <pt x="185" y="358" on="0"/>
        <pt x="126" y="287" on="0"/>
        <pt x="126" y="198" on="1"/>
        <pt x="126" y="130" on="0"/>
        <pt x="172" y="33" on="0"/>
      </contour>
    </TTGlyph>
    <TTGlyph name="exclam" xMin="69" yMin="-8" xMax="170" yMax="623">
      <contour>
        <pt x="75" y="563" on="1"/>
        <pt x="75" y="623" on="1"/>
        <pt x="164" y="623" on="1"/>
        <pt x="164" y="563" on="1"/>
        <pt x="143" y="169" on="1"/>
        <pt x="97" y="169" on="1"/>
      </contour>
      <contour>
        <pt x="170" y="41" on="1"/>
        <pt x="170" y="20" on="0"/>
        <pt x="142" y="-8" on="0"/>
        <pt x="119" y="-8" on="1"/>
        <pt x="97" y="-8" on="0"/>
        <pt x="69" y="20" on="0"/>
        <pt x="69" y="41" on="1"/>
        <pt x="69" y="63" on="0"/>
        <pt x="97" y="90" on="0"/>
        <pt x="119" y="90" on="1"/>
        <pt x="142" y="90" on="0"/>
        <pt x="170" y="63" on="0"/>
      </contour>
    </TTGlyph>
    <TTGlyph name="exclamdown" xMin="63" yMin="-205" xMax="164" yMax="425">
      <contour>
        <pt x="164" y="377" on="1"/>
        <pt x="164" y="355" on="0"/>
        <pt x="136" y="328" on="0"/>
        <pt x="114" y="328" on="1"/>
        <pt x="92" y="328" on="0"/>
        <pt x="63" y="355" on="0"/>
        <pt x="63" y="377" on="1"/>
        <pt x="63" y="398" on="0"/>
        <pt x="92" y="425" on="0"/>
        <pt x="114" y="425" on="1"/>
        <pt x="136" y="425" on="0"/>
        <pt x="164" y="398" on="0"/>
      </contour>
      <contour>
        <pt x="158" y="-205" on="1"/>
        <pt x="70" y="-205" on="1"/>
        <pt x="70" y="-145" on="1"/>
        <pt x="90" y="249" on="1"/>
        <pt x="137" y="249" on="1"/>
        <pt x="158" y="-145" on="1"/>
      </contour>
    </TTGlyph>
    <TTGlyph name="f" xMin="29" yMin="0" xMax="366" yMax="653">
      <contour>
        <pt x="102" y="455" on="1"/>
        <pt x="102" y="538" on="0"/>
        <pt x="211" y="653" on="0"/>
        <pt x="273" y="653" on="1"/>
        <pt x="297" y="653" on="0"/>
        <pt x="344" y="638" on="0"/>
        <pt x="366" y="625" on="1"/>
        <pt x="353" y="574" on="1"/>
        <pt x="332" y="578" on="0"/>
        <pt x="286" y="583" on="0"/>
        <pt x="269" y="583" on="1"/>
        <pt x="222" y="582" on="0"/>
        <pt x="179" y="540" on="0"/>
        <pt x="179" y="486" on="1"/>
        <pt x="179" y="413" on="1"/>
        <pt x="302" y="413" on="1"/>
        <pt x="302" y="363" on="1"/>
        <pt x="179" y="363" on="1"/>
        <pt x="179" y="66" on="1"/>
        <pt x="179" y="56" on="0"/>
        <pt x="189" y="45" on="0"/>
        <pt x="199" y="44" on="1"/>
        <pt x="276" y="37" on="1"/>
        <pt x="276" y="0" on="1"/>
        <pt x="37" y="0" on="1"/>
        <pt x="37" y="37" on="1"/>
        <pt x="81" y="44" on="1"/>
        <pt x="91" y="45" on="0"/>
        <pt x="101" y="56" on="0"/>
        <pt x="101" y="66" on="1"/>
        <pt x="101" y="360" on="1"/>
        <pt x="29" y="369" on="1"/>
        <pt x="29" y="403" on="1"/>
        <pt x="102" y="413" on="1"/>
      </contour>
    </TTGlyph>
    <TTGlyph name="f_b" xMin="29" yMin="-8" xMax="745" yMax="654">
      <contour>
        <pt x="528" y="-8" on="1"/>
        <pt x="482" y="-8" on="0"/>
        <pt x="402" y="12" on="0"/>
        <pt x="383" y="20" on="1"/>
        <pt x="383" y="565" on="1"/>
        <pt x="356" y="575" on="0"/>
        <pt x="305" y="583" on="0"/>
        <pt x="283" y="583" on="1"/>
        <pt x="234" y="583" on="0"/>
        <pt x="178" y="540" on="0"/>
        <pt x="178" y="486" on="1"/>
        <pt x="178" y="413" on="1"/>
        <pt x="307" y="413" on="1"/>
        <pt x="307" y="363" on="1"/>
        <pt x="178" y="363" on="1"/>
        <pt x="178" y="66" on="1"/>
        <pt x="178" y="56" on="0"/>
        <pt x="188" y="45" on="0"/>
        <pt x="198" y="44" on="1"/>
        <pt x="275" y="37" on="1"/>
        <pt x="275" y="0" on="1"/>
        <pt x="37" y="0" on="1"/>
        <pt x="37" y="37" on="1"/>
        <pt x="81" y="44" on="1"/>
        <pt x="91" y="45" on="0"/>
        <pt x="101" y="56" on="0"/>
        <pt x="101" y="66" on="1"/>
        <pt x="101" y="360" on="1"/>
        <pt x="29" y="369" on="1"/>
        <pt x="29" y="403" on="1"/>
        <pt x="102" y="413" on="1"/>
        <pt x="102" y="457" on="1"/>
        <pt x="102" y="498" on="0"/>
        <pt x="137" y="570" on="0"/>
        <pt x="191" y="623" on="0"/>
        <pt x="260" y="653" on="0"/>
        <pt x="293" y="653" on="1"/>
        <pt x="312" y="653" on="0"/>
        <pt x="355" y="641" on="0"/>
        <pt x="377" y="631" on="1"/>
        <pt x="396" y="639" on="0"/>
        <pt x="433" y="651" on="0"/>
        <pt x="448" y="654" on="1"/>
        <pt x="460" y="643" on="1"/>
        <pt x="460" y="374" on="1"/>
        <pt x="482" y="396" on="0"/>
        <pt x="543" y="425" on="0"/>
        <pt x="583" y="425" on="1"/>
        <pt x="651" y="425" on="0"/>
        <pt x="745" y="331" on="0"/>
        <pt x="745" y="227" on="1"/>
        <pt x="745" y="120" on="0"/>
        <pt x="633" y="-8" on="0"/>
      </contour>
      <contour>
        <pt x="534" y="33" on="1"/>
        <pt x="595" y="33" on="0"/>
        <pt x="660" y="116" on="0"/>
        <pt x="661" y="207" on="1"/>
        <pt x="662" y="298" on="0"/>
        <pt x="602" y="371" on="0"/>
        <pt x="551" y="371" on="1"/>
        <pt x="523" y="371" on="0"/>
        <pt x="479" y="354" on="0"/>
        <pt x="460" y="339" on="1"/>
        <pt x="460" y="51" on="1"/>
        <pt x="474" y="44" on="0"/>
        <pt x="509" y="33" on="0"/>
      </contour>
    </TTGlyph>
    <TTGlyph name="f_f" xMin="29" yMin="0" xMax="656" yMax="653">
      <contour>
        <pt x="264" y="0" on="1"/>
        <pt x="37" y="0" on="1"/>
        <pt x="37" y="37" on="1"/>
        <pt x="81" y="44" on="1"/>
        <pt x="91" y="45" on="0"/>
        <pt x="101" y="56" on="0"/>
        <pt x="101" y="66" on="1"/>
        <pt x="101" y="360" on="1"/>
        <pt x="29" y="369" on="1"/>
        <pt x="29" y="403" on="1"/>
        <pt x="102" y="413" on="1"/>
        <pt x="102" y="439" on="1"/>
        <pt x="103" y="522" on="0"/>
        <pt x="211" y="634" on="0"/>
        <pt x="273" y="634" on="1"/>
        <pt x="297" y="634" on="0"/>
        <pt x="344" y="617" on="0"/>
        <pt x="366" y="604" on="1"/>
        <pt x="349" y="553" on="1"/>
        <pt x="329" y="558" on="0"/>
        <pt x="285" y="564" on="0"/>
        <pt x="269" y="564" on="1"/>
        <pt x="222" y="563" on="0"/>
        <pt x="178" y="521" on="0"/>
        <pt x="178" y="467" on="1"/>
        <pt x="178" y="413" on="1"/>
        <pt x="393" y="413" on="1"/>
        <pt x="393" y="455" on="1"/>
        <pt x="393" y="538" on="0"/>
        <pt x="501" y="653" on="0"/>
        <pt x="563" y="653" on="1"/>
        <pt x="587" y="653" on="0"/>
        <pt x="634" y="638" on="0"/>
        <pt x="656" y="626" on="1"/>
        <pt x="643" y="574" on="1"/>
        <pt x="621" y="578" on="0"/>
        <pt x="576" y="583" on="0"/>
        <pt x="560" y="583" on="1"/>
        <pt x="512" y="582" on="0"/>
        <pt x="469" y="540" on="0"/>
        <pt x="469" y="486" on="1"/>
        <pt x="469" y="413" on="1"/>
        <pt x="592" y="413" on="1"/>
        <pt x="592" y="363" on="1"/>
        <pt x="469" y="363" on="1"/>
        <pt x="469" y="66" on="1"/>
        <pt x="469" y="56" on="0"/>
        <pt x="479" y="45" on="0"/>
        <pt x="489" y="44" on="1"/>
        <pt x="566" y="37" on="1"/>
        <pt x="566" y="0" on="1"/>
        <pt x="329" y="0" on="1"/>
        <pt x="329" y="37" on="1"/>
        <pt x="372" y="44" on="1"/>
        <pt x="382" y="45" on="0"/>
        <pt x="392" y="56" on="0"/>
        <pt x="392" y="66" on="1"/>
        <pt x="392" y="363" on="1"/>
        <pt x="178" y="363" on="1"/>
        <pt x="178" y="66" on="1"/>
        <pt x="178" y="56" on="0"/>
        <pt x="188" y="45" on="0"/>
        <pt x="198" y="44" on="1"/>
        <pt x="264" y="37" on="1"/>
      </contour>
    </TTGlyph>
    <TTGlyph name="f_f_b" xMin="29" yMin="-8" xMax="1036" yMax="654">
      <contour>
        <pt x="1036" y="227" on="1"/>
        <pt x="1036" y="120" on="0"/>
        <pt x="924" y="-8" on="0"/>
        <pt x="818" y="-8" on="1"/>
        <pt x="772" y="-8" on="0"/>
        <pt x="693" y="12" on="0"/>
        <pt x="674" y="20" on="1"/>
        <pt x="674" y="565" on="1"/>
        <pt x="648" y="575" on="0"/>
        <pt x="595" y="583" on="0"/>
        <pt x="573" y="583" on="1"/>
        <pt x="526" y="583" on="0"/>
        <pt x="469" y="540" on="0"/>
        <pt x="469" y="486" on="1"/>
        <pt x="469" y="413" on="1"/>
        <pt x="597" y="413" on="1"/>
        <pt x="597" y="363" on="1"/>
        <pt x="469" y="363" on="1"/>
        <pt x="469" y="66" on="1"/>
        <pt x="469" y="56" on="0"/>
        <pt x="479" y="45" on="0"/>
        <pt x="489" y="44" on="1"/>
        <pt x="566" y="37" on="1"/>
        <pt x="566" y="0" on="1"/>
        <pt x="328" y="0" on="1"/>
        <pt x="328" y="37" on="1"/>
        <pt x="372" y="44" on="1"/>
        <pt x="382" y="45" on="0"/>
        <pt x="392" y="56" on="0"/>
        <pt x="392" y="66" on="1"/>
        <pt x="392" y="363" on="1"/>
        <pt x="178" y="363" on="1"/>
        <pt x="178" y="66" on="1"/>
        <pt x="178" y="56" on="0"/>
        <pt x="188" y="45" on="0"/>
        <pt x="198" y="44" on="1"/>
        <pt x="264" y="37" on="1"/>
        <pt x="264" y="0" on="1"/>
        <pt x="37" y="0" on="1"/>
        <pt x="37" y="37" on="1"/>
        <pt x="81" y="44" on="1"/>
        <pt x="91" y="45" on="0"/>
        <pt x="101" y="56" on="0"/>
        <pt x="101" y="66" on="1"/>
        <pt x="101" y="360" on="1"/>
        <pt x="29" y="369" on="1"/>
        <pt x="29" y="403" on="1"/>
        <pt x="102" y="413" on="1"/>
        <pt x="102" y="439" on="1"/>
        <pt x="103" y="522" on="0"/>
        <pt x="211" y="634" on="0"/>
        <pt x="273" y="634" on="1"/>
        <pt x="297" y="634" on="0"/>
        <pt x="344" y="617" on="0"/>
        <pt x="366" y="604" on="1"/>
        <pt x="349" y="553" on="1"/>
        <pt x="329" y="558" on="0"/>
        <pt x="285" y="564" on="0"/>
        <pt x="269" y="564" on="1"/>
        <pt x="222" y="563" on="0"/>
        <pt x="178" y="521" on="0"/>
        <pt x="178" y="467" on="1"/>
        <pt x="178" y="413" on="1"/>
        <pt x="393" y="413" on="1"/>
        <pt x="393" y="457" on="1"/>
        <pt x="393" y="498" on="0"/>
        <pt x="428" y="570" on="0"/>
        <pt x="483" y="623" on="0"/>
        <pt x="552" y="653" on="0"/>
        <pt x="584" y="653" on="1"/>
        <pt x="603" y="653" on="0"/>
        <pt x="647" y="641" on="0"/>
        <pt x="669" y="631" on="1"/>
        <pt x="688" y="639" on="0"/>
        <pt x="723" y="651" on="0"/>
        <pt x="738" y="654" on="1"/>
        <pt x="751" y="643" on="1"/>
        <pt x="751" y="375" on="1"/>
        <pt x="773" y="397" on="0"/>
        <pt x="833" y="425" on="0"/>
        <pt x="873" y="425" on="1"/>
        <pt x="942" y="425" on="0"/>
        <pt x="1036" y="331" on="0"/>
      </contour>
      <contour>
        <pt x="824" y="33" on="1"/>
        <pt x="886" y="33" on="0"/>
        <pt x="951" y="116" on="0"/>
        <pt x="952" y="207" on="1"/>
        <pt x="953" y="298" on="0"/>
        <pt x="893" y="371" on="0"/>
        <pt x="842" y="371" on="1"/>
        <pt x="815" y="371" on="0"/>
        <pt x="770" y="354" on="0"/>
        <pt x="751" y="339" on="1"/>
        <pt x="751" y="51" on="1"/>
        <pt x="764" y="44" on="0"/>
        <pt x="800" y="33" on="0"/>
      </contour>
    </TTGlyph>
    <TTGlyph name="f_f_h" xMin="29" yMin="0" xMax="1092" yMax="654">
      <contour>
        <pt x="264" y="0" on="1"/>
        <pt x="37" y="0" on="1"/>
        <pt x="37" y="37" on="1"/>
        <pt x="81" y="44" on="1"/>
        <pt x="91" y="45" on="0"/>
        <pt x="101" y="56" on="0"/>
        <pt x="101" y="66" on="1"/>
        <pt x="101" y="360" on="1"/>
        <pt x="29" y="369" on="1"/>
        <pt x="29" y="403" on="1"/>
        <pt x="102" y="413" on="1"/>
        <pt x="102" y="439" on="1"/>
        <pt x="103" y="522" on="0"/>
        <pt x="211" y="634" on="0"/>
        <pt x="273" y="634" on="1"/>
        <pt x="297" y="634" on="0"/>
        <pt x="344" y="617" on="0"/>
        <pt x="366" y="604" on="1"/>
        <pt x="349" y="553" on="1"/>
        <pt x="329" y="558" on="0"/>
        <pt x="285" y="564" on="0"/>
        <pt x="269" y="564" on="1"/>
        <pt x="222" y="563" on="0"/>
        <pt x="178" y="521" on="0"/>
        <pt x="178" y="467" on="1"/>
        <pt x="178" y="413" on="1"/>
        <pt x="393" y="413" on="1"/>
        <pt x="393" y="457" on="1"/>
        <pt x="393" y="498" on="0"/>
        <pt x="429" y="570" on="0"/>
        <pt x="486" y="623" on="0"/>
        <pt x="556" y="653" on="0"/>
        <pt x="589" y="653" on="1"/>
        <pt x="608" y="653" on="0"/>
        <pt x="655" y="641" on="0"/>
        <pt x="677" y="631" on="1"/>
        <pt x="696" y="638" on="0"/>
        <pt x="733" y="651" on="0"/>
        <pt x="748" y="654" on="1"/>
        <pt x="761" y="642" on="1"/>
        <pt x="761" y="368" on="1"/>
        <pt x="791" y="399" on="0"/>
        <pt x="865" y="423" on="0"/>
        <pt x="903" y="423" on="1"/>
        <pt x="975" y="423" on="0"/>
        <pt x="1028" y="339" on="0"/>
        <pt x="1028" y="264" on="1"/>
        <pt x="1028" y="67" on="1"/>
        <pt x="1028" y="57" on="0"/>
        <pt x="1038" y="45" on="0"/>
        <pt x="1047" y="44" on="1"/>
        <pt x="1092" y="37" on="1"/>
        <pt x="1092" y="0" on="1"/>
        <pt x="890" y="0" on="1"/>
        <pt x="890" y="37" on="1"/>
        <pt x="930" y="44" on="1"/>
        <pt x="939" y="46" on="0"/>
        <pt x="950" y="56" on="0"/>
        <pt x="950" y="67" on="1"/>
        <pt x="950" y="250" on="1"/>
        <pt x="950" y="310" on="0"/>
        <pt x="917" y="369" on="0"/>
        <pt x="870" y="369" on="1"/>
        <pt x="842" y="369" on="0"/>
        <pt x="785" y="351" on="0"/>
        <pt x="761" y="333" on="1"/>
        <pt x="761" y="67" on="1"/>
        <pt x="761" y="57" on="0"/>
        <pt x="771" y="46" on="0"/>
        <pt x="780" y="44" on="1"/>
        <pt x="820" y="37" on="1"/>
        <pt x="820" y="0" on="1"/>
        <pt x="621" y="0" on="1"/>
        <pt x="621" y="37" on="1"/>
        <pt x="664" y="44" on="1"/>
        <pt x="674" y="45" on="0"/>
        <pt x="684" y="56" on="0"/>
        <pt x="684" y="66" on="1"/>
        <pt x="684" y="564" on="1"/>
        <pt x="656" y="575" on="0"/>
        <pt x="600" y="583" on="0"/>
        <pt x="577" y="583" on="1"/>
        <pt x="528" y="583" on="0"/>
        <pt x="469" y="540" on="0"/>
        <pt x="469" y="486" on="1"/>
        <pt x="469" y="413" on="1"/>
        <pt x="597" y="413" on="1"/>
        <pt x="597" y="363" on="1"/>
        <pt x="469" y="363" on="1"/>
        <pt x="469" y="66" on="1"/>
        <pt x="469" y="56" on="0"/>
        <pt x="479" y="45" on="0"/>
        <pt x="489" y="44" on="1"/>
        <pt x="558" y="37" on="1"/>
        <pt x="558" y="0" on="1"/>
        <pt x="328" y="0" on="1"/>
        <pt x="328" y="37" on="1"/>
        <pt x="372" y="44" on="1"/>
        <pt x="382" y="45" on="0"/>
        <pt x="392" y="56" on="0"/>
        <pt x="392" y="66" on="1"/>
        <pt x="392" y="363" on="1"/>
        <pt x="178" y="363" on="1"/>
        <pt x="178" y="66" on="1"/>
        <pt x="178" y="56" on="0"/>
        <pt x="188" y="45" on="0"/>
        <pt x="198" y="44" on="1"/>
        <pt x="264" y="37" on="1"/>
      </contour>
    </TTGlyph>
    <TTGlyph name="f_f_k" xMin="29" yMin="0" xMax="1070" yMax="654">
      <contour>
        <pt x="264" y="0" on="1"/>
        <pt x="37" y="0" on="1"/>
        <pt x="37" y="37" on="1"/>
        <pt x="81" y="44" on="1"/>
        <pt x="91" y="45" on="0"/>
        <pt x="101" y="56" on="0"/>
        <pt x="101" y="66" on="1"/>
        <pt x="101" y="360" on="1"/>
        <pt x="29" y="369" on="1"/>
        <pt x="29" y="403" on="1"/>
        <pt x="102" y="413" on="1"/>
        <pt x="102" y="439" on="1"/>
        <pt x="103" y="522" on="0"/>
        <pt x="211" y="634" on="0"/>
        <pt x="273" y="634" on="1"/>
        <pt x="297" y="634" on="0"/>
        <pt x="344" y="617" on="0"/>
        <pt x="366" y="604" on="1"/>
        <pt x="349" y="553" on="1"/>
        <pt x="329" y="558" on="0"/>
        <pt x="285" y="564" on="0"/>
        <pt x="269" y="564" on="1"/>
        <pt x="222" y="563" on="0"/>
        <pt x="178" y="521" on="0"/>
        <pt x="178" y="467" on="1"/>
        <pt x="178" y="413" on="1"/>
        <pt x="393" y="413" on="1"/>
        <pt x="393" y="457" on="1"/>
        <pt x="393" y="498" on="0"/>
        <pt x="429" y="570" on="0"/>
        <pt x="486" y="623" on="0"/>
        <pt x="556" y="653" on="0"/>
        <pt x="589" y="653" on="1"/>
        <pt x="608" y="653" on="0"/>
        <pt x="655" y="641" on="0"/>
        <pt x="677" y="631" on="1"/>
        <pt x="696" y="638" on="0"/>
        <pt x="733" y="651" on="0"/>
        <pt x="748" y="654" on="1"/>
        <pt x="761" y="642" on="1"/>
        <pt x="761" y="187" on="1"/>
        <pt x="926" y="366" on="1"/>
        <pt x="852" y="378" on="1"/>
        <pt x="852" y="413" on="1"/>
        <pt x="1050" y="413" on="1"/>
        <pt x="1050" y="378" on="1"/>
        <pt x="1006" y="368" on="1"/>
        <pt x="996" y="367" on="0"/>
        <pt x="983" y="361" on="0"/>
        <pt x="976" y="354" on="1"/>
        <pt x="882" y="257" on="1"/>
        <pt x="892" y="243" on="0"/>
        <pt x="911" y="215" on="0"/>
        <pt x="921" y="196" on="1"/>
        <pt x="997" y="70" on="1"/>
        <pt x="1003" y="60" on="0"/>
        <pt x="1017" y="49" on="0"/>
        <pt x="1025" y="47" on="1"/>
        <pt x="1070" y="37" on="1"/>
        <pt x="1070" y="0" on="1"/>
        <pt x="960" y="0" on="1"/>
        <pt x="945" y="0" on="0"/>
        <pt x="921" y="35" on="0"/>
        <pt x="906" y="63" on="1"/>
        <pt x="865" y="141" on="1"/>
        <pt x="855" y="158" on="0"/>
        <pt x="838" y="190" on="0"/>
        <pt x="830" y="203" on="1"/>
        <pt x="761" y="131" on="1"/>
        <pt x="761" y="67" on="1"/>
        <pt x="761" y="57" on="0"/>
        <pt x="771" y="45" on="0"/>
        <pt x="781" y="44" on="1"/>
        <pt x="825" y="37" on="1"/>
        <pt x="825" y="0" on="1"/>
        <pt x="621" y="0" on="1"/>
        <pt x="621" y="37" on="1"/>
        <pt x="664" y="44" on="1"/>
        <pt x="674" y="45" on="0"/>
        <pt x="684" y="57" on="0"/>
        <pt x="684" y="67" on="1"/>
        <pt x="684" y="564" on="1"/>
        <pt x="656" y="575" on="0"/>
        <pt x="600" y="583" on="0"/>
        <pt x="577" y="583" on="1"/>
        <pt x="528" y="583" on="0"/>
        <pt x="469" y="540" on="0"/>
        <pt x="469" y="486" on="1"/>
        <pt x="469" y="413" on="1"/>
        <pt x="597" y="413" on="1"/>
        <pt x="597" y="363" on="1"/>
        <pt x="469" y="363" on="1"/>
        <pt x="469" y="66" on="1"/>
        <pt x="469" y="56" on="0"/>
        <pt x="479" y="45" on="0"/>
        <pt x="489" y="44" on="1"/>
        <pt x="558" y="37" on="1"/>
        <pt x="558" y="0" on="1"/>
        <pt x="328" y="0" on="1"/>
        <pt x="328" y="37" on="1"/>
        <pt x="372" y="44" on="1"/>
        <pt x="382" y="45" on="0"/>
        <pt x="392" y="56" on="0"/>
        <pt x="392" y="66" on="1"/>
        <pt x="392" y="363" on="1"/>
        <pt x="178" y="363" on="1"/>
        <pt x="178" y="66" on="1"/>
        <pt x="178" y="56" on="0"/>
        <pt x="188" y="45" on="0"/>
        <pt x="198" y="44" on="1"/>
        <pt x="264" y="37" on="1"/>
      </contour>
    </TTGlyph>
    <TTGlyph name="f_f_l" xMin="29" yMin="0" xMax="834" yMax="654">
      <contour>
        <pt x="264" y="0" on="1"/>
        <pt x="37" y="0" on="1"/>
        <pt x="37" y="37" on="1"/>
        <pt x="81" y="44" on="1"/>
        <pt x="91" y="45" on="0"/>
        <pt x="101" y="56" on="0"/>
        <pt x="101" y="66" on="1"/>
        <pt x="101" y="360" on="1"/>
        <pt x="29" y="369" on="1"/>
        <pt x="29" y="403" on="1"/>
        <pt x="102" y="413" on="1"/>
        <pt x="102" y="439" on="1"/>
        <pt x="103" y="522" on="0"/>
        <pt x="211" y="634" on="0"/>
        <pt x="273" y="634" on="1"/>
        <pt x="297" y="634" on="0"/>
        <pt x="344" y="617" on="0"/>
        <pt x="366" y="604" on="1"/>
        <pt x="349" y="553" on="1"/>
        <pt x="329" y="558" on="0"/>
        <pt x="285" y="564" on="0"/>
        <pt x="269" y="564" on="1"/>
        <pt x="222" y="563" on="0"/>
        <pt x="178" y="521" on="0"/>
        <pt x="178" y="467" on="1"/>
        <pt x="178" y="413" on="1"/>
        <pt x="393" y="413" on="1"/>
        <pt x="393" y="457" on="1"/>
        <pt x="393" y="498" on="0"/>
        <pt x="429" y="570" on="0"/>
        <pt x="486" y="623" on="0"/>
        <pt x="556" y="653" on="0"/>
        <pt x="589" y="653" on="1"/>
        <pt x="608" y="653" on="0"/>
        <pt x="655" y="641" on="0"/>
        <pt x="677" y="631" on="1"/>
        <pt x="696" y="638" on="0"/>
        <pt x="733" y="651" on="0"/>
        <pt x="748" y="654" on="1"/>
        <pt x="761" y="642" on="1"/>
        <pt x="761" y="67" on="1"/>
        <pt x="761" y="57" on="0"/>
        <pt x="771" y="45" on="0"/>
        <pt x="781" y="44" on="1"/>
        <pt x="834" y="36" on="1"/>
        <pt x="834" y="0" on="1"/>
        <pt x="621" y="0" on="1"/>
        <pt x="621" y="37" on="1"/>
        <pt x="664" y="44" on="1"/>
        <pt x="674" y="45" on="0"/>
        <pt x="684" y="56" on="0"/>
        <pt x="684" y="66" on="1"/>
        <pt x="684" y="564" on="1"/>
        <pt x="656" y="575" on="0"/>
        <pt x="600" y="583" on="0"/>
        <pt x="577" y="583" on="1"/>
        <pt x="528" y="583" on="0"/>
        <pt x="469" y="540" on="0"/>
        <pt x="469" y="486" on="1"/>
        <pt x="469" y="413" on="1"/>
        <pt x="597" y="413" on="1"/>
        <pt x="597" y="363" on="1"/>
        <pt x="469" y="363" on="1"/>
        <pt x="469" y="66" on="1"/>
        <pt x="469" y="56" on="0"/>
        <pt x="479" y="45" on="0"/>
        <pt x="489" y="44" on="1"/>
        <pt x="558" y="37" on="1"/>
        <pt x="558" y="0" on="1"/>
        <pt x="328" y="0" on="1"/>
        <pt x="328" y="37" on="1"/>
        <pt x="372" y="44" on="1"/>
        <pt x="382" y="45" on="0"/>
        <pt x="392" y="56" on="0"/>
        <pt x="392" y="66" on="1"/>
        <pt x="392" y="363" on="1"/>
        <pt x="178" y="363" on="1"/>
        <pt x="178" y="66" on="1"/>
        <pt x="178" y="56" on="0"/>
        <pt x="188" y="45" on="0"/>
        <pt x="198" y="44" on="1"/>
        <pt x="264" y="37" on="1"/>
      </contour>
    </TTGlyph>
    <TTGlyph name="f_h" xMin="29" yMin="0" xMax="801" yMax="654">
      <contour>
        <pt x="267" y="37" on="1"/>
        <pt x="267" y="0" on="1"/>
        <pt x="37" y="0" on="1"/>
        <pt x="37" y="37" on="1"/>
        <pt x="81" y="44" on="1"/>
        <pt x="91" y="45" on="0"/>
        <pt x="101" y="56" on="0"/>
        <pt x="101" y="66" on="1"/>
        <pt x="101" y="360" on="1"/>
        <pt x="29" y="369" on="1"/>
        <pt x="29" y="403" on="1"/>
        <pt x="102" y="413" on="1"/>
        <pt x="102" y="457" on="1"/>
        <pt x="102" y="498" on="0"/>
        <pt x="138" y="570" on="0"/>
        <pt x="195" y="623" on="0"/>
        <pt x="265" y="653" on="0"/>
        <pt x="298" y="653" on="1"/>
        <pt x="317" y="653" on="0"/>
        <pt x="364" y="641" on="0"/>
        <pt x="387" y="631" on="1"/>
        <pt x="406" y="638" on="0"/>
        <pt x="442" y="651" on="0"/>
        <pt x="457" y="654" on="1"/>
        <pt x="471" y="642" on="1"/>
        <pt x="471" y="369" on="1"/>
        <pt x="501" y="399" on="0"/>
        <pt x="575" y="423" on="0"/>
        <pt x="612" y="423" on="1"/>
        <pt x="684" y="423" on="0"/>
        <pt x="737" y="339" on="0"/>
        <pt x="737" y="264" on="1"/>
        <pt x="737" y="67" on="1"/>
        <pt x="737" y="57" on="0"/>
        <pt x="747" y="45" on="0"/>
        <pt x="757" y="44" on="1"/>
        <pt x="801" y="37" on="1"/>
        <pt x="801" y="0" on="1"/>
        <pt x="600" y="0" on="1"/>
        <pt x="600" y="37" on="1"/>
        <pt x="639" y="44" on="1"/>
        <pt x="648" y="46" on="0"/>
        <pt x="659" y="56" on="0"/>
        <pt x="659" y="67" on="1"/>
        <pt x="659" y="250" on="1"/>
        <pt x="659" y="310" on="0"/>
        <pt x="626" y="369" on="0"/>
        <pt x="579" y="369" on="1"/>
        <pt x="551" y="369" on="0"/>
        <pt x="495" y="351" on="0"/>
        <pt x="471" y="333" on="1"/>
        <pt x="471" y="67" on="1"/>
        <pt x="471" y="57" on="0"/>
        <pt x="480" y="46" on="0"/>
        <pt x="490" y="44" on="1"/>
        <pt x="529" y="37" on="1"/>
        <pt x="529" y="0" on="1"/>
        <pt x="330" y="0" on="1"/>
        <pt x="330" y="37" on="1"/>
        <pt x="373" y="44" on="1"/>
        <pt x="383" y="45" on="0"/>
        <pt x="393" y="56" on="0"/>
        <pt x="393" y="66" on="1"/>
        <pt x="393" y="564" on="1"/>
        <pt x="365" y="575" on="0"/>
        <pt x="309" y="583" on="0"/>
        <pt x="286" y="583" on="1"/>
        <pt x="237" y="583" on="0"/>
        <pt x="178" y="540" on="0"/>
        <pt x="178" y="486" on="1"/>
        <pt x="178" y="413" on="1"/>
        <pt x="307" y="413" on="1"/>
        <pt x="307" y="363" on="1"/>
        <pt x="178" y="363" on="1"/>
        <pt x="178" y="66" on="1"/>
        <pt x="178" y="56" on="0"/>
        <pt x="188" y="45" on="0"/>
        <pt x="198" y="44" on="1"/>
      </contour>
    </TTGlyph>
    <TTGlyph name="f_k" xMin="29" yMin="0" xMax="779" yMax="654">
      <contour>
        <pt x="267" y="37" on="1"/>
        <pt x="267" y="0" on="1"/>
        <pt x="37" y="0" on="1"/>
        <pt x="37" y="37" on="1"/>
        <pt x="81" y="44" on="1"/>
        <pt x="91" y="45" on="0"/>
        <pt x="101" y="56" on="0"/>
        <pt x="101" y="66" on="1"/>
        <pt x="101" y="360" on="1"/>
        <pt x="29" y="369" on="1"/>
        <pt x="29" y="403" on="1"/>
        <pt x="102" y="413" on="1"/>
        <pt x="102" y="457" on="1"/>
        <pt x="102" y="498" on="0"/>
        <pt x="138" y="570" on="0"/>
        <pt x="195" y="623" on="0"/>
        <pt x="265" y="653" on="0"/>
        <pt x="298" y="653" on="1"/>
        <pt x="317" y="653" on="0"/>
        <pt x="364" y="641" on="0"/>
        <pt x="387" y="631" on="1"/>
        <pt x="406" y="638" on="0"/>
        <pt x="442" y="651" on="0"/>
        <pt x="457" y="654" on="1"/>
        <pt x="471" y="642" on="1"/>
        <pt x="471" y="188" on="1"/>
        <pt x="635" y="366" on="1"/>
        <pt x="562" y="378" on="1"/>
        <pt x="562" y="413" on="1"/>
        <pt x="760" y="413" on="1"/>
        <pt x="760" y="378" on="1"/>
        <pt x="716" y="368" on="1"/>
        <pt x="706" y="367" on="0"/>
        <pt x="692" y="361" on="0"/>
        <pt x="685" y="354" on="1"/>
        <pt x="591" y="257" on="1"/>
        <pt x="602" y="243" on="0"/>
        <pt x="620" y="215" on="0"/>
        <pt x="630" y="196" on="1"/>
        <pt x="706" y="70" on="1"/>
        <pt x="712" y="60" on="0"/>
        <pt x="726" y="49" on="0"/>
        <pt x="734" y="47" on="1"/>
        <pt x="779" y="37" on="1"/>
        <pt x="779" y="0" on="1"/>
        <pt x="669" y="0" on="1"/>
        <pt x="654" y="0" on="0"/>
        <pt x="630" y="35" on="0"/>
        <pt x="615" y="63" on="1"/>
        <pt x="574" y="141" on="1"/>
        <pt x="564" y="158" on="0"/>
        <pt x="548" y="190" on="0"/>
        <pt x="540" y="203" on="1"/>
        <pt x="471" y="132" on="1"/>
        <pt x="471" y="67" on="1"/>
        <pt x="471" y="57" on="0"/>
        <pt x="480" y="45" on="0"/>
        <pt x="490" y="44" on="1"/>
        <pt x="534" y="37" on="1"/>
        <pt x="534" y="0" on="1"/>
        <pt x="330" y="0" on="1"/>
        <pt x="330" y="37" on="1"/>
        <pt x="373" y="44" on="1"/>
        <pt x="383" y="45" on="0"/>
        <pt x="393" y="57" on="0"/>
        <pt x="393" y="67" on="1"/>
        <pt x="393" y="564" on="1"/>
        <pt x="365" y="575" on="0"/>
        <pt x="309" y="583" on="0"/>
        <pt x="286" y="583" on="1"/>
        <pt x="237" y="583" on="0"/>
        <pt x="178" y="540" on="0"/>
        <pt x="178" y="486" on="1"/>
        <pt x="178" y="413" on="1"/>
        <pt x="307" y="413" on="1"/>
        <pt x="307" y="363" on="1"/>
        <pt x="178" y="363" on="1"/>
        <pt x="178" y="66" on="1"/>
        <pt x="178" y="56" on="0"/>
        <pt x="188" y="45" on="0"/>
        <pt x="198" y="44" on="1"/>
      </contour>
    </TTGlyph>
    <TTGlyph name="f_l" xMin="29" yMin="0" xMax="543" yMax="654">
      <contour>
        <pt x="267" y="37" on="1"/>
        <pt x="267" y="0" on="1"/>
        <pt x="37" y="0" on="1"/>
        <pt x="37" y="37" on="1"/>
        <pt x="81" y="44" on="1"/>
        <pt x="91" y="45" on="0"/>
        <pt x="101" y="56" on="0"/>
        <pt x="101" y="66" on="1"/>
        <pt x="101" y="360" on="1"/>
        <pt x="29" y="369" on="1"/>
        <pt x="29" y="403" on="1"/>
        <pt x="102" y="413" on="1"/>
        <pt x="102" y="457" on="1"/>
        <pt x="102" y="498" on="0"/>
        <pt x="138" y="570" on="0"/>
        <pt x="195" y="623" on="0"/>
        <pt x="265" y="653" on="0"/>
        <pt x="298" y="653" on="1"/>
        <pt x="317" y="653" on="0"/>
        <pt x="364" y="641" on="0"/>
        <pt x="387" y="631" on="1"/>
        <pt x="406" y="638" on="0"/>
        <pt x="442" y="651" on="0"/>
        <pt x="457" y="654" on="1"/>
        <pt x="471" y="642" on="1"/>
        <pt x="471" y="67" on="1"/>
        <pt x="471" y="57" on="0"/>
        <pt x="480" y="45" on="0"/>
        <pt x="490" y="44" on="1"/>
        <pt x="543" y="36" on="1"/>
        <pt x="543" y="0" on="1"/>
        <pt x="330" y="0" on="1"/>
        <pt x="330" y="37" on="1"/>
        <pt x="373" y="44" on="1"/>
        <pt x="383" y="45" on="0"/>
        <pt x="393" y="56" on="0"/>
        <pt x="393" y="66" on="1"/>
        <pt x="393" y="564" on="1"/>
        <pt x="365" y="575" on="0"/>
        <pt x="309" y="583" on="0"/>
        <pt x="286" y="583" on="1"/>
        <pt x="237" y="583" on="0"/>
        <pt x="178" y="540" on="0"/>
        <pt x="178" y="486" on="1"/>
        <pt x="178" y="413" on="1"/>
        <pt x="307" y="413" on="1"/>
        <pt x="307" y="363" on="1"/>
        <pt x="178" y="363" on="1"/>
        <pt x="178" y="66" on="1"/>
        <pt x="178" y="56" on="0"/>
        <pt x="188" y="45" on="0"/>
        <pt x="198" y="44" on="1"/>
      </contour>
    </TTGlyph>
    <TTGlyph name="five" xMin="35" yMin="-9" xMax="382" yMax="500">
      <contour>
        <pt x="58" y="86" on="1"/>
        <pt x="80" y="69" on="0"/>
        <pt x="139" y="44" on="0"/>
        <pt x="175" y="44" on="1"/>
        <pt x="226" y="44" on="0"/>
        <pt x="294" y="104" on="0"/>
        <pt x="294" y="160" on="1"/>
        <pt x="294" y="208" on="0"/>
        <pt x="239" y="269" on="0"/>
        <pt x="188" y="269" on="1"/>
        <pt x="168" y="269" on="0"/>
        <pt x="122" y="257" on="0"/>
        <pt x="100" y="245" on="1"/>
        <pt x="70" y="266" on="1"/>
        <pt x="85" y="500" on="1"/>
        <pt x="357" y="500" on="1"/>
        <pt x="349" y="438" on="1"/>
        <pt x="138" y="438" on="1"/>
        <pt x="125" y="293" on="1"/>
        <pt x="147" y="309" on="0"/>
        <pt x="198" y="322" on="0"/>
        <pt x="223" y="322" on="1"/>
        <pt x="297" y="322" on="0"/>
        <pt x="382" y="239" on="0"/>
        <pt x="382" y="168" on="1"/>
        <pt x="382" y="89" on="0"/>
        <pt x="276" y="-9" on="0"/>
        <pt x="192" y="-9" on="1"/>
        <pt x="140" y="-9" on="0"/>
        <pt x="58" y="28" on="0"/>
        <pt x="35" y="54" on="1"/>
      </contour>
    </TTGlyph>
    <TTGlyph name="five.tf" xMin="40" yMin="-9" xMax="387" yMax="500">
      <component glyphName="five" x="5" y="0" flags="0x4"/>
    </TTGlyph>
    <TTGlyph name="four" xMin="16" yMin="0" xMax="415" yMax="507">
      <contour>
        <pt x="415" y="96" on="1"/>
        <pt x="335" y="96" on="1"/>
        <pt x="335" y="0" on="1"/>
        <pt x="258" y="0" on="1"/>
        <pt x="258" y="96" on="1"/>
        <pt x="40" y="96" on="1"/>
        <pt x="16" y="140" on="1"/>
        <pt x="69" y="227" on="0"/>
        <pt x="173" y="411" on="0"/>
        <pt x="220" y="507" on="1"/>
        <pt x="294" y="507" on="1"/>
        <pt x="304" y="486" on="1"/>
        <pt x="231" y="355" on="0"/>
        <pt x="131" y="191" on="0"/>
        <pt x="82" y="140" on="1"/>
        <pt x="260" y="147" on="1"/>
        <pt x="268" y="267" on="1"/>
        <pt x="335" y="271" on="1"/>
        <pt x="335" y="149" on="1"/>
        <pt x="415" y="152" on="1"/>
      </contour>
    </TTGlyph>
    <TTGlyph name="four.dnom" xMin="31" yMin="0" xMax="333" yMax="351">
      <component glyphName="four.numr" x="-4" y="-228" flags="0x4"/>
    </TTGlyph>
    <TTGlyph name="four.numr" xMin="35" yMin="228" xMax="337" yMax="579">
      <component glyphName="foursuperior" x="4" y="0" flags="0x4"/>
    </TTGlyph>
    <TTGlyph name="four.tf" xMin="13" yMin="0" xMax="412" yMax="507">
      <component glyphName="four" x="-3" y="0" flags="0x4"/>
    </TTGlyph>
    <TTGlyph name="foursuperior" xMin="31" yMin="228" xMax="333" yMax="579">
      <contour>
        <pt x="333" y="294" on="1"/>
        <pt x="271" y="294" on="1"/>
        <pt x="271" y="228" on="1"/>
        <pt x="212" y="228" on="1"/>
        <pt x="212" y="294" on="1"/>
        <pt x="51" y="294" on="1"/>
        <pt x="31" y="322" on="1"/>
        <pt x="74" y="385" on="0"/>
        <pt x="146" y="515" on="0"/>
        <pt x="177" y="579" on="1"/>
        <pt x="234" y="579" on="1"/>
        <pt x="245" y="566" on="1"/>
        <pt x="188" y="458" on="0"/>
        <pt x="118" y="358" on="0"/>
        <pt x="87" y="330" on="1"/>
        <pt x="213" y="336" on="1"/>
        <pt x="224" y="430" on="1"/>
        <pt x="271" y="430" on="1"/>
        <pt x="271" y="339" on="1"/>
        <pt x="333" y="342" on="1"/>
      </contour>
    </TTGlyph>
    <TTGlyph name="fraction" xMin="-135" yMin="0" xMax="273" yMax="568">
      <contour>
        <pt x="-72" y="0" on="1"/>
        <pt x="-135" y="0" on="1"/>
        <pt x="210" y="568" on="1"/>
        <pt x="273" y="568" on="1"/>
      </contour>
    </TTGlyph>
    <TTGlyph name="g" xMin="34" yMin="-201" xMax="448" yMax="425">
      <contour>
        <pt x="128" y="283" on="1"/>
        <pt x="128" y="230" on="0"/>
        <pt x="171" y="175" on="0"/>
        <pt x="219" y="175" on="1"/>
        <pt x="261" y="175" on="0"/>
        <pt x="304" y="224" on="0"/>
        <pt x="304" y="278" on="1"/>
        <pt x="304" y="334" on="0"/>
        <pt x="260" y="385" on="0"/>
        <pt x="214" y="385" on="1"/>
        <pt x="178" y="385" on="0"/>
        <pt x="128" y="343" on="0"/>
      </contour>
      <contour>
        <pt x="435" y="-45" on="1"/>
        <pt x="435" y="-116" on="0"/>
        <pt x="306" y="-201" on="0"/>
        <pt x="207" y="-201" on="1"/>
        <pt x="120" y="-201" on="0"/>
        <pt x="34" y="-137" on="0"/>
        <pt x="34" y="-86" on="1"/>
        <pt x="34" y="-49" on="0"/>
        <pt x="73" y="-1" on="0"/>
        <pt x="104" y="13" on="1"/>
        <pt x="86" y="23" on="0"/>
        <pt x="68" y="53" on="0"/>
        <pt x="68" y="74" on="1"/>
        <pt x="68" y="103" on="0"/>
        <pt x="100" y="140" on="0"/>
        <pt x="122" y="151" on="1"/>
        <pt x="87" y="167" on="0"/>
        <pt x="48" y="229" on="0"/>
        <pt x="48" y="274" on="1"/>
        <pt x="48" y="351" on="0"/>
        <pt x="151" y="425" on="0"/>
        <pt x="223" y="425" on="1"/>
        <pt x="258" y="425" on="0"/>
        <pt x="317" y="407" on="0"/>
        <pt x="337" y="390" on="1"/>
        <pt x="354" y="406" on="0"/>
        <pt x="389" y="425" on="0"/>
        <pt x="407" y="425" on="1"/>
        <pt x="416" y="425" on="0"/>
        <pt x="438" y="420" on="0"/>
        <pt x="448" y="418" on="1"/>
        <pt x="448" y="359" on="1"/>
        <pt x="364" y="359" on="1"/>
        <pt x="373" y="344" on="0"/>
        <pt x="383" y="307" on="0"/>
        <pt x="383" y="285" on="1"/>
        <pt x="383" y="217" on="0"/>
        <pt x="289" y="134" on="0"/>
        <pt x="209" y="134" on="1"/>
        <pt x="194" y="134" on="0"/>
        <pt x="166" y="137" on="0"/>
        <pt x="153" y="140" on="1"/>
        <pt x="143" y="133" on="0"/>
        <pt x="131" y="113" on="0"/>
        <pt x="131" y="100" on="1"/>
        <pt x="131" y="78" on="0"/>
        <pt x="170" y="59" on="0"/>
        <pt x="213" y="59" on="1"/>
        <pt x="302" y="59" on="1"/>
        <pt x="368" y="59" on="0"/>
        <pt x="435" y="4" on="0"/>
      </contour>
      <contour>
        <pt x="221" y="-158" on="1"/>
        <pt x="282" y="-158" on="0"/>
        <pt x="359" y="-109" on="0"/>
        <pt x="359" y="-59" on="1"/>
        <pt x="359" y="-32" on="0"/>
        <pt x="326" y="-2" on="0"/>
        <pt x="280" y="-2" on="1"/>
        <pt x="187" y="-2" on="1"/>
        <pt x="174" y="-2" on="0"/>
        <pt x="149" y="0" on="0"/>
        <pt x="139" y="2" on="1"/>
        <pt x="126" y="-11" on="0"/>
        <pt x="110" y="-48" on="0"/>
        <pt x="110" y="-73" on="1"/>
        <pt x="110" y="-110" on="0"/>
        <pt x="158" y="-158" on="0"/>
      </contour>
    </TTGlyph>
    <TTGlyph name="gbreve" xMin="34" yMin="-201" xMax="448" yMax="599">
      <component glyphName="g" x="0" y="0" flags="0x204"/>
      <component glyphName="uni0306" x="220" y="0" flags="0x4"/>
    </TTGlyph>
    <TTGlyph name="gcircumflex" xMin="34" yMin="-201" xMax="448" yMax="629">
      <component glyphName="g" x="0" y="0" flags="0x204"/>
      <component glyphName="uni0302" x="220" y="0" flags="0x4"/>
    </TTGlyph>
    <TTGlyph name="gcommaaccent" xMin="34" yMin="-201" xMax="448" yMax="651">
      <component glyphName="g" x="0" y="0" flags="0x204"/>
      <component glyphName="uni0312" x="220" y="0" flags="0x4"/>
    </TTGlyph>
    <TTGlyph name="gdotaccent" xMin="34" yMin="-201" xMax="448" yMax="587">
      <component glyphName="g" x="0" y="0" flags="0x204"/>
      <component glyphName="uni0307" x="220" y="0" flags="0x4"/>
    </TTGlyph>
</ttFont>
